<svg width="20" height="23" viewBox="0 0 20 23" fill="none" xmlns="http://www.w3.org/2000/svg">
<path d="M10 22.2095C15.5228 22.2095 20 17.4331 20 11.5412C20 5.64936 15.5228 0.873047 10 0.873047C4.47715 0.873047 0 5.64936 0 11.5412C0 17.4331 4.47715 22.2095 10 22.2095Z" fill="#F7931A"/>
<path d="M14.4927 10.2205C14.6889 8.82295 13.6908 8.07151 12.327 7.5701L12.7695 5.6765L11.6895 5.38979L11.2583 7.23339C10.9745 7.15738 10.6833 7.0867 10.3927 7.01602L10.827 5.16042L9.74703 4.87305L9.30453 6.76599C9.06953 6.70864 8.83828 6.65264 8.61453 6.59263L8.61578 6.58663L7.12578 6.1899L6.83828 7.42075C6.83828 7.42075 7.64016 7.61678 7.62328 7.62878C8.06078 7.74546 8.13953 8.05417 8.12641 8.29954L7.62266 10.4565C7.65266 10.4645 7.69141 10.4765 7.73516 10.4945L7.62078 10.4645L6.91453 13.4863C6.86078 13.6276 6.72516 13.8403 6.41891 13.7597C6.43016 13.7763 5.63391 13.551 5.63391 13.551L5.09766 14.8698L6.50391 15.2439C6.76516 15.3139 7.02141 15.3872 7.27328 15.4559L6.82641 17.3708L7.90578 17.6576L8.34828 15.7639C8.64328 15.8486 8.92953 15.9273 9.20953 16.002L8.76828 17.8876L9.84828 18.1743L10.2952 16.2634C12.1377 16.6354 13.5227 16.4854 14.1058 14.7078C14.5758 13.2769 14.0827 12.4508 13.1133 11.9127C13.8195 11.7394 14.3508 11.244 14.4927 10.2205ZM12.0239 13.913C11.6908 15.3446 9.43141 14.5704 8.69891 14.3764L9.29266 11.8394C10.0252 12.0347 12.3733 12.4208 12.0239 13.913ZM12.3583 10.1998C12.0539 11.502 10.1739 10.8399 9.56453 10.6779L10.102 8.37755C10.7114 8.53957 12.6758 8.84162 12.3583 10.1998Z" fill="white"/>
</svg>
