<svg width="20" height="22" viewBox="0 0 20 22" fill="none" xmlns="http://www.w3.org/2000/svg">
<path d="M1.90476 0.220703C1.39959 0.220703 0.915104 0.434792 0.557892 0.815873C0.20068 1.19695 0 1.71381 0 2.25274V18.509C0 19.048 0.20068 19.5648 0.557892 19.9459C0.915104 20.327 1.39959 20.5411 1.90476 20.5411H9.91429C10.947 21.2031 12.1285 21.5542 13.3333 21.5571C15.1014 21.5571 16.7971 20.8078 18.0474 19.474C19.2976 18.1402 20 16.3312 20 14.445C19.9983 12.9148 19.5341 11.426 18.6762 10.1997C17.8184 8.97331 16.6126 8.07484 15.2381 7.63764V6.31682L9.52381 0.220703H1.90476ZM1.90476 2.25274H8.57143V7.33284H13.3333C11.5652 7.33284 9.86953 8.08215 8.61929 9.41593C7.36905 10.7497 6.66667 12.5587 6.66667 14.445C6.66794 15.8987 7.08674 17.317 7.86667 18.509H1.90476V2.25274ZM13.3333 9.36488C14.5963 9.36488 15.8075 9.9001 16.7005 10.8528C17.5935 11.8055 18.0952 13.0976 18.0952 14.445C18.0952 15.7923 17.5935 17.0844 16.7005 18.0371C15.8075 18.9898 14.5963 19.5251 13.3333 19.5251C12.0704 19.5251 10.8592 18.9898 9.96616 18.0371C9.07313 17.0844 8.57143 15.7923 8.57143 14.445C8.57143 13.0976 9.07313 11.8055 9.96616 10.8528C10.8592 9.9001 12.0704 9.36488 13.3333 9.36488ZM12.381 10.3809V15.461L15.819 17.6556L16.5333 16.416L13.8095 14.699V10.3809H12.381Z" fill="white" fill-opacity="0.6"/>
</svg>
