<svg width="33" height="34" viewBox="0 0 33 34" fill="none" xmlns="http://www.w3.org/2000/svg">
<path d="M3.7193 32.9974C4.00149 33.014 4.28284 32.9518 4.55066 32.8071C5.52847 32.2792 6.32599 30.6525 6.32599 27.7499V1H32V27.7499C32 33.7056 26.652 32.8071 24.5219 32.8071L3.7193 32.9974ZM3.7193 32.9974C2.3693 32.9181 1 31.0359 1 27.7499V18.1773H4.55066" stroke="white" stroke-opacity="0.8" stroke-width="2"/>
<path d="M20.1519 16.3689V12.8069C21.2408 13.0912 22.3052 13.6327 23.176 14.4847L23.1797 14.4794C23.2447 14.5347 23.3236 14.5727 23.4135 14.5727C23.5317 14.5727 23.6331 14.5118 23.7031 14.4219L23.7081 14.423L25.1156 12.3063L25.1123 12.3045C25.1701 12.2333 25.2084 12.1431 25.2084 12.0417C25.2084 11.9219 25.1579 11.8169 25.0806 11.7426C23.7751 10.4562 22.1083 9.68396 20.1519 9.45178V7.40622C20.1519 7.1818 19.9812 7 19.7708 7H18.2589C18.0485 7 17.8781 7.1818 17.8781 7.40622V9.39999C14.612 9.76112 12.6767 11.9811 12.6767 14.5879C12.6767 18.098 15.3864 19.1046 17.8781 19.7501V23.7503C16.2781 23.4445 14.963 22.5598 14.0684 21.5694C14.0621 21.562 14.0555 21.5557 14.0485 21.549C14.0433 21.543 14.0367 21.537 14.0314 21.531L14.0287 21.5349C13.963 21.4778 13.8828 21.4387 13.7913 21.4387C13.6473 21.4387 13.5264 21.5271 13.4617 21.6529L13.4571 21.6522L12.0948 23.8098L12.0964 23.8133C12.0383 23.8845 12 23.9747 12 24.0769C12 24.2062 12.0601 24.3161 12.148 24.3904L12.1443 24.3961C13.4749 25.8156 15.3378 26.8479 17.8781 27.0804V28.997C17.8781 29.2214 18.0485 29.4032 18.2589 29.4032H19.7708C19.9812 29.4032 20.1516 29.2211 20.1516 28.997L20.1519 27.08C23.7084 26.6925 25.4746 24.4736 25.4746 21.6082C25.4746 18.0727 22.6681 17.0397 20.1519 16.3689ZM17.8778 15.7748C16.8861 15.4398 16.2084 15.0522 16.2084 14.3036C16.2084 13.4263 16.8134 12.8069 17.8778 12.6519V15.7748ZM20.1519 23.8021V20.3437C21.2166 20.7048 21.9666 21.1185 21.9666 21.9697C21.9666 22.7958 21.3857 23.5438 20.1519 23.8021Z" fill="#FCC419"/>
</svg>
