<svg width="15" height="17" viewBox="0 0 15 17" fill="none" xmlns="http://www.w3.org/2000/svg">
<path d="M7.5 0.235352C3.35826 0.235352 0 3.81801 0 8.2365C0 12.655 3.35826 16.2377 7.5 16.2377C11.6417 16.2377 15 12.655 15 8.2365C15 3.81801 11.6417 0.235352 7.5 0.235352ZM7.87333 12.1156L7.87667 12.6818C7.87667 12.7604 7.81641 12.8265 7.74275 12.8265H7.2673C7.19364 12.8265 7.13337 12.7622 7.13337 12.6836V12.1228C5.64676 12.0049 4.94699 11.1012 4.87165 10.1189C4.86496 10.035 4.9269 9.96354 5.00558 9.96354H5.77902C5.84431 9.96354 5.90123 10.0135 5.91127 10.0814C5.99665 10.6476 6.41016 11.0708 7.15179 11.1762V8.62763L6.73828 8.51511C5.86272 8.29187 5.02902 7.70964 5.02902 6.50233C5.02902 5.20035 5.95647 4.50025 7.14174 4.37702V3.78765C7.14174 3.70907 7.20201 3.64477 7.27567 3.64477H7.74609C7.81975 3.64477 7.88002 3.70907 7.88002 3.78765V4.37166C9.02679 4.49489 9.88728 5.20928 9.98772 6.32194C9.99609 6.40588 9.93415 6.47911 9.85379 6.47911H9.10212C9.03516 6.47911 8.97824 6.42553 8.96987 6.35588C8.9029 5.83437 8.51116 5.40931 7.87333 5.31644V7.715L8.29855 7.82037C9.38337 8.10613 10.1217 8.65978 10.1217 9.89924C10.1217 11.2441 9.18415 11.9942 7.87333 12.1156ZM6.07031 6.42017C6.07031 6.87381 6.33315 7.22564 6.899 7.44353C6.97768 7.47747 7.05636 7.50426 7.15011 7.53283V5.31823C6.53237 5.40217 6.07031 5.77186 6.07031 6.42017ZM8.02065 8.8348C7.97377 8.82409 7.9269 8.81159 7.87333 8.79551V11.1834C8.5865 11.1155 9.07868 10.6976 9.07868 9.99747C9.07868 9.44918 8.8125 9.09198 8.02065 8.8348Z" fill="#F7931A"/>
</svg>
