<svg width="23" height="25" viewBox="0 0 23 25" fill="none" xmlns="http://www.w3.org/2000/svg">
<path fill-rule="evenodd" clip-rule="evenodd" d="M11.5 24.5369C17.8513 24.5369 23 19.0441 23 12.2684C23 5.49276 17.8513 0 11.5 0C5.14872 0 0 5.49276 0 12.2684C0 19.0441 5.14872 24.5369 11.5 24.5369ZM12.9375 3.06711C10.5558 3.06711 8.625 5.1269 8.625 7.66777V10.7349H7.1875C6.3936 10.7349 5.75 11.4215 5.75 12.2684C5.75 13.1154 6.3936 13.802 7.1875 13.802H8.625V15.3355C8.625 16.1825 7.9814 16.8691 7.1875 16.8691C6.3936 16.8691 5.75 17.5557 5.75 18.4027C5.75 19.2496 6.3936 19.9362 7.1875 19.9362H15.8125C16.6064 19.9362 17.25 19.2496 17.25 18.4027C17.25 17.5557 16.6064 16.8691 15.8125 16.8691H11.2546C11.4135 16.3894 11.5 15.8732 11.5 15.3355V13.802H12.9375C13.7314 13.802 14.375 13.1154 14.375 12.2684C14.375 11.4215 13.7314 10.7349 12.9375 10.7349H11.5V7.66777C11.5 6.82082 12.1436 6.13422 12.9375 6.13422C13.7314 6.13422 14.375 6.82082 14.375 7.66777C14.375 8.51472 15.0186 9.20133 15.8125 9.20133C16.6064 9.20133 17.25 8.51472 17.25 7.66777C17.25 5.1269 15.3193 3.06711 12.9375 3.06711Z" fill="#8D5BB4"/>
</svg>
