<svg width="21" height="14" viewBox="0 0 21 14" fill="none" xmlns="http://www.w3.org/2000/svg">
<path d="M10.2163 1.8575C13.7362 1.8575 16.8754 3.83574 18.4078 6.96562C16.8754 10.0955 13.7455 12.0737 10.2163 12.0737C6.687 12.0737 3.55711 10.0955 2.02468 6.96562C3.55711 3.83574 6.69629 1.8575 10.2163 1.8575ZM10.2163 0C5.5725 0 1.60674 2.88841 0 6.96562C1.60674 11.0428 5.5725 13.9312 10.2163 13.9312C14.86 13.9312 18.8258 11.0428 20.4325 6.96562C18.8258 2.88841 14.86 0 10.2163 0ZM10.2163 4.64375C11.4979 4.64375 12.5381 5.68395 12.5381 6.96562C12.5381 8.2473 11.4979 9.2875 10.2163 9.2875C8.93458 9.2875 7.89438 8.2473 7.89438 6.96562C7.89438 5.68395 8.93458 4.64375 10.2163 4.64375ZM10.2163 2.78625C7.91295 2.78625 6.03688 4.66232 6.03688 6.96562C6.03688 9.26892 7.91295 11.145 10.2163 11.145C12.5196 11.145 14.3956 9.26892 14.3956 6.96562C14.3956 4.66232 12.5196 2.78625 10.2163 2.78625Z" fill="#B6B6B6" fill-opacity="0.77"/>
</svg>
