<svg width="22" height="19" viewBox="0 0 22 19" fill="none" xmlns="http://www.w3.org/2000/svg">
<path d="M19 0.883286V5.59175C19 5.82591 18.9128 6.05048 18.7576 6.21606C18.6024 6.38164 18.3919 6.47466 18.1724 6.47466C17.9529 6.47466 17.7424 6.38164 17.5872 6.21606C17.432 6.05048 17.3448 5.82591 17.3448 5.59175V3.01445L12.1367 8.57049C12.0599 8.65248 11.9687 8.71751 11.8683 8.76189C11.7678 8.80626 11.6602 8.8291 11.5515 8.8291C11.4429 8.8291 11.3352 8.80626 11.2348 8.76189C11.1344 8.71751 11.0432 8.65248 10.9663 8.57049L8.79285 6.25178L4.41241 10.9249C4.25717 11.0903 4.04672 11.1832 3.82732 11.1831C3.60793 11.183 3.39754 11.09 3.2424 10.9245C3.08727 10.759 3.00008 10.5345 3 10.3005C2.99992 10.0664 3.08696 9.8419 3.24199 9.67628L8.20763 4.37883C8.28448 4.29684 8.37572 4.2318 8.47613 4.18743C8.57654 4.14306 8.68416 4.12022 8.79285 4.12022C8.90153 4.12022 9.00915 4.14306 9.10956 4.18743C9.20997 4.2318 9.30121 4.29684 9.37806 4.37883L11.5515 6.69754L16.1744 1.76582H13.7585C13.539 1.76582 13.3285 1.6728 13.1733 1.50722C13.0181 1.34164 12.9309 1.11707 12.9309 0.882908C12.9309 0.648746 13.0181 0.424175 13.1733 0.258598C13.3285 0.0930204 13.539 1.49764e-07 13.7585 1.49764e-07H18.1721C18.1995 -1.75084e-05 18.2269 0.00152674 18.2542 0.004419C18.2657 0.0056227 18.2769 0.00793981 18.2883 0.00964309C18.3037 0.0119607 18.319 0.0138999 18.3343 0.0171336C18.3476 0.0199361 18.3604 0.0238519 18.3734 0.0273188C18.3866 0.0308217 18.3998 0.0339471 18.4129 0.0381498C18.4257 0.0422818 18.438 0.0474204 18.4505 0.0521793C18.4635 0.0571192 18.4765 0.0616992 18.4893 0.0673579C18.501 0.0724949 18.5121 0.0785489 18.5234 0.0842429C18.5366 0.0908176 18.5499 0.0970686 18.5628 0.104433C18.5735 0.110576 18.5836 0.117564 18.5941 0.124192C18.6068 0.132275 18.6197 0.139999 18.6322 0.148873C18.6435 0.156992 18.6542 0.166046 18.6651 0.17474C18.6758 0.183218 18.6867 0.191157 18.6971 0.200264C18.7168 0.217455 18.7355 0.235669 18.7535 0.254674C18.7548 0.256057 18.7563 0.257189 18.7576 0.25859C18.7589 0.259991 18.76 0.261533 18.7613 0.262937C18.7791 0.282214 18.7962 0.302239 18.8123 0.323184C18.8206 0.333926 18.8278 0.345242 18.8356 0.356307C18.8439 0.368307 18.8527 0.380036 18.8605 0.392503C18.8687 0.405526 18.8758 0.419052 18.8832 0.432434C18.8896 0.443786 18.8963 0.454888 18.9021 0.466563C18.9089 0.480107 18.9147 0.494028 18.9208 0.50786C18.9262 0.520164 18.932 0.532272 18.9369 0.544881C18.9421 0.558353 18.9464 0.57213 18.9509 0.585836C18.9555 0.599309 18.9603 0.612601 18.9642 0.626376C18.9682 0.640225 18.9711 0.654308 18.9743 0.668301C18.9776 0.682241 18.9813 0.695982 18.9839 0.710172C18.9869 0.726411 18.9888 0.742811 18.9909 0.759174C18.9926 0.771353 18.9947 0.783298 18.9959 0.79562C18.9986 0.824778 19 0.854 19 0.883286Z" fill="#FCC419"/>
<path d="M0 17.0684H21.0997V18.4752H0V17.0684Z" fill="#FCC419"/>
</svg>
