<svg width="32" height="41" viewBox="0 0 32 41" fill="none" xmlns="http://www.w3.org/2000/svg">
<path d="M17.5634 17.4588C17.5634 21.7422 14.2219 25.1676 10.1567 25.1676C6.09158 25.1676 2.75 21.7422 2.75 17.4588C2.75 13.1754 6.09158 9.75 10.1567 9.75C14.2219 9.75 17.5634 13.1754 17.5634 17.4588Z" stroke="white" stroke-width="1.5"/>
<circle cx="19.2202" cy="25.0112" r="7.40672" fill="#390B3C" stroke="white" stroke-width="1.5"/>
<path d="M26.7846 12.5721C26.7179 12.6492 26.6223 12.7012 26.5182 12.7082C26.3099 12.7223 26.1367 12.5517 26.1334 12.3291L26.0183 4.71019L18.9941 5.18472C18.7858 5.19879 18.6126 5.02818 18.6093 4.80558C18.6059 4.58298 18.7736 4.38934 18.9818 4.37527L26.3863 3.87337C26.5945 3.8593 26.7677 4.02991 26.771 4.25251L26.8923 12.2761C26.894 12.3908 26.8529 12.4932 26.7846 12.5721Z" fill="white" stroke="white"/>
<path d="M4.03863 29.2612C4.10043 29.195 4.18823 29.1532 4.28332 29.1529C4.47352 29.1524 4.62954 29.318 4.63004 29.5209L4.64717 36.4657L11.0619 36.4477C11.2521 36.4472 11.4081 36.6128 11.4086 36.8157C11.4091 37.0186 11.2539 37.185 11.0637 37.1855L4.30174 37.2061C4.11155 37.2066 3.95552 37.041 3.95502 36.8381L3.93699 29.5244C3.93673 29.4198 3.97541 29.329 4.03863 29.2612Z" fill="white" stroke="white"/>
<circle cx="19.5105" cy="25.5105" r="1.5105" fill="#FCC419"/>
</svg>
