<svg width="24" height="26" viewBox="0 0 24 26" fill="none" xmlns="http://www.w3.org/2000/svg">
<path d="M11.9304 25.4551C18.5193 25.4551 23.8607 19.7568 23.8607 12.7275C23.8607 5.69832 18.5193 0 11.9304 0C5.3414 0 0 5.69832 0 12.7275C0 19.7568 5.3414 25.4551 11.9304 25.4551Z" fill="#00EC34"/>
<path fill-rule="evenodd" clip-rule="evenodd" d="M13.3632 13.8276V13.826C13.2812 13.8324 12.8584 13.8594 11.9151 13.8594C11.162 13.8594 10.6319 13.8356 10.4455 13.826V13.8284C7.54638 13.6924 5.38252 13.1539 5.38252 12.5095C5.38252 11.866 7.54638 11.3275 10.4455 11.189V13.2923C10.6349 13.3066 11.1777 13.3408 11.9278 13.3408C12.8278 13.3408 13.2789 13.301 13.3632 13.2931V11.1906C16.2563 11.3282 18.4149 11.8668 18.4149 12.5095C18.4149 13.1539 16.2563 13.6908 13.3632 13.8276ZM13.3632 10.9719V9.08979H17.4001V6.21973H6.40853V9.08979H10.4455V10.9711C7.16461 11.1318 4.69727 11.8254 4.69727 12.6559C4.69727 13.4864 7.16461 14.1792 10.4455 14.3407V20.372H13.3632V14.3391C16.6388 14.1784 19.1002 13.4856 19.1002 12.6559C19.1002 11.8262 16.6388 11.1334 13.3632 10.9719Z" fill="white"/>
</svg>
