<svg width="20" height="22" viewBox="0 0 20 22" fill="none" xmlns="http://www.w3.org/2000/svg">
<path d="M10 21.3364C15.5228 21.3364 20 16.5601 20 10.6682C20 4.77632 15.5228 0 10 0C4.47715 0 0 4.77632 0 10.6682C0 16.5601 4.47715 21.3364 10 21.3364Z" fill="#00EC34"/>
<path fill-rule="evenodd" clip-rule="evenodd" d="M11.2013 11.5898V11.5885C11.1325 11.5938 10.7781 11.6165 9.9875 11.6165C9.35625 11.6165 8.91187 11.5965 8.75562 11.5885V11.5905C6.32562 11.4765 4.51187 11.0251 4.51187 10.485C4.51187 9.94557 6.32562 9.49417 8.75562 9.37816V11.1411C8.91437 11.1531 9.36937 11.1818 9.99812 11.1818C10.7525 11.1818 11.1306 11.1484 11.2013 11.1417V9.37949C13.6263 9.49484 15.4356 9.94624 15.4356 10.485C15.4356 11.0251 13.6263 11.4751 11.2013 11.5898ZM11.2013 9.19613V7.61857H14.585V5.21289H5.37188V7.61857H8.75562V9.19546C6.00562 9.33015 3.9375 9.91157 3.9375 10.6077C3.9375 11.3038 6.00562 11.8845 8.75562 12.0199V17.0753H11.2013V12.0185C13.9469 11.8839 16.01 11.3031 16.01 10.6077C16.01 9.91223 13.9469 9.33148 11.2013 9.19613Z" fill="white"/>
</svg>
