<svg width="13" height="13" viewBox="0 0 13 13" fill="red" xmlns="http://www.w3.org/2000/svg">
<path d="M6.7678 0.99353C10.1825 0.99353 12.9492 3.64863 12.9492 6.92564C12.9492 10.2027 10.1825 12.8578 6.7678 12.8578C3.35309 12.8578 0.586426 10.2027 0.586426 6.92564C0.586426 3.64863 3.35309 0.99353 6.7678 0.99353ZM9.60675 6.51901L6.22943 3.27787C5.99513 3.05303 5.61627 3.05303 5.38447 3.27787L4.96075 3.68451C4.72645 3.90936 4.72645 4.27294 4.96075 4.49539L7.49312 6.92564L4.96075 9.3559C4.72645 9.58074 4.72645 9.94432 4.96075 10.1668L5.38447 10.5734C5.61877 10.7983 5.99762 10.7983 6.22943 10.5734L9.60675 7.33228C9.84105 7.10743 9.84105 6.74385 9.60675 6.51901Z" fill="black" fill-opacity="0.69"/>
</svg>
