<svg width="20" height="20" viewBox="0 0 20 20" fill="none" xmlns="http://www.w3.org/2000/svg">
<path d="M14.6331 17.5003C14.4999 17.5009 14.3684 17.4694 14.2498 17.4087L9.9998 15.1837L5.7498 17.4087C5.6118 17.4812 5.4562 17.5136 5.3007 17.5022C5.1452 17.4907 4.99603 17.4358 4.87016 17.3438C4.74429 17.2518 4.64675 17.1263 4.58865 16.9816C4.53054 16.8369 4.5142 16.6789 4.54147 16.5253L5.3748 11.8337L1.94147 8.50033C1.83435 8.39344 1.75836 8.25939 1.72166 8.11258C1.68496 7.96576 1.68892 7.81173 1.73314 7.667C1.78144 7.51889 1.87028 7.38729 1.98959 7.28713C2.10891 7.18697 2.2539 7.12225 2.40814 7.10033L7.15814 6.40867L9.2498 2.13367C9.31804 1.99277 9.42458 1.87395 9.55723 1.79081C9.68987 1.70767 9.84326 1.66357 9.9998 1.66357C10.1563 1.66357 10.3097 1.70767 10.4424 1.79081C10.575 1.87395 10.6816 1.99277 10.7498 2.13367L12.8665 6.40033L17.6165 7.092C17.7707 7.11392 17.9157 7.17864 18.035 7.2788C18.1543 7.37896 18.2432 7.51056 18.2915 7.65867C18.3357 7.80339 18.3396 7.95743 18.3029 8.10424C18.2662 8.25106 18.1903 8.3851 18.0831 8.492L14.6498 11.8253L15.4831 16.517C15.5129 16.6732 15.4973 16.8347 15.4382 16.9824C15.3792 17.13 15.2791 17.2577 15.1498 17.3503C14.9989 17.4561 14.8172 17.5088 14.6331 17.5003Z" fill="white" fill-opacity="0.5"/>
</svg>
