<svg width="17" height="17" viewBox="0 0 17 17" fill="none" xmlns="http://www.w3.org/2000/svg">
<path d="M8.5 8.5C11.1828 8.5 13.3571 6.59746 13.3571 4.25C13.3571 1.90254 11.1828 0 8.5 0C5.81719 0 3.64286 1.90254 3.64286 4.25C3.64286 6.59746 5.81719 8.5 8.5 8.5ZM11.9 9.5625H11.2663C10.4239 9.90117 9.48661 10.0938 8.5 10.0938C7.51339 10.0938 6.57991 9.90117 5.73371 9.5625H5.1C2.28437 9.5625 0 11.5613 0 14.025V15.4062C0 16.2861 0.815848 17 1.82143 17H15.1786C16.1842 17 17 16.2861 17 15.4062V14.025C17 11.5613 14.7156 9.5625 11.9 9.5625Z" fill="black"/>
</svg>
