<svg width="24" height="10" viewBox="0 0 24 10" fill="none" xmlns="http://www.w3.org/2000/svg">
<path d="M5.844 4.68C6.332 4.784 6.724 5.028 7.02 5.412C7.316 5.788 7.464 6.22 7.464 6.708C7.464 7.412 7.216 7.972 6.72 8.388C6.232 8.796 5.548 9 4.668 9H0.744V0.576H4.536C5.392 0.576 6.06 0.772 6.54 1.164C7.028 1.556 7.272 2.088 7.272 2.76C7.272 3.256 7.14 3.668 6.876 3.996C6.62 4.324 6.276 4.552 5.844 4.68ZM2.796 3.984H4.14C4.476 3.984 4.732 3.912 4.908 3.768C5.092 3.616 5.184 3.396 5.184 3.108C5.184 2.82 5.092 2.6 4.908 2.448C4.732 2.296 4.476 2.22 4.14 2.22H2.796V3.984ZM4.308 7.344C4.652 7.344 4.916 7.268 5.1 7.116C5.292 6.956 5.388 6.728 5.388 6.432C5.388 6.136 5.288 5.904 5.088 5.736C4.896 5.568 4.628 5.484 4.284 5.484H2.796V7.344H4.308ZM14.8342 0.576V2.22H12.6022V9H10.5502V2.22H8.31816V0.576H14.8342ZM15.636 4.776C15.636 3.944 15.816 3.204 16.176 2.556C16.536 1.9 17.036 1.392 17.676 1.032C18.324 0.664 19.056 0.48 19.872 0.48C20.872 0.48 21.728 0.743999 22.44 1.272C23.152 1.8 23.628 2.52 23.868 3.432H21.612C21.444 3.08 21.204 2.812 20.892 2.628C20.588 2.444 20.24 2.352 19.848 2.352C19.216 2.352 18.704 2.572 18.312 3.012C17.92 3.452 17.724 4.04 17.724 4.776C17.724 5.512 17.92 6.1 18.312 6.54C18.704 6.98 19.216 7.2 19.848 7.2C20.24 7.2 20.588 7.108 20.892 6.924C21.204 6.74 21.444 6.472 21.612 6.12H23.868C23.628 7.032 23.152 7.752 22.44 8.28C21.728 8.8 20.872 9.06 19.872 9.06C19.056 9.06 18.324 8.88 17.676 8.52C17.036 8.152 16.536 7.644 16.176 6.996C15.816 6.348 15.636 5.608 15.636 4.776Z" fill="#CC6200"/>
</svg>
