<svg width="23" height="23" viewBox="0 0 23 23" fill="none" xmlns="http://www.w3.org/2000/svg">
<path d="M18.575 6.22214H16.5503C16.6525 5.93548 16.7175 5.62109 16.7175 5.29744C16.7175 3.76244 15.473 2.52335 13.9312 2.52335C12.956 2.52335 12.1109 3.02268 11.6094 3.77169L11.145 4.39124L10.6806 3.76244C10.1791 3.02268 9.33392 2.52335 8.35873 2.52335C6.81701 2.52335 5.57248 3.76244 5.57248 5.29744C5.57248 5.62109 5.6375 5.93548 5.73966 6.22214H3.71498C2.68407 6.22214 1.86677 7.04512 1.86677 8.07154L1.85748 18.2432C1.85748 19.2696 2.68407 20.0926 3.71498 20.0926H18.575C19.6059 20.0926 20.4325 19.2696 20.4325 18.2432V8.07154C20.4325 7.04512 19.6059 6.22214 18.575 6.22214ZM13.9312 4.37274C14.442 4.37274 14.86 4.78886 14.86 5.29744C14.86 5.80603 14.442 6.22214 13.9312 6.22214C13.4204 6.22214 13.0025 5.80603 13.0025 5.29744C13.0025 4.78886 13.4204 4.37274 13.9312 4.37274ZM8.35873 4.37274C8.86955 4.37274 9.28748 4.78886 9.28748 5.29744C9.28748 5.80603 8.86955 6.22214 8.35873 6.22214C7.84792 6.22214 7.42998 5.80603 7.42998 5.29744C7.42998 4.78886 7.84792 4.37274 8.35873 4.37274ZM18.575 18.2432H3.71498V16.3938H18.575V18.2432ZM18.575 13.6197H3.71498V8.99624C3.71498 8.48765 4.13292 8.07154 4.64373 8.07154H8.43303L7.05848 9.93943C6.752 10.3555 6.84487 10.9381 7.26281 11.234C7.67146 11.5299 8.25657 11.4374 8.55377 11.0306L11.145 7.51672L13.7362 11.0306C14.0334 11.4374 14.6185 11.5299 15.0272 11.234C15.4451 10.9381 15.538 10.3555 15.2315 9.93943L13.8569 8.07154H17.6462C18.157 8.07154 18.575 8.48765 18.575 8.99624V13.6197Z" fill="white"/>
</svg>
