<svg width="80" height="38" viewBox="0 0 80 38" fill="none" xmlns="http://www.w3.org/2000/svg">
<path d="M1 19.3333L7.5 12.8333L11.4 26.2667L17.0333 9.8L20.9333 8.06667L23.5333 12.8333L27.4333 15.8667L33.9333 2L37.4 4.16667L39.5667 2L44.7667 12.8333L46.0667 5.46667L49.5333 4.16667L51.7 8.06667L54.3 5.46667L57.7667 15.8667H61.2333L62.9667 20.2L66.4333 19.3333V23.6667L70.7667 20.2L74.6667 35.8L79 31.4667" stroke="#149833" stroke-width="1.5"/>
<path d="M1.80021 19.4342C1.80021 22.7218 1.80021 26.0093 1.80021 29.2969C1.80021 30.7602 1.55082 31.3329 3.22805 31.3329C6.3261 31.3329 9.42415 31.3329 12.5222 31.3329C29.9118 31.3329 47.3015 31.3329 64.6911 31.3329C66.5332 31.3329 68.3753 31.3329 70.2174 31.3329C70.5347 31.3329 70.852 31.3329 71.1693 31.3329C72.2099 31.3329 71.7378 27.8204 71.7378 27.4063C71.7378 27.2703 72.1954 23.139 71.1825 23.7178C70.9194 23.8681 70.9129 23.9369 70.5743 23.9557C69.1545 24.0346 69.1465 24.2971 69.1465 22.6469C69.1465 21.745 69.1465 19.4696 69.1465 21.576C69.1465 23.0165 68.2372 22.6532 67.4807 23.5988C67.2996 23.8251 66.7214 24.1937 67.3617 24.1937C67.9235 24.1937 68.1866 24.8792 68.6706 24.9076C69.6555 24.9656 69.3845 26.6375 69.3845 27.4063C69.3845 29.1027 68.6254 28.4772 67.4807 28.4772C66.5409 28.4772 66.1 27.6135 66.0529 26.8114C66.0171 26.2029 64.809 25.5569 64.6382 24.7886C64.4381 23.8879 64.625 22.7382 64.625 21.814C64.625 20.3721 64.3744 20.8621 63.0782 20.8621C62.5044 20.8621 62.0827 20.9375 61.6504 20.5051C61.4263 20.2811 61.2255 20.0678 60.9497 19.9102C60.693 19.7635 60.9231 19.4473 60.7646 19.2492C60.4293 18.8301 59.9343 17.6691 59.4954 17.5437C58.9849 17.3978 57.3049 17.6263 57.1157 16.8694C56.9844 16.3446 55.1495 16.1951 54.8814 15.2565C54.468 13.8097 53.4403 11.9362 53.4403 10.3913C53.4403 9.91534 53.4403 9.43939 53.4403 8.96345C53.4403 8.2413 52.9038 8.72548 52.3694 8.72548C51.9255 8.72548 51.2022 8.92023 51.3118 8.26275C51.3913 7.78534 49.7833 7.83953 49.1568 7.77358C48.2456 7.67767 48.9083 6.34575 47.61 6.34575C46.7876 6.34575 46.7823 8.29199 46.592 8.91057C46.2992 9.8621 46.7403 10.9732 46.5259 11.9381C46.3816 12.5874 45.198 14.607 46.116 12.771C46.9474 11.1082 48.1031 9.67737 49.9897 9.67737C51.0149 9.67737 51.1653 11.2631 51.0077 12.11C50.7622 13.4297 49.6632 13.9012 48.5751 14.2121C47.9569 14.3887 48.1079 12.7348 48.6808 12.4802C49.8376 11.966 50.0587 12.6375 50.9416 13.128C51.9058 13.6636 51.5259 14.4236 52.0653 15.0979C52.713 15.9074 53.1057 15.9444 54.0484 16.1158C55.2621 16.3365 55.6471 16.7102 56.6661 17.2925C57.4478 17.7392 57.236 17.558 57.618 18.3766C57.903 18.9873 58.007 19.6117 58.4906 20.0953C59.3968 21.0015 61.2919 20.6992 62.3775 21.576C62.8072 21.9231 62.3226 23.0955 62.6022 23.5988C63.0451 24.3958 63.9111 24.9244 63.9111 25.8595C63.9111 26.6845 64.4256 28.0013 63.5541 28.0013C62.7152 28.0013 61.8819 28.1635 61.2405 28.6623C61.1606 28.7244 61.0554 26.1165 61.0554 25.7405C61.0554 24.9189 60.4569 24.0957 59.9184 23.6649C59.368 23.2245 58.2321 22.7659 57.4858 22.7659C57.1104 22.7659 56.7593 22.5654 56.4811 22.3428C56.2518 22.1594 56.106 22.3831 56.058 21.9991C55.9787 21.3644 55.2091 21.6523 54.7624 21.4438C53.5938 20.8985 53.5999 20.202 52.7793 19.3814C51.61 18.2121 53.5841 19.0504 54.0484 19.1831C54.4244 19.2905 54.5979 19.578 54.9739 19.6854C55.4613 19.8247 53.8646 19.6722 54.8681 19.6722C56.7605 19.6722 54.3863 18.5703 53.7973 18.1122C52.9822 17.4782 52.4575 16.8028 51.5365 16.3935C51.0165 16.1624 50.7532 16.5547 50.3467 16.5786C49.6077 16.622 48.8518 16.5786 48.1124 16.5786C47.5273 16.5786 47.5607 16.354 47.1208 16.1026C46.5719 15.789 46.0198 15.8647 45.4021 15.8647C44.833 15.8647 44.2518 15.8981 43.6834 15.8647C43.3021 15.8422 43.1757 15.2606 42.8373 15.164C41.5983 14.81 39.9717 11.2176 42.1234 11.8323C42.3088 11.8853 41.5225 10.9019 41.2905 10.5103C40.91 9.8683 40.5053 8.85784 40.0609 8.30241C39.4751 7.57006 38.924 6.68095 38.924 5.75082C38.924 5.51762 39.0575 4.53111 38.7918 4.45519C37.8667 4.19089 36.7911 3.53811 35.8303 3.49008C34.6843 3.43278 34.3494 5.27557 34.1645 6.10778C33.7172 8.12077 33.1042 9.78837 32.2078 11.5811C31.964 12.0688 31.5772 12.731 31.5468 13.247C31.5238 13.6388 31.3088 14.1193 31.3088 13.3659C31.3088 11.6928 33.2706 10.4937 33.4506 8.96345C33.6747 7.05822 35.1937 5.91479 36.7822 5.20877C37.5594 4.86336 37.4961 7.34802 37.4961 7.89257C37.4961 9.31901 37.521 9.43939 36.0683 9.43939C34.8591 9.43939 34.5771 10.1039 34.6404 8.96345C34.6703 8.42576 35.315 8.15672 35.6452 7.82647C36.1551 7.31658 36.1771 7.61882 36.3195 8.11732C36.6539 9.28764 37.3726 8.86467 38.1572 9.49228C39.0328 10.1928 38.6302 11.1679 37.4961 11.33C36.5746 11.4616 35.2165 10.9394 34.8255 11.8191C34.6254 12.2695 34.2194 12.7529 34.1645 13.247C34.0766 14.0381 34.683 13.7229 35.4734 13.7229C36.1808 13.7229 37.6015 13.2182 38.1572 12.7181C39.2288 11.7536 39.3999 12.8498 39.3999 13.8419C39.3999 16.0668 36.0992 14.4368 34.8784 14.4368C34.0939 14.4368 32.2873 14.788 31.6658 14.3046C30.515 13.4096 30.5949 12.145 30.5949 10.8672C30.5949 9.0794 29.9607 12.0564 29.762 12.4141C29.5974 12.7104 28.6063 15.6894 28.744 15.8118C28.9945 16.0344 31.3399 15.4988 31.679 15.4019C32.7427 15.098 34.2661 15.3887 35.3544 15.3887C36.6851 15.3887 37.6704 14.9005 38.924 14.6219C39.7867 14.4302 40.655 14.1988 41.5417 14.1988C42.2038 14.1988 42.0176 13.6593 42.0176 13.128C42.0176 11.3537 42.6639 12.2684 42.7315 13.4849C42.7629 14.0495 43.0263 14.1235 43.3926 14.4897C43.868 14.9651 43.3504 15.7904 43.0753 16.3406C42.4023 17.6865 41.6004 17.5598 40.3518 18.0593C39.0987 18.5605 37.7663 18.4824 36.4252 18.4824C35.4751 18.4824 37.3799 17.8107 37.6019 17.7684C38.3204 17.6316 38.8881 17.2925 39.6379 17.2925C42.1982 17.2925 44.8615 17.0545 47.491 17.0545C48.0518 17.0545 51.0319 17.0151 51.0606 17.5305C51.1453 19.0555 51.2208 19.6722 49.6327 19.6722C48.4755 19.6722 48.1105 19.0003 47.015 19.4871C46.8537 19.5588 45.603 19.7515 45.878 20.0953C46.2003 20.4982 46.9299 20.3861 47.372 20.3861C48.5466 20.3861 49.9649 21.08 50.8226 21.7611C51.2263 22.0816 51.5965 22.4557 51.9596 22.8187C52.4187 23.2779 54.2726 23.1382 54.9607 23.3476C56.0677 23.6845 56.2876 24.8595 57.5387 24.9076C58.643 24.9501 58.1132 26.0109 58.2526 26.9172C58.3506 27.5536 58.752 28.4612 58.0808 28.8342C57.6156 29.0926 56.9291 29.3016 56.415 29.4159C55.8765 29.5355 56.058 28.6823 56.058 28.3582C56.058 26.9034 55.3822 27.4806 54.8152 26.5734C54.325 25.789 51.2989 25.3258 51.5497 26.4544C51.6593 26.9477 52.2061 27.2914 52.4884 27.6443C52.8192 28.0578 53.3808 27.779 53.6254 28.0541C53.9405 28.4087 51.636 28.9077 51.4307 28.9664C50.6806 29.1807 54.5377 28.7152 53.7576 28.7152C52.6999 28.7152 51.6423 28.7152 50.5846 28.7152C50.1073 28.7152 50.1287 28.2513 49.8707 27.6707C49.4868 26.8068 49.0974 26.1549 49.1568 25.1456C49.1945 24.504 51.6585 24.4479 51.0606 23.85C50.043 22.8324 49.1757 22.0519 47.7289 22.0519C46.284 22.0519 45.3278 21.7278 44.5824 20.3861C44.1394 19.5887 41.554 18.3948 42.401 18.7335C43.5745 19.2029 44.2555 20.7368 45.0584 21.6289C45.987 22.6607 46.0351 23.5986 46.5391 24.8944C46.6967 25.2998 47.2807 26.7859 47.61 27.0494C47.7057 27.126 48.4416 27.7411 48.4429 27.7633C48.5458 29.5129 47.8489 29.1911 46.2747 29.1911C45.4378 29.1911 42.8293 29.4371 44.2122 28.0541C44.9472 27.3192 44.6207 26.2105 44.4106 25.2646C44.1535 24.1078 43.0177 23.0013 42.2027 22.1048C41.8168 21.6804 41.5884 20.1482 40.9467 20.1482C40.49 20.1482 39.9659 20.2754 39.5321 20.3994C39.085 20.5271 39.3999 23.5312 39.3999 24.1937C39.3999 25.4377 40.7789 24.6696 41.4227 24.6696C42.509 24.6696 42.3687 29.1911 40.4708 29.1911C39.7882 29.1911 38.21 29.3372 38.21 28.3582C38.21 27.1089 39.6379 27.9548 39.6379 26.8114C39.6379 25.4246 39.9054 24.6696 38.329 24.6696C37.8758 24.6696 37.4272 24.8033 37.0334 25.0002C36.7575 25.1381 37.0202 24.3832 37.0202 24.0747C37.0202 23.7178 37.0202 23.3608 37.0202 23.0038C37.0202 22.0283 37.3371 20.8996 36.4385 20.3861C35.5741 19.8922 34.4258 19.7247 33.9794 18.7203C33.5595 17.7756 36.3156 17.5305 34.0587 17.5305C33.115 17.5305 32.1381 17.7684 31.3088 17.7684C30.9703 17.7684 29.9793 17.5946 29.6959 17.8213C29.2786 18.1551 29.5202 18.6358 29.22 19.0112C28.2803 20.1858 30.3336 19.9102 30.9519 19.9102C31.5912 19.9102 31.4322 19.4421 31.6922 19.8176C32.3826 20.8148 33.0182 20.6677 33.7943 21.4438C34.8497 22.4992 34.8229 22.9618 34.8784 24.3788C34.9386 25.9128 35.7389 27.1735 36.0551 28.5962C36.2349 29.4056 37.2217 29.4985 36.2534 28.5301C35.472 27.7487 35.5923 26.9486 35.5923 25.8463C35.5923 25.1777 35.5223 24.4839 35.3411 23.85C35.3097 23.7397 34.6022 24.4699 34.4025 24.6696C33.4738 25.5983 32.9615 26.6261 32.3929 27.7633C32.2425 28.0642 31.9399 28.7228 32.036 29.0589C32.1578 29.4853 32.8848 28.9532 33.0936 28.9532C33.9268 28.9532 32.6831 29.4291 32.3665 29.4291C31.1884 29.4291 30.4386 29.2445 29.3257 29.006C28.4154 28.811 26.4431 28.5246 28.321 27.988C28.7066 27.8779 29.3974 27.4052 29.7488 27.1816C29.9741 27.0382 30.2302 26.9442 30.4627 26.8114C30.7193 26.6647 30.4893 26.3485 30.6478 26.1504C31.2627 25.3817 30.8811 24.2741 31.0841 23.3608C31.2135 22.7784 31.2468 21.9953 31.5468 21.4702C31.7407 21.1309 32.3958 22.0519 31.9699 22.0519C30.6345 22.0519 28.8011 22.912 27.9772 21.4702C27.6102 20.828 26.425 21.2613 25.8883 20.5712C25.6588 20.276 27.1638 19.871 26.8402 19.6193C25.5902 18.6471 24.7734 17.2122 23.9581 15.7853C23.8488 15.5941 23.1834 15.5242 22.9798 15.2697C22.7184 14.9429 22.1389 14.3641 21.7899 14.146C21.4792 13.9518 20.7246 12.3145 20.6133 11.9249C20.5516 11.7091 19.6468 10.0225 19.4102 10.2591C19.3394 10.3299 19.4215 10.7603 19.4102 10.8672C19.3704 11.2449 18.9469 11.6868 18.6963 11.9513C18.4323 12.23 18.1019 13.1311 17.9691 12.4008C17.9188 12.1242 17.5064 10.3926 17.5064 10.9862C17.5064 11.84 17.5077 12.6463 17.3213 13.4849C17.2129 13.973 16.7673 16.1026 17.1495 16.1026C17.9109 16.1026 18.8829 15.8647 19.7672 15.8647C21.3262 15.8647 16.82 14.9128 18.6434 14.9128C20.1258 14.9128 22.2395 14.6421 22.755 16.4464C22.9203 17.025 23.4665 19.6549 24.0374 19.6722C25.589 19.7192 26.5494 19.8199 26.5494 21.695C26.5494 22.4695 26.139 24.8712 27.0253 24.3788C28.0732 23.7967 29.121 23.2246 28.6779 24.7754C28.4818 25.4619 26.3518 25.4449 25.8355 25.6744C25.5348 25.808 24.9378 26.0803 24.6456 26.0975C23.902 26.1412 23.6649 25.7994 23.9846 26.7585C24.169 27.3119 24.5173 27.1865 24.8307 27.5782C25.0431 27.8437 24.8836 28.7367 24.8836 29.0721C24.8836 31.2554 20.3682 29.7345 19.0532 29.4423C18.0201 29.2127 17.7444 28.6557 16.5545 28.7152C15.9619 28.7448 13.6671 28.693 13.3419 28.9532C12.7246 29.4469 13.8602 28.7316 14.0558 28.5962C14.5793 28.2338 15.7281 27.55 16.3694 27.5253C17.1283 27.4961 19.4649 27.6544 19.8861 26.9172C20.1712 26.4183 21.5437 25.7424 22.1469 25.6083C23.0542 25.4067 23.7123 25.0212 24.3547 24.3788C25.872 22.8615 22.9547 20.7796 21.5519 20.8621C21.0197 20.8934 21.314 24.486 21.314 25.2646C21.314 25.6904 21.2103 26.2699 21.3272 26.6792C21.4079 26.9617 22.3894 27.3052 21.7899 26.3883C21.0931 25.3226 20.4154 24.0047 20.0712 22.7659C19.7855 21.7372 19.1267 21.2749 20.2431 20.9811C21.4209 20.6711 21.1383 19.3026 21.076 18.2444C21.0295 17.4541 19.6973 17.2925 19.0532 17.2925C18.6054 17.2925 18.0627 17.3764 17.6254 17.2793C16.1028 16.9409 16.4458 16.3383 16.0257 18.1122C15.7224 19.3927 15.5556 20.7456 15.1796 21.9991C14.8985 22.9359 14.5763 23.4236 15.3911 22.3825C15.9001 21.7321 16.7635 21.1999 17.1495 20.5051C17.3469 20.1497 17.5147 19.7697 17.7973 19.4871C18.1795 19.1049 17.6949 16.8027 18.4583 18.1386C18.7947 18.7274 18.9446 20.3853 18.5112 20.915C18.1124 21.4024 18.3948 22.1313 18.0352 22.5808C17.9279 22.7149 17.5044 23.4338 17.6518 23.4666C19.2859 23.8297 15.9344 25.7983 15.3118 26.2826C15.004 26.5219 14.8887 23.3662 14.8887 23.1625C14.8887 22.1521 14.7178 22.4717 13.9897 23.0038C13.4412 23.4047 12.6328 24.2898 12.3239 24.9076C12.012 25.5313 12.3895 26.4615 12.1388 27.1419C11.8463 27.9359 11.5615 27.9493 10.8035 28.2525C10.7297 28.282 8.40603 29.2517 8.27836 29.1382C8.01719 28.9061 8.14422 28.2637 7.93462 28.0541C7.49771 27.6172 5.82054 28.3744 5.40947 28.4772C4.46756 28.7127 4.04144 29.4291 2.99008 29.4291C1.51616 29.4291 5.64756 28.14 7.03561 27.6443C9.45193 26.7813 9.62374 25.0246 8.35768 22.6733C7.66255 21.3824 6.7072 19.3059 6.79764 17.7684C6.84649 16.938 7.48384 14.5908 7.02239 15.2829C6.81496 15.5941 6.3153 15.7735 5.96474 15.8514C5.41461 15.9737 5.13076 16.3801 4.65589 16.6315C3.67652 17.1499 2.99532 18.7562 2.76533 19.7912C2.52689 20.8642 2.67366 23.7424 3.75688 21.576C3.9687 21.1523 4.17994 18.6501 4.17994 19.8044C4.17994 21.3378 3.69582 22.7132 3.46602 24.2069C3.36713 24.8497 2.79034 25.5239 2.7521 26.0975C2.744 26.219 3.16703 25.1757 3.28093 24.8547C3.83343 23.2977 4.22534 21.7533 4.603 20.1482C4.66146 19.8997 4.64332 18.7698 4.65589 18.9583C4.68113 19.337 4.81138 20.0745 4.90708 20.5051C5.15931 21.6402 5.13183 22.7622 5.13183 23.9557C5.13183 24.0729 5.54324 23.7355 5.84575 23.7178C6.46827 23.6811 6.3217 23.6241 6.3217 24.5374C6.3217 25.7142 4.85663 25.0771 4.36503 25.5687C4.04905 25.8846 3.81761 26.2944 3.51891 26.6263C3.25766 26.9166 2.47227 27.5033 3.22805 27.2873C3.71698 27.1477 4.16834 27.0615 4.56334 26.7982C5.54558 26.1434 5.34543 27.0816 6.08372 27.4724C6.84798 27.877 8.68906 27.5253 9.53433 27.5253C10.3701 27.5253 12.2878 27.8787 12.932 27.2345C13.2509 26.9156 13.8823 25.3987 13.9368 24.9076C13.985 24.4742 15.0621 24.693 15.3911 24.6564C16.5664 24.5258 17.6518 23.9979 18.7492 23.9557C19.3195 23.9338 19.8233 23.7376 20.0712 23.2418C20.5225 22.3392 19.7434 24.4528 19.5292 24.7622C19.193 25.2478 18.6171 25.4784 18.3393 25.9785C17.7742 26.9957 18.2021 26.6243 19.0665 26.5734C20.1634 26.5089 22.2659 25.5605 22.2659 27.1684C22.2659 27.48 22.443 28.5384 22.1337 28.7152C21.6806 28.974 21.013 29.3127 21.8428 28.7152C22.9214 27.9386 23.9063 27.4126 25.1612 27.0362C27.0843 26.4592 27.4305 24.6586 28.8101 23.5855C29.2437 23.2483 32.2607 21.6657 32.2607 22.7659C32.2607 23.1566 32.5172 24.7833 32.2078 25.0927C31.4703 25.8303 29.1643 25.8595 28.202 25.8595C26.4271 25.8595 25.8901 25.4636 24.7646 24.0879C24.2701 23.4835 23.9317 22.8485 23.9317 22.0519C23.9317 21.0033 24.1755 20.3001 24.3944 19.3153C24.4991 18.8441 24.4076 18.2499 24.4076 17.7684C24.4076 17.0782 24.8227 16.8272 24.8836 16.3406C24.9429 15.8661 27.2052 16.9429 27.6203 17.1735C28.2962 17.549 31.1521 17.8514 31.2956 18.641C31.5236 19.895 31.2505 21.1139 31.7848 22.3428C32.2962 23.5191 33.7586 24.1833 34.1116 25.3836C34.1968 25.673 34.0169 26.0571 34.2174 26.2826C34.64 26.7581 35.8689 27.0336 36.4385 27.0494C37.6596 27.0833 36.9203 28.5749 37.6415 28.464C38.9999 28.255 40.6105 27.4108 41.9118 26.9172C43.024 26.4953 43.8214 25.6718 44.8733 25.1985C45.4423 24.9424 46.7285 25.0676 46.7771 24.1937C46.8026 23.7331 47.1039 23.4845 47.3852 23.1228C47.7472 22.6574 48.2737 22.7659 48.7998 22.7659C49.7366 22.7659 49.9765 22.6489 50.7168 22.0255C50.737 22.0085 51.7757 23.0497 52.0125 23.1889C52.8904 23.7054 51.5767 25.6037 51.2985 26.0843C49.9975 28.3316 48.1677 29.1911 45.5872 29.1911C44.6851 29.1911 43.9536 29.4395 43.4454 28.6623C42.5311 27.2638 42.0735 26.939 43.8024 25.9785C44.6201 25.5242 46.2443 26.0265 46.7771 26.6924C46.905 26.8524 48.091 27.4603 48.3239 27.5121C48.9597 27.6534 50.5117 27.0546 51.087 26.9172C52.2731 26.6339 53.3423 26.5357 54.3922 25.8066C55.3517 25.1403 54.8618 27.0068 54.5112 27.2873C54.17 27.5603 53.1183 29.6341 53.6783 29.6671C54.6138 29.7221 55.7834 29.1552 56.6926 28.9532C58.0918 28.6422 59.5178 28.5084 60.9232 28.2392C61.4403 28.1402 61.8759 27.7633 62.3907 27.7633C63.068 27.7633 66.1893 27.7591 64.5721 29.3762C64.3964 29.552 63.4726 30.0747 63.2501 29.8522C63.1665 29.7686 64.7425 29.2311 64.982 29.1779C65.9514 28.9625 67.2988 29.2408 68.0095 28.5301C68.6653 27.8743 68.8538 25.8595 67.7187 25.8595C66.1493 25.8595 64.6081 26.0534 63.065 26.0975C62.5704 26.1116 61.7381 26.1907 61.2934 26.3883C60.5362 26.7249 59.7883 26.2115 58.9137 26.4544C58.118 26.6754 56.4944 27.3269 55.939 27.8823C55.1024 28.7189 54.1792 28.6211 52.9115 28.9003C49.2151 29.7142 45.3871 29.4291 41.6342 29.4291C41.0077 29.4291 38.2126 28.9505 37.8531 29.3101C37.1174 30.0458 36.4045 30.143 35.4072 30.143C34.1601 30.143 32.9129 30.143 31.6658 30.143C30.6192 30.143 26.3114 30.6838 26.3114 29.6671" stroke="url(#paint0_linear_787_711)" stroke-opacity="0.2" stroke-width="3" stroke-linecap="round"/>
<defs>
<linearGradient id="paint0_linear_787_711" x1="36.8159" y1="3.48877" x2="36.8159" y2="31.3329" gradientUnits="userSpaceOnUse">
<stop offset="0.625" stop-color="#149833"/>
<stop offset="0.963542" stop-color="#149833" stop-opacity="0"/>
</linearGradient>
</defs>
</svg>
