<svg width="78" height="40" viewBox="0 0 78 40" fill="none" xmlns="http://www.w3.org/2000/svg">
<path d="M1 37.961L7.30244 31.2878V7.93171H20.6488L27.322 2L32.8829 23.8732V2L37.3317 18.3122H43.2634L50.678 14.6049L56.6098 18.3122L60.3171 7.93171L64.0244 18.3122H77" stroke="#149833" stroke-width="1.5"/>
<path d="M3.66895 36.077C26.9156 36.077 50.1623 36.077 73.4089 36.077C74.0608 36.077 74.7127 36.077 75.3646 36.077C75.4256 36.077 75.7993 36.1174 75.8292 36.077C76.1981 35.5778 75.9324 34.165 75.9324 33.5707C75.9324 33.3738 75.9324 33.1769 75.9324 32.98C75.9324 31.5347 75.9324 30.0895 75.9324 28.6442C75.9324 26.3387 75.9324 24.0331 75.9324 21.7276C75.9324 21.349 75.9324 20.9705 75.9324 20.592C75.9324 20.3511 75.9324 20.1102 75.9324 19.8694C75.9324 19.8439 75.9324 19.6918 75.9324 19.726C75.9324 19.7929 75.9324 19.9267 75.9324 19.9267C75.9324 19.9267 75.2047 19.6927 74.8484 19.7719C74.7693 19.7894 74.1074 19.9842 74.0914 20.0242C74.0689 20.0805 74.412 20.0758 73.971 20.0758C73.4769 20.0758 73.1619 20.1098 72.7322 20.3855C72.3697 20.618 72.0613 20.9331 71.6998 21.154C71.6168 21.2048 71.0879 21.5099 71.2066 21.5268C71.8914 21.6247 72.749 21.9893 73.3516 22.324C73.5825 22.4523 73.9612 22.5474 74.2291 22.3986C74.5004 22.2478 74.8991 22.243 74.6133 22.0143C74.0722 21.5814 74.0541 23.8192 74.0168 24.0962C73.9191 24.8224 73.8677 25.5143 73.8677 26.2469C73.8677 26.4628 73.9783 27.0956 73.8448 27.2792C73.5419 27.6957 74.1222 28.8758 74.2291 29.3152C74.4062 30.0436 74.5904 30.784 74.5904 31.5347C74.5904 32.1151 74.6404 32.7791 74.4814 33.3356C74.4389 33.4844 73.6987 33.3892 73.6039 33.3929C72.9019 33.421 72.076 33.6587 71.4131 33.9091C70.1612 34.3821 69.1445 33.718 67.9031 33.6052C67.2133 33.5424 65.9661 33.6145 65.0126 33.7027C61.5538 34.0225 57.9868 34.0123 54.5229 34.0123C52.1323 34.0123 49.7228 34.1188 47.3367 33.9894C45.9298 33.9131 44.7018 33.3929 43.3049 33.3929C41.0553 33.3929 38.7977 33.2897 36.5431 33.2897C35.52 33.2897 34.5282 33.4811 33.5149 33.5937C33.2842 33.6193 33.0113 33.6237 32.7808 33.5994C32.5585 33.576 32.532 33.4306 32.2474 33.479C31.3975 33.6233 30.5816 33.9411 29.7297 34.0926C28.1755 34.3692 26.5316 34.5809 24.9523 34.3622C23.2655 34.1286 21.5344 34.1939 19.8651 33.9321C19.3632 33.8533 18.7134 33.8497 18.2249 33.9607C17.9278 34.0283 17.6003 34.0297 17.2958 34.0123C16.8692 33.988 17.0594 33.4202 16.5961 33.3929C15.7643 33.344 14.9335 33.3549 14.1013 33.2955C13.7148 33.2678 13.1702 33.2982 12.8108 33.1349C11.9771 32.7559 10.8741 32.98 9.96619 32.98C9.57046 32.98 9.17473 32.98 8.779 32.98C8.63156 32.98 7.91703 33.2437 7.90152 32.98C7.86116 32.2939 8.62219 31.4313 8.97974 30.8695C9.33236 30.3153 8.75087 30.6952 8.72739 30.2959C8.72305 30.2223 8.68504 29.86 8.80768 29.906C8.8379 29.9173 8.83062 29.4029 8.83062 29.3611C8.83062 28.9346 8.83864 28.5079 8.80768 28.0822C8.67282 26.2279 8.37941 24.4486 8.10799 22.6165C8.05604 22.2659 7.88419 21.9122 7.92446 21.5555C8.00729 20.8219 8.12992 20.1093 8.33739 19.3991C8.63416 18.3832 9.03709 17.1736 9.03709 16.1013C9.03709 15.3916 8.81679 14.8851 8.60121 14.2145C8.23532 13.0761 8.4852 11.7935 8.41769 10.5783C8.40896 10.4213 8.15269 10.3924 8.11372 10.217C8.05392 9.94792 8.18333 9.78037 8.36607 9.59763C8.55984 9.40386 8.93767 8.90961 9.24355 8.92661C9.63988 8.94863 9.88007 9.50206 10.2702 9.43704C10.7196 9.36214 11.1789 9.11851 11.6409 9.02984C12.6677 8.83277 13.6979 8.8148 14.7379 8.74308C16.5114 8.62077 18.5145 8.86109 20.2551 8.49073C20.5955 8.41832 20.9222 8.27195 21.2645 8.20971C21.4655 8.17317 21.384 8.03532 21.58 7.99177C21.8505 7.93165 22.1366 7.65409 22.4345 7.56163C22.7026 7.47843 22.9852 7.29604 23.2604 7.27487C23.5058 7.25599 23.9423 7.08672 24.1551 6.96517C24.3474 6.85527 24.2389 6.52047 24.4304 6.39739C24.7692 6.17957 25.1025 5.94319 25.4455 5.7321C25.7998 5.51404 25.9211 5.37123 26.1509 5.08403C26.2214 4.99589 26.1 4.73726 26.2312 4.69977C26.4053 4.65003 26.588 4.71275 26.7359 4.79727C27.0064 4.95186 27.103 6.13613 27.103 6.42606C27.103 8.1275 27.103 9.82895 27.103 11.5304C27.103 12.4863 27.103 13.4421 27.103 14.398C27.103 14.8727 27.103 15.2025 27.103 14.5012C27.103 13.2127 27.103 11.9242 27.103 10.6357C27.103 9.80164 26.929 9.23211 26.5868 8.46206C26.3439 7.9156 26.2208 7.93179 25.6577 8.30721C25.2381 8.58691 24.9381 9.02797 24.5221 9.28219C24.3537 9.3851 23.8602 9.64924 24.0576 9.64924C24.4927 9.64924 23.1973 9.824 22.8016 10.0048C21.3316 10.6764 19.9495 11.5255 18.4772 12.1842C17.7217 12.5222 16.9369 12.7945 16.1717 13.1076C15.9558 13.1959 15.2559 13.2624 15.4892 13.2624C16.6818 13.2624 13.1016 13.2092 11.9162 13.0789C11.333 13.0148 10.7598 12.9527 10.1727 12.9527C9.97757 12.9527 9.69854 13.0016 9.50737 12.947C9.24766 12.8728 9.19511 11.9941 9.2665 11.7942C9.52325 11.0753 10.8117 11.2914 11.3885 11.301C12.2691 11.3157 13.15 11.4042 14.0382 11.4042C14.3401 11.4042 14.7003 11.1751 14.9558 11.0486C15.8747 10.5937 16.8297 10.2633 17.7546 9.83277C18.4868 9.49189 20.8073 8.84705 20.106 9.24778C18.724 10.0375 17.5938 10.7926 15.9537 11.0142C14.9666 11.1476 13.9608 11.0945 12.9657 11.0945C12.8721 11.0945 12.4063 11.0931 12.7535 11.1748C13.3598 11.3175 14.1228 11.1977 14.7379 11.1977C17.0542 11.1977 19.3968 11.3226 21.6775 10.8307C22.1246 10.7342 22.894 10.3685 23.3636 10.4981C23.6927 10.5888 24.0091 10.864 24.3386 10.9913C25.2758 11.3534 26.2616 11.3689 27.2004 11.6623C27.5127 11.7599 27.4434 11.1171 27.4929 10.888C27.5414 10.6638 27.6191 10.2113 27.6191 10.2113C27.6191 10.2113 27.7983 11.0185 27.9288 11.4099C28.0701 11.8337 28.7048 12.3472 28.7547 12.7462C28.785 12.9888 28.8498 12.5715 28.8006 12.4308C28.6277 11.9368 28.5277 11.4509 28.445 10.9339C28.3837 10.5512 28.1559 10.1033 28.1353 9.75248C28.1235 9.55212 28.0435 9.33283 28.0435 9.14455C28.0435 9.13834 28.3418 9.6247 28.3418 9.80983C28.3418 10.2189 28.3418 10.628 28.3418 11.0372C28.3418 12.3812 28.221 13.8033 28.3991 15.1264C28.7257 17.5524 29.1782 19.9027 29.6264 22.3068C29.827 23.3825 29.8742 24.8699 30.4294 25.8569C30.4952 25.974 30.5097 25.2072 30.5097 25.1228C30.5097 24.0378 30.3491 23.0453 30.1483 21.9799C29.802 20.1414 29.4586 18.2812 28.9554 16.52C28.4332 14.6921 30.524 19.9853 31.2151 21.7562C31.7261 23.0656 31.9483 24.5728 32.8267 25.7021C33.0423 25.9793 33.1906 26.3268 33.6067 26.3731C33.7805 26.3924 33.9283 26.5669 34.0196 26.3157C34.1697 25.9028 34.1228 25.464 34.1228 25.031C34.1228 23.1401 33.5569 21.3985 33.274 19.5597C33.084 18.3247 33.5768 16.8972 33.75 15.6655C33.9458 14.2736 33.9164 12.7891 33.9164 11.3813C33.9164 10.6493 33.8893 9.95541 33.7558 9.23057C33.6534 8.67503 33.6067 8.14822 33.6067 7.58457C33.6067 7.51978 33.5881 6.72765 33.5264 6.78165C33.3471 6.93853 33.5034 7.9733 33.5034 8.1753C33.5034 9.73176 33.3774 11.338 33.7214 12.8667C34.1865 14.9341 34.8977 16.9882 35.7746 18.9173C35.9016 19.1967 36.1825 19.1822 36.4399 19.2557C36.7895 19.3556 36.9836 20.1836 37.0076 20.4716C37.0716 21.2396 36.9363 21.2454 36.1875 21.2114C35.5556 21.1827 35.1529 20.7234 34.5874 20.5977C34.2927 20.5322 34.2742 21.8655 34.4555 22.0602C35.1932 22.8525 36.2347 23.3018 37.1166 23.8897C37.4087 24.0844 37.9467 24.1044 38.2636 24.0102C39.9422 23.5111 41.4943 22.6525 43.1844 22.152C43.9521 21.9246 44.7209 21.8041 45.5129 21.7046C45.7828 21.6707 47.25 21.7092 47.4113 21.4351C47.5378 21.2199 47.4861 20.7201 47.5202 20.4658C47.5713 20.0856 47.597 19.7209 47.7554 19.3647C48.064 18.6703 48.6108 17.6674 49.172 17.1623C49.2963 17.0504 49.4142 16.9683 49.5104 16.824C49.5899 16.7047 49.9979 16.5659 49.8545 16.5659C49.2057 16.5659 48.3217 17.2516 47.7841 17.5523C46.6855 18.1668 45.5331 18.6751 44.4462 19.313C43.7273 19.735 42.9278 20.6952 42.0718 20.6952C41.2604 20.6952 40.5926 19.9556 39.9039 19.6113C39.7136 19.5161 39.582 19.3529 39.3877 19.2729C39.2807 19.2288 39.0875 19.5806 38.9748 19.64C38.6641 19.8035 38.1168 19.8104 37.8909 20.0816C37.652 20.3681 37.8061 21.5834 37.9195 21.9111C38.1316 22.5238 39.9105 22.2901 40.4143 22.1864C42.5113 21.7546 44.3647 20.7655 46.2814 19.8694C46.6018 19.7196 46.9424 19.3318 47.2851 19.2557C47.3809 19.2344 47.7121 19.1638 47.6866 19.2098C47.1587 20.1599 45.0514 19.9726 44.148 19.9726C43.6452 19.9726 43.1424 19.9726 42.6396 19.9726C42.3349 19.9726 42.3011 19.4699 42.0718 19.4564C41.6603 19.4322 41.4408 19.7139 41.0911 19.8694C40.8453 19.9786 40.5742 20.1639 40.3168 20.1791C40.2443 20.1833 40.0252 20.3577 40.1907 20.3798C40.6196 20.437 41.1024 20.2875 41.5098 20.1791C42.2111 19.9924 42.9158 19.8579 43.626 19.7088C46.4501 19.1157 49.3477 18.9273 52.1658 18.3209C52.3908 18.2724 53.6813 18.0456 52.8884 18.0112C52.3936 17.9896 51.7993 17.7123 51.4431 17.3688C51.1559 17.0919 51.0835 16.7619 50.6918 16.6749C50.2245 16.571 50.5623 16.3596 50.8467 16.2332C51.9023 15.7641 53.1116 16.6258 54.0526 16.996C54.9544 17.3508 55.8488 17.5102 56.7539 17.7817C57.0839 17.8808 57.3369 18.3296 57.6027 18.5503C58.3618 19.1804 59.2548 19.5964 60.0803 20.1217C60.3329 20.2825 60.2478 19.5021 60.2638 19.3761C60.3737 18.5109 60.3441 17.6443 60.3441 16.7724C60.3441 15.3767 59.8087 14.2202 59.828 12.8495C59.8361 12.2716 59.9604 11.6521 60.0918 11.0888C60.1619 10.7883 60.4474 9.92571 60.4474 10.2342C60.4474 10.3757 60.4059 10.4674 60.3671 10.607C60.0968 11.5799 59.9381 12.5796 59.7018 13.5606C59.3751 14.9168 59.0497 16.2574 58.6351 17.5868C58.4877 18.059 58.3273 18.4843 58.1304 18.9345C58.0283 19.1677 57.9287 19.1536 58.1418 18.9689C58.7649 18.4289 59.333 17.8237 59.6444 17.0591C59.867 16.5129 60.3145 16.153 60.9119 16.153C61.3214 16.153 61.17 15.0423 61.17 14.788C61.17 14.3005 61.17 12.838 61.17 13.3255C61.17 13.4677 61.2277 13.5755 61.2962 13.6983C61.6401 14.3149 61.9307 14.9611 62.1851 15.6196C62.5467 16.5553 62.7829 17.53 63.0397 18.4929C63.1351 18.8506 63.4633 19.1489 63.7508 19.3475C64.2823 19.7145 64.8243 19.9693 65.4141 20.2364C65.5531 20.2994 66.6607 20.887 66.974 20.7985C67.3119 20.703 67.8213 19.9364 68.1096 19.6973C68.3873 19.467 68.7053 19.2107 69.0387 19.0664C69.4573 18.8852 71.6751 17.9191 71.4762 18.9804C71.3681 19.5569 71.1462 20.5566 70.6904 20.982C70.2643 21.3797 69.2352 21.2166 68.7175 21.2114C68.0127 21.2043 67.2575 21.1299 66.6299 20.7813C66.5654 20.7454 65.5692 20.1675 65.7754 20.0758C67.1576 19.4615 68.8862 19.4564 70.3807 19.4564C70.5927 19.4564 72.1013 19.1312 72.1013 19.2614C72.1013 19.8823 71.6813 20.7064 71.5392 21.3032C71.2743 22.4161 71.2127 23.5443 70.9772 24.6525C70.8299 25.3458 70.414 26.0123 71.0804 26.6312C71.1352 26.682 71.6019 27.1998 71.6769 27.0498C71.9013 26.6009 71.9174 25.8538 71.9866 25.3522C72.0173 25.1298 72.0251 24.9892 72.107 24.7844C72.1098 24.7775 72.1267 25.0031 72.1357 25.054C72.217 25.5114 72.2343 25.9673 72.2733 26.4304C72.3478 27.3137 72.4531 28.1859 72.606 29.0571C72.6595 29.3619 72.747 29.6748 72.7322 29.9862C72.6823 31.033 72.257 32.5159 71.5966 33.3413C71.4913 33.473 71.2674 33.4088 71.3901 33.2094C71.5515 32.9472 71.7874 32.7334 71.9292 32.4638C71.9642 32.3973 72.164 32.1817 72.0439 32.1599C71.1845 32.0036 70.1026 32.1158 69.2394 32.2058C68.6067 32.2717 67.9676 32.3343 67.3411 32.4409C66.8783 32.5197 66.9511 32.5127 66.9511 32.0509C66.9511 29.5878 67.2542 26.9065 69.0387 25.0081C69.7436 24.2582 70.461 23.8824 70.461 22.8115C70.461 21.6199 70.4288 25.2142 70.1513 26.3731C70.05 26.7962 69.745 28.4839 68.9527 28.2083C68.0739 27.9027 67.4958 25.9537 67.4673 25.1457C67.4365 24.2736 67.5813 23.3509 67.6737 22.4846C67.7071 22.1714 67.7515 21.6391 68.0522 21.4408C68.8649 20.9052 69.6667 22.8444 69.9219 23.4825C70.0614 23.8312 69.9449 24.5052 69.9449 24.8704C69.9449 25.1916 69.9449 25.5128 69.9449 25.834C69.9449 25.9166 70.033 26.32 70.0481 26.0634C70.0655 25.7672 70.4334 24.9479 70.6216 24.7328C70.9299 24.3804 71.6481 24.3213 72.1128 24.3084C72.2264 24.3052 72.792 24.3828 72.8297 24.251C72.8817 24.0689 72.8542 23.9283 72.6805 23.8897C71.6236 23.6549 71.1626 24.9496 70.8854 25.834C70.6316 26.6438 70.5508 27.5077 70.3062 28.323C70.2003 28.676 70.0961 29.0329 69.9678 29.3783C69.9635 29.3898 69.7604 29.8386 69.7441 29.8142C69.647 29.6684 70.7513 28.785 70.851 28.8736C71.0769 29.0744 70.3489 30.7089 69.9907 30.7089C69.6642 30.7089 67.3243 30.5609 67.7311 30.0379C67.9395 29.7698 68.6928 29.573 68.7061 29.2407C68.75 28.1417 68.6428 27.2042 68.2931 26.1551C67.8236 24.7466 67.3741 23.3226 66.9511 21.8996C66.8313 21.4968 66.7299 21.0602 66.5152 20.6952C66.3739 20.455 65.4759 20.592 65.2535 20.592C64.7772 20.592 64.3478 20.403 63.877 20.3855C63.4288 20.3689 63.1814 19.6862 62.925 19.3016C62.5814 18.7863 62.1642 18.2693 62.0188 17.6556C61.9095 17.1939 61.7891 16.731 61.6862 16.2677C61.6414 16.0661 61.4797 15.8962 61.4797 15.6884C61.4797 14.8849 61.1124 14.107 60.9693 13.3198C60.753 12.1303 60.8297 14.0311 60.8603 14.3406C61.0376 16.1355 60.8739 18.0447 61.3306 19.8063C61.5489 20.6483 61.9794 21.4649 62.2253 22.3011C62.2494 22.3831 62.3974 22.7094 62.4604 22.7599C62.5823 22.8574 62.4879 22.5324 62.5694 22.4043C63.1001 21.5704 64.1208 21.8937 64.8864 21.934C65.7013 21.9769 66.4939 22.9781 66.7962 23.6431C67.0016 24.0949 66.6996 24.9355 66.4349 25.3178C66.2979 25.5158 66.0871 25.5472 65.8671 25.5472C65.5541 25.5472 65.5679 25.3105 65.5058 25.031C65.3745 24.4402 65.1239 23.5128 64.657 23.0925C64.596 23.0377 64.2935 23.0392 64.2728 23.1327C64.1841 23.5315 64.5263 23.7014 64.8004 23.9069C65.1977 24.2049 65.6819 24.4953 66.1482 24.6755C66.1931 24.6928 66.8319 24.8246 66.6184 24.8246C65.3126 24.8246 64.177 24.47 62.9192 24.2052C62.26 24.0664 60.5976 23.2319 62.1679 24.2281C63.381 24.9977 64.7441 26.0634 66.2055 26.0634C66.4815 26.0634 67.695 25.8811 67.5418 26.31C67.1656 27.3633 66.3234 28.3554 65.7123 29.2865C65.5829 29.4837 65.3561 29.8082 65.3051 30.0379C65.2664 30.212 65.5403 30.3907 65.5976 30.5483C65.6911 30.8056 65.8175 31.2804 65.5861 31.5118C65.3437 31.7542 64.5647 32.2459 64.2211 32.2459C63.9736 32.2459 64.3923 31.0494 64.4276 30.967C64.8163 30.06 65.3803 29.2029 65.9015 28.3689C66.3988 27.5734 66.5936 26.8059 66.7676 25.8569C66.8347 25.4908 66.9685 25.1332 67.0486 24.773C67.1067 24.5113 66.1525 25.3311 66.0908 25.3866C65.3017 26.0968 64.62 26.9323 63.877 27.6922C63.7839 27.7874 63.1735 28.5855 63.1773 28.4492C63.1857 28.1478 63.3583 27.8167 63.4641 27.5431C63.8051 26.6609 64.2057 25.8036 64.548 24.9221C64.8314 24.1925 65.0383 23.4397 65.3338 22.714C65.3595 22.6509 65.7371 21.999 65.6951 21.8939C65.5957 21.6454 64.8341 22.8481 64.8176 22.8746C64.2793 23.7359 63.7408 24.5955 63.2003 25.4554C62.8898 25.9493 62.1515 26.9401 62.6325 25.5873C62.8932 24.854 63.3133 24.2108 63.5444 23.4596C63.6541 23.103 64.0603 22.5744 64.0147 22.1864C63.9986 22.0496 62.512 22.1061 62.512 22.5018C62.512 22.6161 62.3463 22.7334 62.4318 22.8402C62.5149 22.9441 62.6193 23.0731 62.3859 22.9205C62.104 22.7362 61.9494 22.3888 61.7321 22.1405C61.4979 21.8728 61.1899 21.6914 60.9119 21.4752C60.614 21.2435 59.9415 21.5211 59.5986 21.5211C58.9081 21.5211 58.6799 21.2567 58.073 20.9533C57.6555 20.7446 57.3171 20.5106 56.8916 20.4888C55.9961 20.4428 55.2627 19.7661 54.4082 19.7661C54.0008 19.7661 53.7022 19.7068 53.3243 19.5367C53.1241 19.4467 52.893 19.3354 52.6819 19.2729C52.6526 19.2642 51.9977 19.223 52.0511 19.1697C52.2631 18.9577 53.8399 19.294 54.1501 19.4048C54.4832 19.5238 54.9073 19.7525 55.2628 19.7661C55.3498 19.7695 55.6729 19.8821 55.6929 19.812C55.771 19.5386 55.563 19.581 55.3832 19.5023C54.2139 18.9907 53.1097 18.1126 51.9019 17.7244C51.8783 17.7168 51.243 20.1831 51.1506 20.4314C50.8227 21.3128 50.4559 22.1518 49.5276 22.4731C49.2303 22.576 48.9685 22.6312 48.9942 22.2208C49.0748 20.9317 49.5642 19.6244 49.8487 18.3725C49.9284 18.0218 50.2499 17.0169 50.0437 17.3115C49.753 17.7268 49.857 18.812 49.7684 19.3188C49.5977 20.2957 49.4954 21.2684 49.4014 22.2552C49.3731 22.5525 49.0888 23.5999 49.4186 23.8266C49.7511 24.0552 50.6157 23.8996 50.9958 23.8955C52.2413 23.8818 53.4742 23.689 54.7237 23.689C55.3837 23.689 56.0547 23.7245 56.7138 23.6833C57.1732 23.6546 56.7009 23.4901 56.536 23.3908C56.0012 23.0687 55.4873 22.7343 54.9301 22.4502C54.1226 22.0385 53.3988 21.4179 52.4755 21.4179C52.2434 21.4179 52.0855 21.3553 52.0855 21.6301C52.0855 22.0679 52.0855 22.5056 52.0855 22.9434C52.0855 23.1266 51.879 24.0506 51.879 23.689C51.879 23.0179 52.1023 22.4281 52.4009 21.8308C52.8337 20.9652 53.4028 19.8067 54.282 19.3245C55.4778 18.6688 56.7145 19.3862 57.4938 20.2708C57.6836 20.4864 59.0671 21.6661 58.4056 21.9111C57.9689 22.0729 57.2967 21.934 56.8342 21.934C56.2853 21.934 55.772 21.9333 55.2398 21.8365C54.5411 21.7095 56.0185 21.7276 56.1919 21.7276C56.6674 21.7276 57.086 21.8565 57.5511 21.934C58.0279 22.0135 58.3138 22.3376 58.744 22.4961C59.0747 22.6179 59.5501 22.9259 59.828 23.1728C60.0584 23.3776 60.3536 23.5035 60.5793 23.7291C60.7209 23.8708 60.748 24.0318 60.9119 24.1593C61.3116 24.4701 61.3075 24.7957 61.56 25.2375C61.8563 25.756 61.9496 26.4415 62.3572 26.8491C62.5006 26.9925 62.5518 27.2746 62.7185 27.3825C62.8499 27.4675 63.1276 27.6884 63.2117 27.8183C63.4926 28.2523 63.8344 28.6848 63.9516 29.212C64.1811 30.245 63.4929 31.2579 62.8217 31.9477C62.5668 32.2097 62.3551 32.4948 62.0532 32.7105C61.9818 32.7615 61.9903 32.6074 61.95 32.5671C61.8624 32.4795 61.7297 32.4805 61.6346 32.4065C61.2639 32.1182 60.7311 31.7879 61.1127 31.3053C61.6888 30.5766 62.7998 29.6876 63.682 29.3668C63.8937 29.2899 63.4281 29.7125 63.3609 29.8027C62.7281 30.6512 61.8503 31.2908 60.9865 31.8903C60.9287 31.9305 59.4634 33.0015 59.4208 32.5327C59.2253 30.3826 60.5885 28.1875 62.2597 26.9122C62.5571 26.6852 62.6552 26.6747 62.4891 27.09C61.9669 28.3956 61.3145 29.6308 60.6538 30.8695C60.5924 30.9846 60.2378 31.6911 60.2409 31.638C60.2586 31.3364 60.4939 31.0068 60.608 30.7318C60.6864 30.5427 60.81 30.3415 60.8546 30.1411C60.9165 29.8622 60.9668 30.0504 60.8144 29.9633C60.4995 29.7833 60.8402 28.3086 60.9291 28.0477C61.2827 27.0111 61.6812 25.9509 62.1794 24.9737C62.2036 24.9263 63.0573 23.8415 62.5579 24.1593C61.9037 24.5756 61.2336 25.0285 60.6538 25.5472C60.5032 25.682 59.7629 26.3731 60.0861 26.3731C60.1175 26.3731 60.0487 25.686 60.0344 25.444C60.0232 25.2537 59.2228 25.5472 59.0537 25.5472C58.7951 25.5472 58.6408 25.5581 58.463 25.3407C58.1886 25.0054 58.1762 24.8891 58.1762 25.3637C58.1762 27.6168 58.6924 29.8413 58.6924 32.0911C58.6924 32.7467 59.0219 31.716 59.0595 31.5577C59.2411 30.7928 59.5262 30.0705 59.7247 29.3095C59.8132 28.9702 59.9323 28.6376 60.0287 28.3001C60.1153 27.997 59.8483 28.9105 59.6903 29.1833C59.464 29.5743 59.4634 29.6581 59.0595 29.8601C58.181 30.2993 57.4334 30.9914 56.6507 31.5921C56.2971 31.8634 56.2181 32.0617 56.1173 32.5155C56.0259 32.9268 56.3496 32.4323 56.4442 32.3377C57.4935 31.2884 58.6801 30.3875 59.6789 29.2865C59.9345 29.0048 60.3645 28.6028 60.5506 28.2772C60.7024 28.0116 60.2787 27.9585 60.0918 27.87C59.0475 27.3753 57.9062 28.1025 56.9833 28.5639C56.8506 28.6303 56.8914 28.6693 56.9891 28.7474C57.0895 28.8278 57.1268 28.2293 57.1382 28.0764C57.2286 26.856 57.6523 25.6311 57.9468 24.446C57.9786 24.3183 58.4923 22.8121 58.3598 22.6796C58.1819 22.5017 55.9251 25.8108 55.6986 26.1093C55.4305 26.4627 55.1476 26.8484 54.8498 27.176C54.6472 27.3989 54.9612 26.8118 55.0448 26.7401C55.4761 26.3704 55.9654 26.1466 56.5188 26.0175C57.352 25.8231 57.2674 26.8903 57.2357 27.4456C57.1818 28.3875 57.0691 29.6463 56.5016 30.4451C56.4095 30.5747 56.106 31.1614 55.928 31.1792C55.7514 31.1968 55.4584 31.109 55.2456 31.1275C54.6713 31.1775 54.2646 31.6496 53.8519 31.9936C53.2659 32.4819 54.2954 31.4618 54.3795 31.3627C55.5269 30.0122 56.2737 28.6573 57.0177 27.0613C57.0684 26.9525 57.8335 25.7471 57.7461 25.616C57.7317 25.5945 56.9426 26.5643 56.8801 26.6369C56.2473 27.3709 55.8316 28.2995 55.3086 29.1145C54.882 29.7793 54.3681 30.3814 53.9437 31.0415C53.7762 31.3021 53.9648 31.329 53.6856 31.5347C53.2159 31.8808 52.663 32.3568 52.074 32.4638C51.7815 32.517 51.3776 32.5974 51.1219 32.7678C50.6265 33.0981 52.1678 32.1773 52.6074 31.7756C53.9906 30.5116 55.2963 28.8754 56.1345 27.1989C56.3316 26.8047 55.7565 27.3553 55.6757 27.4226C54.4874 28.4129 53.5034 29.5941 52.3665 30.6401C52.008 30.9699 51.6334 31.2772 51.2825 31.615C51.0014 31.8857 51.0744 31.7822 51.2367 31.5118C52.6117 29.2201 53.6414 26.7384 55.0104 24.446C55.412 23.7736 55.9016 23.156 56.2377 22.4502C56.3994 22.1108 56.2751 22.5221 56.2377 22.6567C56.007 23.4874 55.4467 24.3359 55.0219 25.0769C54.0321 26.8033 53.0057 28.5485 51.9019 30.2042C51.3234 31.0719 50.9458 32.0395 50.3878 32.8997C49.8697 33.6985 50.2829 32.6176 50.3534 32.1656C50.5332 31.0137 50.7931 29.866 51.1621 28.7589C51.3681 28.1408 51.9164 27.6935 52.183 27.1072C52.2205 27.0246 52.4967 26.64 52.3952 26.7057C52.1895 26.8388 52.0437 27.1476 51.9019 27.3366C51.1448 28.3461 50.4446 29.3873 49.7914 30.468C48.5313 32.5529 47.4832 34.7522 46.356 36.9086C46.1723 37.26 45.9683 37.6184 45.8341 37.9926C45.8339 37.993 45.7178 38.3741 45.6907 38.2793C45.531 37.7204 46.0694 36.8295 46.2814 36.3523C46.9063 34.9464 47.4702 33.5132 48.0708 32.0968C48.4084 31.3007 48.8573 30.5699 49.3039 29.8314C49.5026 29.5027 49.7437 29.0302 49.5104 29.6135C49.4258 29.8249 49.5895 29.1591 49.6881 28.9539C49.9169 28.4781 50.3209 28.0718 50.514 27.5889C50.6776 27.1801 50.8647 26.7464 51.1047 26.3731C51.2102 26.209 51.3719 26.012 51.4431 25.834C51.5001 25.6914 51.4896 25.6888 51.6266 25.639C52.2593 25.4089 52.9328 24.5674 53.439 24.1478C53.4891 24.1062 54.8292 22.9255 54.1501 23.5858C52.8138 24.8849 51.2335 25.909 49.8946 27.2219C49.2979 27.807 48.9852 28.3019 48.3805 28.931C46.9441 30.4255 45.5051 31.9245 44.0619 33.4102C43.8093 33.6702 43.5579 34.042 44.0218 33.6338C44.9333 32.8317 45.6069 31.6331 46.3331 30.6859C47.3055 29.4176 48.2725 28.1357 49.3555 26.9581C49.9018 26.3641 49.874 26.4769 49.929 25.8168C50.0564 24.2877 50.5441 22.5852 51.1506 21.1827C51.2701 20.9065 51.5059 20.6952 51.1105 20.6952C50.2968 20.6952 49.6649 20.784 49.0343 21.372C48.4371 21.9289 48.0215 22.6059 47.5891 23.2933C47.2988 23.7546 46.5109 24.5186 46.5109 25.0827C46.5109 25.1808 46.3613 25.4415 46.4306 25.3407C46.7558 24.8677 47.8516 24.6409 48.3461 24.5608C48.6538 24.5108 49.0063 24.6038 49.2465 24.4116C49.3837 24.3019 48.9827 25.475 48.9254 25.6046C48.1873 27.272 46.8732 28.7157 45.8341 30.2042C45.0188 31.3721 43.6527 32.8466 42.8633 34.2819C41.9806 35.8867 44.3842 30.9469 45.2491 29.3324C45.4246 29.0048 45.5944 28.5304 45.9373 28.3345C45.9794 28.3105 45.8914 27.8623 45.8914 27.761C45.8914 26.7469 46.7092 25.6115 47.1761 24.7443C47.3952 24.3375 47.5896 23.9287 47.7955 23.5169C47.8752 23.3575 47.9827 23.402 47.9332 23.5628C47.5668 24.7535 46.0515 25.8075 45.2262 26.6197C44.1057 27.7223 42.7919 28.519 41.8768 29.8085C41.3979 30.4832 41.6178 30.057 41.8424 29.5504C42.4572 28.1635 43.0583 26.7813 43.735 25.421C44.2202 24.4459 44.6421 23.2919 45.3695 22.4674C45.6185 22.1853 46.031 21.6393 45.8341 22.3986C45.6466 23.1217 45.435 23.8493 45.1746 24.5493C44.937 25.1878 44.8493 25.3214 45.1803 24.641C45.5343 23.9133 45.8779 23.078 46.075 22.2896C46.258 21.5574 45.1074 23.4581 44.7329 24.1134C43.4995 26.272 42.4554 28.68 41.8137 31.0817C41.5019 32.2487 40.2763 35.6519 40.7871 34.5572C41.5099 33.0085 42.436 31.5414 43.2303 30.0321C43.5418 29.4404 43.5275 28.5533 43.7178 27.8872C43.8556 27.4049 43.002 28.5902 42.6339 28.931C42.1071 29.4185 41.5711 29.9235 40.9649 30.3132C40.8138 30.4103 40.4438 30.4584 40.3398 30.6056C40.0494 31.017 39.8596 31.5143 39.5426 31.9018C39.3429 32.1459 39.2563 32.4974 39.101 32.7735C38.8833 33.1605 39.3709 31.925 39.5598 31.5233C40.8362 28.8083 42.2835 26.1809 43.7178 23.5514C43.812 23.3787 43.2425 24.1794 43.15 24.2855C42.4995 25.0316 41.893 25.7975 41.2574 26.5566C40.3238 27.6716 39.4863 28.9203 38.5045 29.9862C38.47 30.0237 37.5597 30.8192 38.0514 30.5426C38.7236 30.1645 39.0577 29.1433 39.3533 28.518C40.3471 26.4163 41.3033 24.2842 42.175 22.129C42.2773 21.8762 42.6745 21.3175 42.3184 21.8423C41.5972 22.9051 40.8979 24.0087 40.3111 25.1515C39.6944 26.3525 39.1008 27.5608 38.5045 28.7704C38.3183 29.1482 38.3 28.9259 38.4586 28.7474C38.5034 28.6971 38.6975 28.3291 38.602 28.4033C38.2066 28.7109 37.8301 29.1515 37.5238 29.5389C36.9175 30.3057 36.3509 31.1369 35.9007 32.005C35.805 32.1897 35.4926 32.5638 35.7975 32.2344C35.982 32.0352 36.0575 31.8482 36.1588 31.5978C36.553 30.6241 37.0581 29.6797 37.5181 28.736C38.0849 27.573 38.6727 26.4374 39.2042 25.2604C39.2889 25.073 39.7524 24.6544 39.7376 24.6812C39.3822 25.3208 39.2232 25.9825 38.9576 26.6598C38.5138 27.7915 38.1364 28.9195 37.736 30.0665C37.5878 30.4911 37.4523 30.9133 37.3288 31.3455C37.2998 31.4471 37.1896 31.5077 37.2657 31.4315C37.3494 31.3479 37.7853 30.9416 37.8335 31.2308C37.8515 31.3385 37.7945 31.9194 37.9998 31.6208C38.1169 31.4505 38.7225 30.8783 38.7225 30.7089C38.7225 30.6782 38.4516 30.7645 38.4472 30.7662C38.2218 30.8539 38.0097 30.9041 37.7704 30.9383C37.5936 30.9635 36.7843 31.179 36.6578 30.944C36.5185 30.6854 36.5955 30.2183 36.6004 29.9404C36.6144 29.1604 36.7392 28.3946 36.9101 27.6348C36.9981 27.2439 37.0648 26.0859 37.346 25.7766C37.4105 25.7057 37.5808 25.5849 37.6729 25.5644C37.7211 25.5537 37.8427 25.6504 37.7934 25.6504C37.3771 25.6504 36.8809 24.9883 36.6119 24.7385C36.2422 24.3953 36.2499 24.6324 36.0327 24.9221C35.7687 25.274 35.7375 25.7188 35.614 26.1666C35.1748 27.7593 34.56 29.2369 34.0425 30.7892C33.8702 31.3061 34.2261 30.0238 34.2261 30.7662C34.2261 31.0345 34.3122 31.0054 34.5358 31.0186C34.7825 31.0331 33.8628 32.4832 33.7672 32.6359C33.7469 32.6684 33.1675 33.6391 33.0905 33.4274C32.8549 32.7795 33.0095 31.8166 33.0331 31.1792C33.0912 29.6119 33.096 27.9965 33.4117 26.4534C33.4638 26.1987 33.6494 24.174 34.2261 24.1019C34.3962 24.0807 34.4243 23.9143 34.4383 23.775C34.5601 22.5566 35.08 21.3359 35.4018 20.1561C35.4634 19.93 35.6225 19.0863 35.2584 19.0435C34.9394 19.006 35.2506 16.0497 35.3215 16.0497C35.6006 16.0497 35.4649 14.9438 35.4649 14.6503C35.4649 14.2237 35.1984 13.9399 35.1552 13.5721C35.1484 13.5147 34.9879 13.147 34.9544 13.3312C34.732 14.5547 34.7656 15.8507 34.6963 17.0878C34.5301 20.0557 34.2119 23.0045 33.9164 25.9601C33.9021 26.1025 33.7633 26.2296 33.687 26.3387C33.2079 27.023 32.7558 27.7222 32.2474 28.3861C31.984 28.7302 31.5621 29.5884 31.1291 29.774C30.2215 30.163 30.7956 25.9127 30.8997 25.4325C31.0063 24.9401 31.5725 24.1485 30.8767 23.8955C30.3572 23.7066 30.5097 22.9497 30.5097 22.737C30.5097 22.0088 30.4938 21.2944 30.4064 20.5691C30.3219 19.8674 30.0737 19.2208 29.9878 18.5331C29.9375 18.1312 29.8181 17.662 29.6608 17.2885C29.4335 16.7485 29.5755 16.0967 29.2766 15.6483C29.1432 15.4481 28.8954 14.9328 28.8579 14.7077C28.7553 14.0917 27.9104 14.2465 27.6765 13.7786C27.5047 13.4351 27.4848 13.1025 27.2635 12.7348C26.7939 11.9544 26.4155 10.9691 25.7609 10.3145C25.4614 10.015 24.915 9.95894 24.5221 9.95894C24.2241 9.95894 23.063 8.42056 22.641 8.80043C22.1893 9.20691 21.8684 9.93677 21.3792 10.2629C20.5609 10.8085 18.6608 11.3354 17.5252 11.4042C17.3211 11.4166 17.6444 11.5074 17.4908 11.5074C16.7885 11.5074 16.1566 11.3314 15.4662 11.1977C14.7018 11.0498 13.9463 10.888 13.1664 10.888C12.8157 10.888 12.9821 10.702 12.8338 10.4981C12.7283 10.353 12.7572 10.2686 12.5413 10.2686C12.3872 10.2686 11.554 10.1808 11.5204 10.3317C11.3877 10.9292 11.4803 11.6528 11.4115 12.2645C11.2863 13.3766 11.1613 14.4972 10.9182 15.5909C10.8173 16.0449 10.8953 15.4265 10.8953 15.2583C10.8953 14.614 10.8953 13.9698 10.8953 13.3255C10.8953 13.1687 10.8122 13.6278 10.7691 13.7786C10.5739 14.462 10.3963 15.0321 10.3791 15.763C10.3523 16.9016 9.87017 18.4237 9.55899 19.7202C9.19133 21.2522 9.0042 22.822 8.85356 24.3887C8.82658 24.6693 8.77368 24.9843 8.64709 25.2375C8.58215 25.3674 8.78578 24.7583 8.80768 24.7041C9.09746 23.9873 9.38026 23.2663 9.67943 22.5534C9.70901 22.4829 10.0538 21.8083 10.0637 21.848C10.2728 22.6843 10.0063 23.8633 9.92031 24.6755C9.77522 26.0453 9.51679 27.3985 9.30664 28.7589C9.21995 29.3201 9.21168 29.9297 9.06003 30.4795C9.01914 30.6277 9.41636 30.4103 9.54179 30.3476C10.0644 30.0863 10.3714 29.1845 10.6315 28.7016C10.7649 28.4538 11.016 27.728 10.9985 28.3919C10.9753 29.2731 10.6634 30.201 10.5053 31.0645C10.3671 31.819 10.0694 34.0912 10.0694 33.3241C10.0694 32.2251 10.6862 30.962 10.9354 29.9002C11.7539 26.4128 11.6179 15.5932 11.6179 19.1754C11.6179 19.7213 11.7143 18.0845 11.8359 17.5523C12.1957 15.9774 12.5585 14.4014 12.9428 12.8323C13.0627 12.3425 13.2308 11.8522 13.2697 11.3469C13.3034 10.9087 13.3729 11.897 13.3729 11.9663C13.3729 14.1644 13.1074 16.2178 12.5528 18.3438C12.3397 19.1605 11.5901 21.5794 11.8473 20.7755C11.9414 20.4814 12.1269 20.196 12.2603 19.921C12.7252 18.9621 13.0853 17.9824 13.3729 16.9559C13.766 15.5527 13.9041 13.8632 14.5601 12.5513C14.9707 11.73 14.2454 14.3622 14.021 15.2525C13.6689 16.6495 13.3225 18.0478 12.9714 19.445C12.7437 20.3511 12.3587 21.3128 12.2373 22.2437C12.0689 23.5348 12.9373 19.7335 13.2008 18.4585C13.3692 17.6442 13.4484 17.0674 13.7973 16.3307C14.2526 15.3696 14.6754 14.1179 15.5236 13.4287C15.8494 13.164 15.5594 13.9789 15.5179 14.1571C14.6398 17.92 13.7696 21.7324 12.6503 25.4325C12.2863 26.6355 12.4159 25.4901 12.5069 24.8934C12.8082 22.9178 13.2637 20.979 13.522 18.9861C13.6204 18.2271 13.7058 17.4645 13.8317 16.7093C13.86 16.5395 13.8891 16.0852 13.8891 16.5659C13.8891 19.5581 13.4561 22.4518 13.0632 25.4096C12.9737 26.0832 12.9441 26.8061 12.7535 27.4628C12.6333 27.8768 12.6503 27.1009 12.6503 27.067C12.6503 25.1163 12.9764 23.162 13.3213 21.2458C13.3429 21.1256 13.4665 20.781 13.4475 20.9017C13.138 22.8616 12.6105 24.8017 12.2373 26.7516C12.0717 27.617 11.7212 30.225 11.7212 29.3439C11.7212 28.4991 11.9614 27.665 12.18 26.8548C12.3159 26.351 12.4438 25.5611 12.4438 26.4935C12.4438 27.1442 12.3406 27.7859 12.3406 28.4377C12.3406 29.1627 12.5303 28.4047 12.6961 28.0822C13.0184 27.4555 13.3515 26.9362 12.9944 28.0076C12.6215 29.1262 12.2839 30.2728 11.985 31.4143C11.9077 31.7095 11.8459 32.3965 11.6179 32.6244C11.2278 33.0146 11.9562 31.5695 12.2029 31.0759C13.1466 29.1886 14.1123 27.1362 14.3823 25.0196C14.645 22.9602 14.7149 20.8551 14.7149 18.7797C14.7149 18.5715 14.4715 19.7169 14.4511 19.8522C14.3446 20.559 14.1766 21.2456 14.0382 21.9455C14.0033 22.122 13.9423 22.6148 14.0095 22.0774C14.2311 20.305 14.9946 18.5948 15.5179 16.8985C15.7139 16.2631 15.8318 15.464 16.1373 14.8912C16.2285 14.7201 16.1744 14.3777 16.2061 14.1915C16.2966 13.6589 16.5128 13.242 16.8312 12.8093C17.3654 12.0834 17.7596 11.8171 18.6722 11.8171C18.846 11.8171 19.1948 11.7524 19.3604 11.8401C19.9335 12.1435 18.342 14.0803 18.2249 14.2489C17.3494 15.5084 16.3894 16.8414 15.2999 17.9309C15.025 18.2058 16.0465 17.2985 16.1258 17.2312C17.033 16.4609 18.0812 15.812 19.0507 15.1206C19.7039 14.6548 20.6677 14.2836 21.2301 13.7212C21.2878 13.6636 21.0847 13.6681 21.0581 13.6524C20.9749 13.6035 21.006 13.3913 21.0179 13.314C21.1764 12.2835 21.6867 11.0925 22.251 10.2285C22.3974 10.0043 23.1923 9.02235 22.6869 9.75248C22.4137 10.147 21.838 10.7066 21.838 11.1977C21.838 11.5285 21.838 11.8592 21.838 12.1899C21.838 12.3488 21.8887 13.9229 22.0904 13.7212C22.2219 13.5898 22.1463 13.1814 22.1248 13.033C22.025 12.3455 21.7108 11.4823 22.3313 10.9339C22.8032 10.5169 23.1823 10.7286 23.5987 11.1117C23.993 11.4744 24.3545 11.8645 24.6827 12.2874C24.7768 12.4087 25.1287 12.643 24.9752 12.643C24.9382 12.643 24.8433 12.6347 24.8433 12.6946C24.8433 12.7472 25.045 12.7462 24.9924 12.7462C24.3692 12.7462 23.746 12.7462 23.1227 12.7462C22.8348 12.7462 22.8393 12.643 23.1399 12.643C23.8433 12.643 24.5466 12.5449 24.9293 13.2624C25.2296 13.8255 25.2447 14.5943 25.2447 15.2239C25.2447 15.5511 25.4926 15.075 25.6806 14.9371C25.8273 14.8296 26.5353 14.1514 26.7359 14.2087C27.0266 14.2918 26.4318 15.7521 26.3344 15.9063C25.34 17.4808 24.0369 15.5353 23.3693 14.6675C22.9148 14.0766 22.3034 13.3876 22.0675 12.666C22.0216 12.5256 22.0445 12.4402 22.0445 12.6545C22.0445 13.1957 21.9985 13.758 21.666 14.2145C21.2233 14.822 20.4461 15.2663 20.106 15.9465C20.0505 16.0575 20.3233 15.8228 20.4157 15.74C21.5739 14.7027 22.7588 13.6956 23.9486 12.6946C24.7911 11.9859 25.642 11.2644 26.5638 10.6586C26.8317 10.4826 26.9593 10.4884 26.8334 10.7963C26.4352 11.7697 25.5126 12.7068 24.7974 13.4345C23.2576 15.0011 21.171 15.8526 19.4751 17.2197C19.1608 17.4731 18.6623 17.8109 18.4371 18.1488C18.2963 18.3599 18.4202 17.6262 18.5174 17.3918C18.6819 16.995 18.8911 16.5513 19.1712 16.2218C19.2533 16.1251 19.2304 16.2382 19.1081 16.3021C17.7485 17.0128 16.4389 17.7538 15.0132 18.3209C14.8045 18.4039 14.1352 18.6932 14.7436 18.4069C16.2809 17.6835 17.994 17.1397 19.4293 16.2332C20.0582 15.836 20.8083 14.7934 21.5972 14.8109C21.9548 14.8189 22.2624 14.9343 22.6066 15.0174C23.4158 15.2127 24.2563 15.2183 25.0842 15.2239C25.6397 15.2276 26.0857 15.0552 25.8469 15.6999C25.6789 16.1536 25.2291 16.526 24.935 16.8985C24.5384 17.401 24.1432 17.9005 23.6733 18.3381C23.1427 18.8321 23.9526 18.0706 24.0748 17.9653C25.2844 16.9225 26.6727 16.1387 27.8944 15.1206C28.0315 15.0064 28.8853 14.382 28.1869 14.7192C27.7955 14.9081 27.4855 15.3033 27.1603 15.5852C26.8597 15.8457 26.4921 16.1333 26.323 16.4971C26.2313 16.6942 26.1261 16.9278 25.9215 17.0247C25.0649 17.4305 24.1473 17.354 23.2489 17.1337C22.6908 16.9968 21.0111 16.6806 21.5857 16.6806C21.7448 16.6806 21.4538 16.9735 21.3563 17.0993C20.9542 17.6181 20.5022 18.0536 19.9569 18.4241C18.6664 19.301 17.1515 19.7661 15.5982 19.7661C15.4924 19.7661 14.345 19.7977 14.9214 19.6055C16.8281 18.97 19.0344 18.9754 21.0179 18.946C21.5026 18.9388 22.2396 19.067 22.7213 18.9116C23.1496 18.7734 23.565 18.4051 23.9486 18.1717C24.5539 17.8036 25.1431 17.3999 25.7896 17.105C26.1412 16.9446 26.5393 16.865 26.8735 16.6691C27.1098 16.5306 26.6039 17.1722 26.5868 17.2025C26.2936 17.7198 26.0743 18.2721 25.7839 18.7911C25.4449 19.3967 25.1533 20.014 24.9006 20.6608C24.799 20.921 24.7291 21.7116 24.6253 21.4523C24.446 21.0038 22.3251 21.6861 21.947 21.7677C21.1479 21.9402 20.3345 21.9646 19.521 22.0143C19.3478 22.0249 18.9093 22.1211 18.7468 21.9856C18.541 21.8142 18.0505 22.1416 17.8578 22.2208C16.2713 22.8724 14.6574 23.689 12.9026 23.689C12.5995 23.689 13.3042 23.4381 13.3729 23.4137C14.0786 23.1633 14.8114 23.024 15.5408 22.8631C16.9603 22.5501 18.3312 22.0655 19.7103 21.6129C19.8322 21.5729 22.2384 20.8866 21.1154 20.7182C19.832 20.5257 18.2916 20.9199 17.1122 21.4179C17.0659 21.4374 16.4728 21.7361 16.7509 21.458C17.4025 20.8064 18.7913 20.6983 19.6357 20.5576C21.1584 20.3038 22.81 20.4888 24.3501 20.4888C24.6081 20.4888 26.6238 20.6679 26.5638 20.3167C26.5212 20.0667 26.3524 19.7434 26.3861 19.4908C26.4775 18.8047 26.9157 18.175 27.2004 17.5581C27.305 17.3315 28.0229 15.8441 27.7453 16.6462C27.4084 17.6193 27.6415 18.8416 27.6707 19.8464C27.7256 21.7323 27.9351 23.8476 27.4069 25.6963C27.3282 25.972 27.2226 25.267 27.2521 25.1457C27.3697 24.6614 27.5691 24.1892 27.6191 23.689C27.8346 21.534 28.1005 27.9942 28.2787 30.1526C28.3226 30.6851 28.3316 31.2218 28.3934 31.7527C28.4088 31.8854 28.4397 32.2339 28.5253 32.1312C28.8091 31.7906 28.8687 31.1571 29.0644 30.7548C29.4464 29.9695 29.0979 29.3266 28.7088 28.6041C28.3771 27.9881 28.0668 25.9006 28.3647 26.5337C28.5562 26.9405 28.8234 26.8533 29.1848 27.0842C30.0737 27.6521 30.4226 28.4913 30.4982 29.493C30.5348 29.9788 30.5097 30.4741 30.5097 30.9612C30.5097 31.2804 29.6823 31.3193 29.4716 31.3856C29.3273 31.4311 28.2078 31.7891 28.3303 31.8215C28.869 31.9641 29.4419 31.9477 29.9935 31.9477C30.3343 31.9477 31.2331 32.0437 31.4388 31.6839C31.5564 31.478 31.6123 31.5347 31.3126 31.5347C30.9878 31.5347 30.8519 31.523 30.6129 31.7412C29.3076 32.933 27.5817 32.98 25.9158 32.98C25.3738 32.98 24.9344 32.7599 24.4418 32.59C24.1832 32.5009 23.7863 32.6106 23.9543 32.3491C24.2841 31.8361 24.5244 31.2474 24.8318 30.7203C25.5973 29.4081 26.4532 28.1835 27.3782 26.981C27.4297 26.9141 28.6303 25.4688 27.9862 26.1666C26.8795 27.3655 26.3167 29.064 25.6577 30.5254C25.5034 30.8675 25.3275 31.197 25.1645 31.5347C25.1532 31.558 24.8828 32.2355 24.9924 32.1886C25.355 32.0331 25.8291 31.528 26.1566 31.2824C26.6739 30.8944 27.1985 30.1679 27.47 29.5963C27.6859 29.1417 27.9381 28.5989 27.8026 29.493C27.5235 31.3357 26.5012 32.9774 24.4304 32.6588C23.5878 32.5292 23.9258 30.4485 24.0174 29.9404C24.3506 28.0923 25.0793 26.3171 26.1738 24.8016C26.2581 24.6849 27.3994 22.9007 26.9653 23.9069C26.2045 25.6706 25.3424 27.3936 24.7343 29.2177C24.6832 29.371 24.6389 28.9033 24.6426 28.7417C24.6749 27.3041 24.8283 25.8612 25.1415 24.4575C25.532 22.7071 25.9967 20.9744 26.5638 19.2729C27.1422 17.5377 25.3974 22.7527 24.5795 24.3887C24.095 25.3575 23.2748 26.096 22.7327 27.0269C22.6477 27.1729 22.3339 27.6614 22.5377 27.2792C22.6543 27.0608 22.5739 26.6435 22.6295 26.396C22.7981 25.6449 23.065 24.9016 23.3636 24.1937C23.574 23.6948 23.7606 23.0759 24.0977 22.6452C24.1094 22.6303 24.3242 22.399 24.3156 22.5534C24.2972 22.8851 23.8848 23.3907 23.6905 23.6374C23.164 24.3057 22.5496 24.9032 22.0675 25.6046C21.2239 26.8315 20.3434 28.0252 19.4866 29.2407C19.0083 29.9193 19.5678 28.703 19.6587 28.4607C20.2842 26.7926 20.9144 25.1181 21.6603 23.4997C21.7356 23.3362 22.9515 21.1437 22.1822 22.2208C21.0054 23.8683 19.8641 25.7203 18.4313 27.1531C17.9303 27.6541 18.2384 26.4986 18.2822 26.3272C18.3934 25.8926 18.8258 24.9064 19.3031 24.7328C20.6841 24.2306 16.611 26.0105 15.5179 26.9925C15.3749 27.1209 14.107 28.3944 14.107 28.2026C14.107 27.5345 14.566 26.7649 14.8411 26.1895C15.2368 25.3619 15.6744 24.5428 16.1201 23.7406C16.4759 23.1001 16.9577 22.3506 17.5825 21.934C17.8494 21.7561 18.4061 21.3146 18.741 21.3146C19.2601 21.3146 19.0298 23.3988 19.0278 23.4883C18.9996 24.7349 18.902 25.9968 18.4313 27.1645C18.2876 27.5211 18.0999 27.85 17.9725 28.2141C17.7907 28.7337 17.9721 27.0929 17.984 27.0154C18.1186 26.1403 18.445 25.2997 18.7238 24.4633C18.7599 24.355 18.8429 24.1003 18.8902 23.9758C18.9217 23.8926 19.0677 23.7978 19.0049 23.7349C18.9977 23.7277 18.7486 24.0126 18.741 24.0216C18.5544 24.2456 18.3619 24.3951 18.1274 24.5665C17.8642 24.7588 17.57 25.1406 17.2958 25.2776C17.0708 25.3901 17.3363 24.8104 16.9975 25.1687C16.177 26.0366 15.8636 27.4031 15.4777 28.4836C14.9622 29.9271 14.4694 31.3797 13.912 32.808C13.8613 32.9379 13.438 34.1546 13.4819 33.5191C13.5691 32.2537 14.1705 30.9214 14.6117 29.7396C14.7916 29.2576 14.9482 28.4024 15.5408 28.2542C16.1143 28.1108 16.1544 28.4446 16.1602 28.9539C16.1642 29.3017 16.1602 29.6499 16.1602 29.9977C16.1602 30.0088 16.1478 30.5079 16.2176 30.468C16.5459 30.2804 16.5787 28.605 16.619 28.3116C16.6487 28.0953 16.8828 26.6441 16.8828 27.5832C16.8828 29.5577 16.4537 31.2725 15.6727 33.0947C15.5141 33.4647 15.2111 33.7091 15.4376 33.1635C15.8393 32.1956 16.3787 31.1736 17.1581 30.4565C17.4965 30.1452 17.8119 29.9537 17.8119 29.4815C17.8119 29.254 17.6359 27.5137 17.8636 27.4226C18.0555 27.3458 18.1203 28.3521 18.1216 28.4377C18.1474 30.0339 17.9856 31.7216 17.5825 33.2668C17.2445 34.5627 17.3984 30.518 17.8521 29.2579C17.9826 28.8953 18.875 28.8751 18.8443 29.3668C18.8387 29.4564 18.6396 29.2372 18.85 29.1145C19.1663 28.93 19.1791 29.2171 19.1482 29.4643C19.1161 29.7214 18.9949 29.255 18.9246 29.8486C18.847 30.5035 18.5089 31.2109 18.6607 31.8789C18.7697 32.3583 19.263 32.2081 19.4866 31.9534C20.3139 31.0112 20.9902 29.9164 21.6717 28.8679C22.2084 28.0423 20.5631 30.4956 20.0028 31.3053C19.033 32.7067 15.7073 36.5987 16.7796 35.2741C17.9658 33.8088 19.7306 32.6411 20.5878 30.9268C20.7323 30.6378 20.7709 30.3163 20.9089 30.0321C21.104 29.6304 21.6324 29.4417 21.8151 29.0342C22.1785 28.2235 22.1477 28.8998 22.1477 29.4185C22.1477 30.6444 21.838 34.3092 21.838 33.0832C21.838 32.5722 21.9219 32.4638 22.4058 32.4638C23.3475 32.4638 24.2422 32.1722 25.1645 32.0165C25.7419 31.919 26.0311 31.9285 26.5524 31.6953C27.7561 31.1568 28.9417 30.2959 30.3032 30.2959" stroke="url(#paint0_linear_787_734)" stroke-opacity="0.2" stroke-width="3" stroke-linecap="round"/>
<defs>
<linearGradient id="paint0_linear_787_734" x1="39.847" y1="4.68213" x2="39.847" y2="38.2945" gradientUnits="userSpaceOnUse">
<stop offset="0.744792" stop-color="#149833"/>
<stop offset="0.958333" stop-color="#149833" stop-opacity="0"/>
</linearGradient>
</defs>
</svg>
