<svg width="10" height="11" viewBox="0 0 10 11" fill="none" xmlns="http://www.w3.org/2000/svg">
<path d="M5.65169 3.35C5.48669 3.35 5.35419 3.3025 5.25419 3.2075C5.15419 3.1125 5.10419 2.9925 5.10419 2.8475C5.10419 2.6475 5.17919 2.4775 5.32919 2.3375C5.48419 2.1925 5.66419 2.12 5.86919 2.12C6.02919 2.12 6.15919 2.1675 6.25919 2.2625C6.35919 2.3575 6.40919 2.4775 6.40919 2.6225C6.40919 2.8225 6.33419 2.995 6.18419 3.14C6.03419 3.28 5.85669 3.35 5.65169 3.35ZM6.08669 3.845L5.35169 8H4.29419L5.02919 3.845H6.08669Z" fill="#999999"/>
<circle cx="5" cy="5.83325" r="4.58333" stroke="#999999" stroke-width="0.833333"/>
</svg>
