<svg width="23" height="25" viewBox="0 0 23 25" fill="none" xmlns="http://www.w3.org/2000/svg">
<path d="M11.5 0C9.22552 0 7.00211 0.719531 5.11095 2.0676C3.21978 3.41568 1.7458 5.33174 0.87539 7.57351C0.00498277 9.81527 -0.222756 12.282 0.220974 14.6619C0.664704 17.0417 1.75997 19.2278 3.36828 20.9435C4.97658 22.6593 7.02568 23.8277 9.25646 24.3011C11.4872 24.7745 13.7995 24.5316 15.9009 23.603C18.0022 22.6744 19.7983 21.1019 21.0619 19.0844C22.3255 17.0669 23 14.6949 23 12.2684C22.9965 9.01577 21.7838 5.89739 19.6279 3.59741C17.472 1.29743 14.5489 0.00368145 11.5 0ZM12.8269 17.9308H12.3846V18.8745C12.3846 19.1248 12.2914 19.3648 12.1255 19.5418C11.9596 19.7188 11.7346 19.8182 11.5 19.8182C11.2654 19.8182 11.0404 19.7188 10.8745 19.5418C10.7086 19.3648 10.6154 19.1248 10.6154 18.8745V17.9308H8.84616C8.61154 17.9308 8.38654 17.8314 8.22064 17.6544C8.05474 17.4774 7.96154 17.2374 7.96154 16.9871C7.96154 16.7368 8.05474 16.4967 8.22064 16.3197C8.38654 16.1428 8.61154 16.0433 8.84616 16.0433H12.8269C13.1788 16.0433 13.5164 15.8942 13.7652 15.6287C14.014 15.3632 14.1538 15.0032 14.1538 14.6277C14.1538 14.2523 14.014 13.8922 13.7652 13.6268C13.5164 13.3613 13.1788 13.2122 12.8269 13.2122H10.1731C9.35193 13.2122 8.56441 12.8642 7.98377 12.2447C7.40313 11.6253 7.07693 10.7851 7.07693 9.90912C7.07693 9.0331 7.40313 8.19296 7.98377 7.57352C8.56441 6.95408 9.35193 6.60608 10.1731 6.60608H10.6154V5.66235C10.6154 5.41206 10.7086 5.17202 10.8745 4.99504C11.0404 4.81806 11.2654 4.71863 11.5 4.71863C11.7346 4.71863 11.9596 4.81806 12.1255 4.99504C12.2914 5.17202 12.3846 5.41206 12.3846 5.66235V6.60608H14.1538C14.3885 6.60608 14.6135 6.70551 14.7794 6.88249C14.9453 7.05947 15.0385 7.29951 15.0385 7.5498C15.0385 7.8001 14.9453 8.04014 14.7794 8.21712C14.6135 8.3941 14.3885 8.49353 14.1538 8.49353H10.1731C9.82116 8.49353 9.48365 8.64267 9.2348 8.90814C8.98596 9.17362 8.84616 9.53368 8.84616 9.90912C8.84616 10.2846 8.98596 10.6446 9.2348 10.9101C9.48365 11.1756 9.82116 11.3247 10.1731 11.3247H12.8269C13.6481 11.3247 14.4356 11.6727 15.0162 12.2921C15.5969 12.9116 15.9231 13.7517 15.9231 14.6277C15.9231 15.5038 15.5969 16.3439 15.0162 16.9633C14.4356 17.5828 13.6481 17.9308 12.8269 17.9308Z" fill="#26A17B"/>
</svg>
