<svg width="8" height="11" viewBox="0 0 8 11" fill="none" xmlns="http://www.w3.org/2000/svg">
<path d="M5.71429 9.625V10.4844C5.71429 10.7692 5.52241 11 5.28571 11H0.428571C0.191875 11 0 10.7692 0 10.4844V2.57812C0 2.29335 0.191875 2.0625 0.428571 2.0625H1.71429V8.42188C1.71429 9.08529 2.16288 9.625 2.71429 9.625H5.71429ZM5.71429 2.23438V0H2.71429C2.47759 0 2.28571 0.23085 2.28571 0.515625V8.42188C2.28571 8.70665 2.47759 8.9375 2.71429 8.9375H7.57143C7.80813 8.9375 8 8.70665 8 8.42188V2.75H6.14286C5.90714 2.75 5.71429 2.51797 5.71429 2.23438ZM7.87448 1.56774L6.69695 0.151014C6.61658 0.0543216 6.50757 7.14992e-07 6.39391 0L6.28571 0V2.0625H8V1.93233C8 1.79558 7.95485 1.66443 7.87448 1.56774Z" fill="#999999"/>
</svg>
