<svg width="29" height="30" viewBox="0 0 29 30" fill="none" xmlns="http://www.w3.org/2000/svg">
<path d="M14.0605 30C6.2947 30 0 23.2847 0 15C0 6.71531 6.2947 0 14.0605 0C21.8263 0 28.121 6.71531 28.121 15C28.121 23.2847 21.8263 30 14.0605 30ZM20.2734 7.5L16.2539 11.7403C15.6691 12.3561 14.8804 12.7014 14.0587 12.7014C13.237 12.7014 12.4483 12.3561 11.8635 11.7403L7.8475 7.5H5.30344L10.5937 13.0847C11.5178 14.0561 12.7631 14.6006 14.0605 14.6006C15.3578 14.6006 16.6031 14.0561 17.5273 13.0847L22.814 7.5H20.2734ZM7.81675 23.0278L11.867 18.75C12.4519 18.1342 13.2405 17.7889 14.0622 17.7889C14.884 17.7889 15.6726 18.1342 16.2574 18.75L20.3042 23.0278H22.8483L17.5273 17.4094C16.6031 16.438 15.3578 15.8935 14.0605 15.8935C12.7631 15.8935 11.5178 16.438 10.5937 17.4094L5.27268 23.0269L7.81675 23.0278Z" fill="white" fill-opacity="0.8"/>
</svg>
