<svg width="23" height="23" viewBox="0 0 23 23" fill="none" xmlns="http://www.w3.org/2000/svg">
<path d="M12.8007 14.735L14.7709 12.7734L20.3399 18.3181L18.3697 20.2797L12.8007 14.735Z" fill="white"/>
<path d="M16.2531 9.95257C18.0456 9.95257 19.5038 8.5008 19.5038 6.71613C19.5038 6.1798 19.3552 5.68046 19.123 5.23661L16.6153 7.7333L15.2315 6.35549L17.7391 3.85881C17.2933 3.62763 16.7918 3.47968 16.2531 3.47968C14.4606 3.47968 13.0025 4.93146 13.0025 6.71613C13.0025 7.09525 13.0768 7.45589 13.1975 7.78878L11.4794 9.49947L9.82618 7.85351L10.4856 7.19697L9.17605 5.89315L11.145 3.93278C10.0584 2.85089 8.29374 2.85089 7.2071 3.93278L3.91933 7.20622L5.22887 8.51004H2.60979L1.95038 9.16658L5.23815 12.44L5.89757 11.7835V9.16658L7.2071 10.4704L7.86652 9.81387L9.51969 11.4598L2.63765 18.3119L4.6066 20.2722L15.1758 9.75839C15.5101 9.8786 15.8723 9.95257 16.2531 9.95257Z" fill="white"/>
</svg>
