<svg width="23" height="19" viewBox="0 0 35 30" fill="none" xmlns="http://www.w3.org/2000/svg">
<path d="M28.794 12.7731C28.794 19.3049 22.9542 24.6 15.7505 24.6C8.5468 24.6 2.70703 19.3049 2.70703 12.7731C-2.07558 -4.9673 -2.07558 0.946151 15.7505 0.946151C22.9542 0.946151 28.794 6.24124 28.794 12.7731Z" fill="#8D0BA4"/>
<path d="M34.1097 17.6615C34.1097 24.1934 28.27 29.4885 21.0662 29.4885C13.8625 29.4885 8.02277 24.1934 8.02277 17.6615C3.24016 -0.0788245 3.24016 5.83462 21.0662 5.83462C28.27 5.83462 34.1097 11.1297 34.1097 17.6615Z" fill="#8B35A0"/>
<path d="M17.2882 15.589L14.0114 18.5176L17.2882 21.4462V19.2497H23.0452V17.7855H17.2882V15.589ZM28.794 14.1247L25.5172 11.1962V13.3926H19.7602V14.8569H25.5172V17.0533L28.794 14.1247Z" fill="white"/>
</svg>
