<svg width="23" height="20" viewBox="0 0 23 25" fill="none" xmlns="http://www.w3.org/2000/svg">
<path d="M7.55181 18.6067C7.15031 18.2542 7.3596 18.3536 6.3912 18.126C5.95181 18.0225 5.56556 17.8237 5.21627 17.5856L3.12006 22.0985C2.91723 22.5355 3.2961 23.0101 3.83297 22.9923L6.26738 22.9107L7.94175 24.4637C8.31137 24.8061 8.96006 24.6994 9.16289 24.2625L11.5677 19.085C11.0669 19.3301 10.5111 19.4737 9.93632 19.4737C9.03537 19.4737 8.18894 19.1658 7.55181 18.6067V18.6067ZM20.7509 22.0985L18.6547 17.5856C18.3054 17.8241 17.9192 18.0225 17.4798 18.126C16.5063 18.3548 16.7198 18.255 16.3192 18.6067C15.6821 19.1658 14.8352 19.4737 13.9342 19.4737C13.3595 19.4737 12.8036 19.3297 12.3028 19.085L14.7076 24.2625C14.9105 24.6994 15.5596 24.8061 15.9288 24.4637L17.6036 22.9107L20.038 22.9923C20.5749 23.0101 20.9538 22.5351 20.7509 22.0985V22.0985ZM15.2159 17.6886C15.9218 17.0578 16.0027 17.1122 17.0081 16.8716C17.6498 16.7178 18.1516 16.2695 18.3235 15.6959C18.669 14.5437 18.5794 14.6829 19.5224 13.8398C19.9923 13.4199 20.1757 12.8077 20.0038 12.2341C19.6587 11.0827 19.6582 11.2434 20.0038 10.0908C20.1757 9.51717 19.9923 8.90498 19.5224 8.48508C18.5794 7.64205 18.669 7.7808 18.3235 6.62903C18.1516 6.05538 17.6498 5.60709 17.0081 5.45333C15.7199 5.1446 15.8752 5.22533 14.9313 4.3819C14.4614 3.962 13.7762 3.7977 13.1345 3.95146C11.8468 4.25978 12.0265 4.26019 10.7365 3.95146C10.0948 3.7977 9.40961 3.9616 8.93973 4.3819C7.99674 5.22493 8.15198 5.1446 6.86339 5.45333C6.22164 5.60709 5.71988 6.05538 5.548 6.62903C5.20287 7.7808 5.29204 7.64205 4.34905 8.48508C3.87917 8.90498 3.69528 9.51717 3.86762 10.0908C4.21275 11.2414 4.21321 11.0807 3.86762 12.2337C3.69575 12.8073 3.87917 13.4195 4.34905 13.8398C5.29204 14.6829 5.20241 14.5437 5.548 15.6959C5.71988 16.2695 6.22164 16.7178 6.86339 16.8716C7.8974 17.1191 7.97456 17.0801 8.65512 17.6886C9.26638 18.2351 10.2186 18.3329 10.9532 17.9248C11.247 17.761 11.5878 17.674 11.9357 17.674C12.2837 17.674 12.6245 17.761 12.9182 17.9248C13.6524 18.3329 14.6046 18.2351 15.2159 17.6886ZM7.57676 11.0336C7.57676 8.88226 9.52835 7.13818 11.9355 7.13818C14.3426 7.13818 16.2942 8.88226 16.2942 11.0336C16.2942 13.185 14.3426 14.9291 11.9355 14.9291C9.52835 14.9291 7.57676 13.185 7.57676 11.0336V11.0336Z" fill="#8B35A0"/>
<ellipse cx="11.5806" cy="9.73684" rx="10.6452" ry="9.73684" fill="#8B35A0"/>
<path d="M11.9355 8.76316C13.3914 8.76316 14.5714 7.52818 14.5714 6.00438C14.5714 4.48059 13.3914 3.24561 11.9355 3.24561C10.4795 3.24561 9.29953 4.48059 9.29953 6.00438C9.29953 7.52818 10.4795 8.76316 11.9355 8.76316ZM13.7806 9.45285H13.4367C12.9796 9.67269 12.4709 9.7977 11.9355 9.7977C11.4 9.7977 10.8935 9.67269 10.4342 9.45285H10.0903C8.56229 9.45285 7.32257 10.7503 7.32257 12.3496V13.2462C7.32257 13.8173 7.76533 14.2807 8.31105 14.2807H15.5599C16.1056 14.2807 16.5484 13.8173 16.5484 13.2462V12.3496C16.5484 10.7503 15.3087 9.45285 13.7806 9.45285Z" fill="#FFFAFA"/>
</svg>
