<svg width="38" height="45" viewBox="0 0 38 45" fill="none" xmlns="http://www.w3.org/2000/svg">
<path d="M17.6653 0.241034C18.3797 0.0822813 19.1203 0.082281 19.8347 0.241034L35.8687 3.80417C36.8208 4.01667 37.5 4.86042 37.5 5.8375V26.6437C37.5 30.8229 35.4104 34.7271 31.9333 37.0438L21.5237 43.9841C19.8441 45.1039 17.6559 45.1039 15.9763 43.9841L5.56667 37.0438C2.0875 34.725 0 30.8229 0 26.6458V5.8375C0 4.86042 0.679167 4.01667 1.63125 3.80417L17.6653 0.241034ZM19.8343 4.50962C19.1201 4.35097 18.3799 4.35097 17.6657 4.50962L8.08239 6.63848C5.79452 7.14672 4.16667 9.17587 4.16667 11.5195V26.6437C4.16667 29.4292 5.55833 32.0312 7.87708 33.5771L15.9761 38.9775C17.6558 40.0975 19.8442 40.0975 21.5239 38.9775L29.6229 33.5771C31.9417 32.0312 33.3333 29.4312 33.3333 26.6458V11.5195C33.3333 9.17587 31.7055 7.14672 29.4176 6.63848L19.8343 4.50962ZM28.025 15.0455C28.025 15.0457 28.0251 15.0459 28.0252 15.046L28.8885 15.9087C30.0396 17.059 30.0399 18.9247 28.8893 20.0753L21.2501 27.7145C19.2975 29.6671 16.1317 29.6671 14.179 27.7145L10.3479 23.8833C9.53445 23.0699 9.53445 21.751 10.3479 20.9375C11.1614 20.124 12.4803 20.124 13.2937 20.9375L14.7667 22.4104C16.3936 24.0374 19.0314 24.0374 20.6583 22.4104L28.0237 15.045C28.0242 15.0445 28.025 15.0449 28.025 15.0455Z" fill="#D9D9D9"/>
</svg>
