<svg width="17" height="17" viewBox="0 0 17 17" fill="none" xmlns="http://www.w3.org/2000/svg">
<path d="M16.1293 5.69467L11.4871 4.98711L9.41251 0.591348C9.22602 0.198555 8.86224 0 8.49846 0C8.1369 0 7.77565 0.195898 7.58852 0.591348L5.51334 4.98678L0.870747 5.69367C0.0382005 5.81984 -0.295452 6.89197 0.308104 7.50623L3.66652 10.9262L2.87171 15.7565C2.7588 16.4465 3.28497 17 3.87426 17C4.03062 17 4.19142 16.9612 4.34587 16.8755L8.49909 14.5951L12.652 16.8762C12.8061 16.9608 12.9666 16.9993 13.1223 16.9993C13.7123 16.9993 14.2394 16.4478 14.1265 15.7575L13.3326 10.9268L16.6917 7.50756C17.2955 6.8933 16.9619 5.82084 16.1293 5.69467ZM12.2682 9.78529L11.6935 10.3703L11.8293 11.1964L12.4484 14.9633L9.20921 13.184L8.49941 12.7942L8.50036 2.26246L10.1188 5.69201L10.4734 6.4434L11.2666 6.56426L14.8896 7.11643L12.2682 9.78529Z" fill="url(#paint0_linear_143_2687)"/>
<defs>
<linearGradient id="paint0_linear_143_2687" x1="8.5" y1="0" x2="8.5" y2="17" gradientUnits="userSpaceOnUse">
<stop stop-color="#8B35A0"/>
<stop offset="1" stop-color="#F316DD" stop-opacity="0.52"/>
</linearGradient>
</defs>
</svg>
