<svg width="16" height="16" viewBox="0 0 16 16" fill="none" xmlns="http://www.w3.org/2000/svg">
<path d="M12.4 7C10.4103 7 8.8 9.01281 8.8 11.5C8.8 13.9872 10.4103 16 12.4 16C14.3898 16 16 13.9872 16 11.5C16 9.01281 14.3898 7 12.4 7ZM14 11.6966C14 11.8634 13.8907 12 13.7572 12H12.243C12.1095 12 12.0003 11.8634 12.0003 11.6966V9.30375C12.0003 9.13688 12.1095 9.00031 12.243 9.00031H12.5573C12.6908 9.00031 12.8 9.13688 12.8 9.30375V11H13.7572C13.8907 11 14 11.1366 14 11.3034V11.6966ZM12.4 6C12.535 6 12.668 6.01031 12.8 6.02531V4.5C12.8 3.7 12.24 3 11.6 3H9.6V1.5C9.6 0.7 9.04 0 8.4 0H4.4C3.76 0 3.2 0.7 3.2 1.5V3H1.2C0.56 3 0 3.7 0 4.5V7H9.878C10.593 6.37219 11.4618 6 12.4 6ZM8 3H4.8V2H8V3ZM8.1705 10H5.2C4.979 10 4.8 9.77625 4.8 9.5V8H0V12.5C0 13.3 0.56 14 1.2 14H8.48575C8.1775 13.2487 8 12.4006 8 11.5C8 10.9794 8.062 10.4775 8.1705 10Z" fill="#71737A"/>
</svg>
