<svg width="15" height="15" viewBox="0 0 15 15" fill="none" xmlns="http://www.w3.org/2000/svg">
<path d="M4.09013 0.122542C4.05746 0.0837007 4.01865 0.0528818 3.97592 0.0318533C3.93319 0.0108247 3.88737 0 3.8411 0C3.79483 0 3.74902 0.0108247 3.70628 0.0318533C3.66355 0.0528818 3.62474 0.0837007 3.59208 0.122542L1.72645 2.32066L1.06141 1.55265C1.02875 1.51381 0.98994 1.48299 0.947207 1.46196C0.904473 1.44094 0.858658 1.43011 0.812387 1.43011C0.766117 1.43011 0.720301 1.44094 0.677568 1.46196C0.634835 1.48299 0.596025 1.51381 0.563364 1.55265L0.103402 2.09845C0.0706273 2.13716 0.0446221 2.18315 0.026878 2.23379C0.00913394 2.28444 0 2.33873 0 2.39357C0 2.4484 0.00913394 2.5027 0.026878 2.55334C0.0446221 2.60399 0.0706273 2.64998 0.103402 2.68869L1.49764 4.33441C1.56724 4.41281 1.65958 4.45652 1.7556 4.45652C1.85162 4.45652 1.94397 4.41281 2.01356 4.33441L2.4703 3.79208L4.58554 1.28566C4.65144 1.20749 4.68868 1.10168 4.68917 0.991181C4.68967 0.880682 4.65338 0.774409 4.58817 0.69542L4.09013 0.122542ZM4.09013 5.6496C4.05746 5.61075 4.01865 5.57994 3.97592 5.55891C3.93319 5.53788 3.88737 5.52705 3.8411 5.52705C3.79483 5.52705 3.74902 5.53788 3.70628 5.55891C3.66355 5.57994 3.62474 5.61075 3.59208 5.6496L1.72645 7.86195L1.06141 7.09464C1.02875 7.05579 0.98994 7.02498 0.947207 7.00395C0.904473 6.98292 0.858658 6.97209 0.812387 6.97209C0.766117 6.97209 0.720301 6.98292 0.677568 7.00395C0.634835 7.02498 0.596025 7.05579 0.563364 7.09464L0.103402 7.63939C0.0706273 7.6781 0.0446221 7.72409 0.026878 7.77473C0.00913394 7.82538 0 7.87967 0 7.93451C0 7.98935 0.00913394 8.04364 0.026878 8.09428C0.0446221 8.14493 0.0706273 8.19092 0.103402 8.22963L1.49413 9.87882C1.56367 9.9572 1.65597 10.0009 1.75194 10.0009C1.84791 10.0009 1.94021 9.9572 2.00975 9.87882L2.46971 9.33407L4.58495 6.8266C4.6506 6.74898 4.68772 6.64376 4.68821 6.53386C4.68871 6.42396 4.65254 6.31828 4.58759 6.23983L4.09013 5.6496ZM1.87499 11.6669C1.09891 11.6669 0.45145 12.4134 0.45145 13.3334C0.45145 14.2535 1.0995 15 1.87499 15C2.24795 15 2.60563 14.8244 2.86936 14.5119C3.13308 14.1993 3.28124 13.7754 3.28124 13.3334C3.28124 12.8914 3.13308 12.4676 2.86936 12.155C2.60563 11.8425 2.24795 11.6669 1.87499 11.6669ZM14.5312 12.2224H6.09374C5.96942 12.2224 5.85019 12.2809 5.76228 12.3851C5.67438 12.4893 5.62499 12.6306 5.62499 12.7779V13.889C5.62499 14.0363 5.67438 14.1776 5.76228 14.2818C5.85019 14.386 5.96942 14.4445 6.09374 14.4445H14.5312C14.6556 14.4445 14.7748 14.386 14.8627 14.2818C14.9506 14.1776 15 14.0363 15 13.889V12.7779C15 12.6306 14.9506 12.4893 14.8627 12.3851C14.7748 12.2809 14.6556 12.2224 14.5312 12.2224ZM14.5312 1.11206H6.09374C5.96942 1.11206 5.85019 1.17059 5.76228 1.27477C5.67438 1.37895 5.62499 1.52024 5.62499 1.66758V2.77861C5.62499 2.92594 5.67438 3.06724 5.76228 3.17142C5.85019 3.2756 5.96942 3.33413 6.09374 3.33413H14.5312C14.6556 3.33413 14.7748 3.2756 14.8627 3.17142C14.9506 3.06724 15 2.92594 15 2.77861V1.66758C15 1.52024 14.9506 1.37895 14.8627 1.27477C14.7748 1.17059 14.6556 1.11206 14.5312 1.11206ZM14.5312 6.66724H6.09374C5.96942 6.66724 5.85019 6.72576 5.76228 6.82994C5.67438 6.93412 5.62499 7.07542 5.62499 7.22275V8.33379C5.62499 8.48112 5.67438 8.62242 5.76228 8.7266C5.85019 8.83078 5.96942 8.88931 6.09374 8.88931H14.5312C14.6556 8.88931 14.7748 8.83078 14.8627 8.7266C14.9506 8.62242 15 8.48112 15 8.33379V7.22275C15 7.07542 14.9506 6.93412 14.8627 6.82994C14.7748 6.72576 14.6556 6.66724 14.5312 6.66724Z" fill="#71737A"/>
</svg>
