<svg width="23" height="19" viewBox="0 0 34 37" fill="none" xmlns="http://www.w3.org/2000/svg">
<ellipse cx="11.3333" cy="10.6731" rx="11.3333" ry="10.6731" fill="#8D0BA4"/>
<path fill-rule="evenodd" clip-rule="evenodd" d="M24.9333 17.2025H34L18.1333 29.8009L2.26666 17.2025H11.3333V6.40385H24.9333V17.2025Z" fill="#8B35A0"/>
<path d="M23.4222 15.6538C23.4222 18.0117 21.3926 19.9231 18.8889 19.9231C16.3852 19.9231 14.3555 18.0117 14.3555 15.6538C14.3555 13.296 16.3852 11.3846 18.8889 11.3846C21.3926 11.3846 23.4222 13.296 23.4222 15.6538ZM20.8329 15.0457C20.9231 14.4776 20.4638 14.1722 19.8357 13.9685L20.0395 13.1989L19.542 13.0822L19.3437 13.8315C19.2129 13.8008 19.0786 13.7718 18.9451 13.7432L19.1449 12.989L18.6478 12.8723L18.4439 13.6415C18.3356 13.6183 18.2294 13.5953 18.1262 13.5712L18.1268 13.5688L17.4408 13.4075L17.3084 13.9078C17.3084 13.9078 17.6775 13.9874 17.6697 13.9924C17.8712 14.0397 17.9076 14.1653 17.9015 14.2648L17.6694 15.1414C17.6833 15.1448 17.7013 15.1496 17.7212 15.157C17.7046 15.1532 17.6869 15.1489 17.6686 15.1448L17.3433 16.3728C17.3186 16.4305 17.2561 16.5169 17.1153 16.4841C17.1203 16.4909 16.7538 16.3991 16.7538 16.3991L16.5068 16.9353L17.1541 17.0873C17.2746 17.1157 17.3926 17.1454 17.5088 17.1734L17.3029 17.9518L17.7998 18.0685L18.0037 17.2984C18.1354 17.3321 18.2676 17.3643 18.4001 17.3953L18.1969 18.1617L18.6943 18.2785L18.9002 17.5016C19.7485 17.6528 20.3863 17.5918 20.6548 16.8694C20.8712 16.2877 20.644 15.9522 20.1977 15.7334C20.5227 15.6628 20.7676 15.4615 20.8329 15.0457ZM19.6963 16.5464C19.5426 17.1281 18.5025 16.8136 18.1653 16.7348L18.4385 15.7036C18.7757 15.7829 19.857 15.9398 19.6963 16.5464ZM19.8502 15.0373C19.7099 15.5664 18.8442 15.2975 18.5634 15.2316L18.8111 14.2964C19.0919 14.3623 19.9963 14.4853 19.8502 15.0373Z" fill="white"/>
</svg>
