<svg width="18" height="5" viewBox="0 0 18 5" fill="none" xmlns="http://www.w3.org/2000/svg">
<path d="M11.6129 2.36662C11.6129 3.5643 10.4444 4.53328 9 4.53328C7.55564 4.53328 6.3871 3.5643 6.3871 2.36662C6.3871 1.16893 7.55564 0.199951 9 0.199951C10.4444 0.199951 11.6129 1.16893 11.6129 2.36662ZM15.3871 0.199951C13.9427 0.199951 12.7742 1.16893 12.7742 2.36662C12.7742 3.5643 13.9427 4.53328 15.3871 4.53328C16.8315 4.53328 18 3.5643 18 2.36662C18 1.16893 16.8315 0.199951 15.3871 0.199951ZM2.6129 0.199951C1.16855 0.199951 0 1.16893 0 2.36662C0 3.5643 1.16855 4.53328 2.6129 4.53328C4.05726 4.53328 5.22581 3.5643 5.22581 2.36662C5.22581 1.16893 4.05726 0.199951 2.6129 0.199951Z" fill="#59595C"/>
</svg>
