<svg width="26" height="10" viewBox="0 0 26 10" fill="none" xmlns="http://www.w3.org/2000/svg">
<path d="M3.9 0.576C4.788 0.576 5.564 0.752 6.228 1.104C6.892 1.456 7.404 1.952 7.764 2.592C8.132 3.224 8.316 3.956 8.316 4.788C8.316 5.612 8.132 6.344 7.764 6.984C7.404 7.624 6.888 8.12 6.216 8.472C5.552 8.824 4.78 9 3.9 9H0.744V0.576H3.9ZM3.768 7.224C4.544 7.224 5.148 7.012 5.58 6.588C6.012 6.164 6.228 5.564 6.228 4.788C6.228 4.012 6.012 3.408 5.58 2.976C5.148 2.544 4.544 2.328 3.768 2.328H2.796V7.224H3.768ZM13.5668 9.084C12.7748 9.084 12.0468 8.9 11.3828 8.532C10.7268 8.164 10.2027 7.652 9.81075 6.996C9.42675 6.332 9.23475 5.588 9.23475 4.764C9.23475 3.94 9.42675 3.2 9.81075 2.544C10.2027 1.888 10.7268 1.376 11.3828 1.008C12.0468 0.64 12.7748 0.456 13.5668 0.456C14.3588 0.456 15.0828 0.64 15.7388 1.008C16.4028 1.376 16.9228 1.888 17.2988 2.544C17.6828 3.2 17.8748 3.94 17.8748 4.764C17.8748 5.588 17.6828 6.332 17.2988 6.996C16.9148 7.652 16.3948 8.164 15.7388 8.532C15.0828 8.9 14.3588 9.084 13.5668 9.084ZM13.5668 7.212C14.2388 7.212 14.7747 6.988 15.1747 6.54C15.5828 6.092 15.7868 5.5 15.7868 4.764C15.7868 4.02 15.5828 3.428 15.1747 2.988C14.7747 2.54 14.2388 2.316 13.5668 2.316C12.8868 2.316 12.3428 2.536 11.9348 2.976C11.5347 3.416 11.3347 4.012 11.3347 4.764C11.3347 5.508 11.5347 6.104 11.9348 6.552C12.3428 6.992 12.8868 7.212 13.5668 7.212ZM25.1963 0.576V2.22H22.9643V9H20.9123V2.22H18.6803V0.576H25.1963Z" fill="#5BEFF9"/>
</svg>
