<svg width="20" height="20" viewBox="0 0 20 20" fill="none" xmlns="http://www.w3.org/2000/svg">
<path d="M19.4444 8.75H18.4201C18.1145 7.96875 17.67 7.27734 17.1214 6.69922L17.7777 3.75H16.6665C15.6457 3.75 14.7428 4.27734 14.1317 5.08984C13.8678 5.04688 13.6074 5 13.3331 5H8.88845C6.20085 5 3.96118 7.14844 3.4438 10H1.94374C1.42983 10 1.02356 9.47266 1.12773 8.875C1.20413 8.42969 1.57567 8.125 1.97846 8.125H2.01318C2.12777 8.125 2.22153 8.01953 2.22153 7.89062V7.10938C2.22153 6.98047 2.12777 6.875 2.01318 6.875C1.02356 6.875 0.141584 7.67188 0.016579 8.77344C-0.136205 10.1094 0.787442 11.25 1.94374 11.25H3.33268C3.33268 13.2891 4.21466 15.082 5.55499 16.2227V19.375C5.55499 19.7188 5.805 20 6.11057 20H8.33288C8.63844 20 8.88845 19.7188 8.88845 19.375V17.5H13.3331V19.375C13.3331 19.7188 13.5831 20 13.8886 20H16.111C16.4165 20 16.6665 19.7188 16.6665 19.375V16.2227C17.0763 15.875 17.4409 15.4648 17.7534 15H19.4444C19.75 15 20 14.7188 20 14.375V9.375C20 9.03125 19.75 8.75 19.4444 8.75ZM14.9998 11.25C14.6942 11.25 14.4442 10.9688 14.4442 10.625C14.4442 10.2812 14.6942 10 14.9998 10C15.3054 10 15.5554 10.2812 15.5554 10.625C15.5554 10.9688 15.3054 11.25 14.9998 11.25ZM8.88845 3.75H13.3331C13.5206 3.75 13.7046 3.76562 13.8852 3.78125C13.8852 3.76953 13.8886 3.76172 13.8886 3.75C13.8886 1.67969 12.3955 0 10.5552 0C8.71484 0 7.22172 1.67969 7.22172 3.75C7.22172 3.83203 7.23908 3.91016 7.24256 3.99219C7.77035 3.83984 8.31899 3.75 8.88845 3.75Z" fill="#59595C"/>
</svg>
