<svg width="21" height="20" viewBox="0 0 21 20" fill="none" xmlns="http://www.w3.org/2000/svg">
<path d="M10.277 0C4.75042 0 0.276978 5.11143 0.276978 11.4286V13.5714C0.276975 13.8367 0.341616 14.0968 0.463658 14.3225C0.5857 14.5482 0.760321 14.7305 0.967954 14.8492L1.52979 15.1702C1.60834 17.8528 3.53561 20 5.90198 20H6.83948C7.35725 20 7.77698 19.5203 7.77698 18.9286V11.0714C7.77698 10.4797 7.35725 10 6.83948 10H5.90198C4.67768 10 3.57108 10.575 2.77698 11.5012V11.4286C2.77698 6.70228 6.14147 2.85714 10.277 2.85714C14.4125 2.85714 17.777 6.70228 17.777 11.4286V11.5012C16.9829 10.575 15.8763 10 14.652 10H13.7145C13.1967 10 12.777 10.4797 12.777 11.0714V18.9286C12.777 19.5203 13.1967 20 13.7145 20H14.652C17.0183 20 18.9456 17.8528 19.0242 15.1702L19.586 14.8492C19.7936 14.7306 19.9682 14.5482 20.0903 14.3225C20.2123 14.0968 20.277 13.8367 20.277 13.5714V11.4286C20.277 5.11254 15.8045 0 10.277 0Z" fill="#59595C"/>
</svg>
