<svg width="145" height="110" viewBox="0 0 145 110" fill="none" xmlns="http://www.w3.org/2000/svg">
<path fill-rule="evenodd" clip-rule="evenodd" d="M80.5624 78.7775L88.1957 55.8257L41.4586 28.0625L33.5547 51.1748L57.0585 64.9756L80.5624 78.7775Z" fill="#999999" fill-opacity="0.5"/>
<path fill-rule="evenodd" clip-rule="evenodd" d="M88.1796 0.598145L111.685 14.4L135.188 28.2008L111.685 42.0026L87.909 55.9639L64.6757 42.0026L41.1719 28.2008L64.6757 14.4L88.1796 0.598145Z" fill="#643513" fill-opacity="0.5"/>
<path fill-rule="evenodd" clip-rule="evenodd" d="M87.909 55.9642V109.645L41.1719 82.588V55.6475L57.0578 64.9755L80.5616 78.7774L87.909 55.9642Z" fill="#444750" fill-opacity="0.5"/>
<path fill-rule="evenodd" clip-rule="evenodd" d="M41.173 28.2009L32 27.6026L79.0088 0L88.1807 0.598264L64.6769 14.4001L41.173 28.2009Z" fill="#999999" fill-opacity="0.5"/>
<path fill-rule="evenodd" clip-rule="evenodd" d="M135.173 29.7892L135.188 28.2012L134.734 28.4673L135.173 29.7892ZM87.9087 55.9633V109.645L134.648 82.5915L134.919 55.4926L118.763 64.979L95.255 78.7776L87.9087 55.9633Z" fill="#444750" fill-opacity="0.5"/>
<path fill-rule="evenodd" clip-rule="evenodd" d="M95.255 78.7774L87.9087 55.9642L134.646 28.2021L142.264 51.1748L118.76 64.9756L95.255 78.7774Z" fill="#999999" fill-opacity="0.5"/>
<path fill-rule="evenodd" clip-rule="evenodd" d="M135.189 28.2009L144.362 27.6026L97.3531 0L88.1812 0.598264L111.685 14.4001L135.189 28.2009Z" fill="#999999" fill-opacity="0.5"/>
<path fill-rule="evenodd" clip-rule="evenodd" d="M88.1805 37.2066V0.598145L64.6767 14.4L41.1729 28.2008L64.6756 42.0026L72.2518 46.4522L88.1805 37.2066Z" fill="#444750" fill-opacity="0.5"/>
<path fill-rule="evenodd" clip-rule="evenodd" d="M88.1812 0.598145V37.2066L104.015 46.3972L134.647 28.2008L134.735 28.468L135.189 28.2008L111.685 14.4L88.1812 0.598145Z" fill="#444750" fill-opacity="0.5"/>
<path d="M20.5 46C9.15667 46 0 55.1567 0 66.5C0 77.8433 9.15667 87 20.5 87C31.8433 87 41 77.8433 41 66.5C41 55.1567 31.8433 46 20.5 46ZM35.5333 66.5C35.5333 69.6433 34.5767 72.5817 32.8683 75.0417L11.9583 54.1317C14.4183 52.4233 17.3567 51.4667 20.5 51.4667C28.8367 51.4667 35.5333 58.2317 35.5333 66.5ZM5.46667 66.5C5.46667 63.3567 6.42333 60.4183 8.13167 57.9583L29.0417 78.8683C26.5817 80.5767 23.6433 81.5333 20.5 81.5333C12.2317 81.5333 5.46667 74.7683 5.46667 66.5Z" fill="white" fill-opacity="0.3"/>
</svg>
