<svg width="23" height="25" viewBox="0 0 23 25" fill="none" xmlns="http://www.w3.org/2000/svg">
<path d="M11.5 0C5.14933 0 0 5.49341 0 12.2684C0 19.0435 5.14933 24.5369 11.5 24.5369C17.8507 24.5369 23 19.0435 23 12.2684C23 5.49341 17.8507 0 11.5 0ZM13.13 10.2912C13.243 10.2912 13.3354 10.3898 13.3354 10.5103V11.2552C13.3354 11.3757 13.243 11.4743 13.13 11.4743H9.63895C9.63125 11.5948 9.63125 11.7235 9.63125 11.8522V12.838H13.1275C13.2404 12.838 13.3328 12.9366 13.3328 13.0571V13.802C13.3328 13.9225 13.2404 14.0211 13.1275 14.0211H9.77757C10.1703 15.7189 11.3511 16.7212 13.1095 16.7212C13.6203 16.7212 14.0618 16.6884 14.4392 16.6089C14.565 16.5816 14.683 16.6856 14.683 16.8225V17.9946C14.683 18.0987 14.6137 18.1863 14.5188 18.2082C14.1106 18.3013 13.6383 18.3479 13.0992 18.3479C10.2807 18.3479 8.40167 16.7376 7.96016 14.0211H7.1875C7.07455 14.0211 6.98214 13.9225 6.98214 13.802V13.0571C6.98214 12.9366 7.07455 12.838 7.1875 12.838H7.85748V11.8275C7.85748 11.707 7.85748 11.5865 7.86518 11.477H7.1875C7.07455 11.477 6.98214 11.3784 6.98214 11.2579V10.5131C6.98214 10.3926 7.07455 10.294 7.1875 10.294H8.00123C8.50692 7.71432 10.3628 6.18899 13.0992 6.18899C13.6357 6.18899 14.1106 6.24102 14.5188 6.33686C14.6137 6.35877 14.6805 6.4464 14.6805 6.55047V7.72254H14.683C14.683 7.8622 14.565 7.96353 14.4366 7.93614C14.0593 7.85673 13.6203 7.81565 13.1095 7.81565C11.4307 7.81565 10.2756 8.73304 9.83404 10.2912H13.13Z" fill="#C25C23"/>
</svg>
