<svg width="24" height="17" viewBox="0 0 24 17" fill="none" xmlns="http://www.w3.org/2000/svg">
<path d="M23.8393 7.89563C23.0716 6.54819 18.8493 -0.213326 11.6761 0.00517866C5.04276 0.175127 1.20429 6.07476 0.160706 7.89563C0.0554256 8.08017 0 8.2895 0 8.50259C0 8.71568 0.0554256 8.92501 0.160706 9.10955C0.916405 10.4327 4.9588 17 12.024 17H12.3239C18.9572 16.8301 22.8077 10.9304 23.8393 9.10955C23.9446 8.92501 24 8.71568 24 8.50259C24 8.2895 23.9446 8.08017 23.8393 7.89563ZM12.2639 14.5722C7.09395 14.6936 3.72329 10.2142 2.66771 8.50259C3.86723 6.54819 6.99799 2.5544 11.7961 2.43301C16.942 2.29948 20.3247 6.79097 21.3923 8.50259C20.1568 10.457 17.062 14.4508 12.2639 14.5722Z" fill="white" fill-opacity="0.5"/>
<path d="M12.0011 4.25391C11.1707 4.25391 10.359 4.50309 9.6686 4.96994C8.97819 5.4368 8.44008 6.10035 8.12232 6.8767C7.80455 7.65305 7.72141 8.50733 7.88341 9.33149C8.0454 10.1557 8.44525 10.9127 9.0324 11.5069C9.61955 12.1011 10.3676 12.5057 11.182 12.6697C11.9964 12.8336 12.8406 12.7495 13.6077 12.4279C14.3748 12.1063 15.0305 11.5618 15.4919 10.8631C15.9532 10.1644 16.1994 9.34293 16.1994 8.50261C16.1994 7.37579 15.7571 6.29511 14.9697 5.49832C14.1824 4.70154 13.1145 4.25391 12.0011 4.25391ZM12.0011 10.3235C11.6452 10.3235 11.2973 10.2167 11.0014 10.0166C10.7055 9.81653 10.4749 9.53215 10.3387 9.19943C10.2026 8.86671 10.1669 8.50059 10.2364 8.14738C10.3058 7.79416 10.4771 7.46971 10.7288 7.21506C10.9804 6.96041 11.301 6.78698 11.65 6.71673C11.9991 6.64647 12.3608 6.68253 12.6896 6.82034C13.0184 6.95816 13.2994 7.19155 13.4971 7.49099C13.6948 7.79043 13.8004 8.14248 13.8004 8.50261C13.8004 8.98554 13.6108 9.44868 13.2734 9.79016C12.9359 10.1316 12.4783 10.3235 12.0011 10.3235Z" fill="white" fill-opacity="0.5"/>
</svg>
