<svg width="8" height="11" viewBox="0 0 8 11" fill="none" xmlns="http://www.w3.org/2000/svg">
<path d="M4.00008 0.00488281C3.30812 0.00488281 2.6317 0.298038 2.05635 0.847278C1.48101 1.39652 1.03258 2.17717 0.767782 3.09053C0.502981 4.00388 0.433697 5.00891 0.568691 5.97852C0.703686 6.94812 1.0369 7.83877 1.52619 8.53782C2.01548 9.23687 2.63887 9.71293 3.31753 9.90579C3.99619 10.0987 4.69965 9.99967 5.33894 9.62135C5.97822 9.24303 6.52463 8.60236 6.90906 7.78037C7.2935 6.95837 7.49869 5.99197 7.49869 5.00336C7.49869 3.67768 7.13008 2.4063 6.47397 1.4689C5.81785 0.531507 4.92797 0.00488281 4.00008 0.00488281ZM4.00008 7.14556C3.70352 7.14556 3.41363 7.01993 3.16705 6.78454C2.92048 6.54915 2.72829 6.21458 2.61481 5.82315C2.50132 5.43171 2.47163 5.00098 2.52948 4.58544C2.58734 4.16989 2.73014 3.78819 2.93984 3.48859C3.14953 3.189 3.4167 2.98497 3.70756 2.90232C3.99841 2.81966 4.29989 2.86208 4.57387 3.02422C4.84785 3.18636 5.08203 3.46093 5.24679 3.81322C5.41154 4.1655 5.49948 4.57967 5.49948 5.00336C5.49948 5.57151 5.34151 6.11639 5.06032 6.51813C4.77912 6.91987 4.39774 7.14556 4.00008 7.14556Z" fill="white" fill-opacity="0.5"/>
</svg>
