<svg width="20" height="20" viewBox="0 0 20 20" fill="none" xmlns="http://www.w3.org/2000/svg">
<path d="M19.8661 9.28898C19.2263 7.70375 15.7077 -0.250972 9.73011 0.00609254C4.2023 0.206032 1.00358 7.14677 0.133921 9.28898C0.046188 9.50608 0 9.75236 0 10.003C0 10.2537 0.046188 10.5 0.133921 10.7171C0.763671 12.2738 4.13233 20 10.02 20H10.2699C15.7977 19.8001 19.0064 12.8593 19.8661 10.7171C19.9538 10.5 20 10.2537 20 10.003C20 9.75236 19.9538 9.50608 19.8661 9.28898ZM10.2199 17.1437C5.91163 17.2865 3.10274 12.0167 2.22309 10.003C3.22269 7.70375 5.83166 3.00518 9.83007 2.86237C14.1184 2.70527 16.9372 7.98937 17.8269 10.003C16.7973 12.3023 14.2183 17.0009 10.2199 17.1437Z" fill="white" fill-opacity="0.5"/>
<path d="M10.0001 5.00488C9.30812 5.00488 8.6317 5.29804 8.05635 5.84728C7.48101 6.39652 7.03258 7.17717 6.76778 8.09053C6.50298 9.00388 6.4337 10.0089 6.56869 10.9785C6.70369 11.9481 7.0369 12.8388 7.52619 13.5378C8.01548 14.2369 8.63887 14.7129 9.31753 14.9058C9.99619 15.0987 10.6996 14.9997 11.3389 14.6214C11.9782 14.243 12.5246 13.6024 12.9091 12.7804C13.2935 11.9584 13.4987 10.992 13.4987 10.0034C13.4987 8.67768 13.1301 7.4063 12.474 6.4689C11.8179 5.53151 10.928 5.00488 10.0001 5.00488ZM10.0001 12.1456C9.70352 12.1456 9.41363 12.0199 9.16705 11.7845C8.92048 11.5492 8.72829 11.2146 8.61481 10.8231C8.50132 10.4317 8.47163 10.001 8.52948 9.58544C8.58734 9.16989 8.73014 8.78819 8.93984 8.48859C9.14953 8.189 9.4167 7.98497 9.70756 7.90232C9.99841 7.81966 10.2999 7.86208 10.5739 8.02422C10.8479 8.18636 11.082 8.46093 11.2468 8.81322C11.4115 9.1655 11.4995 9.57967 11.4995 10.0034C11.4995 10.5715 11.3415 11.1164 11.0603 11.5181C10.7791 11.9199 10.3977 12.1456 10.0001 12.1456Z" fill="white" fill-opacity="0.5"/>
</svg>
