<svg width="23" height="23" viewBox="0 0 23 23" fill="none" xmlns="http://www.w3.org/2000/svg">
<path fill-rule="evenodd" clip-rule="evenodd" d="M18.575 3.06855H3.71498C2.69336 3.06855 1.85748 3.90078 1.85748 4.91795V17.8637C1.85748 18.8809 2.69336 19.7131 3.71498 19.7131H18.575C19.5966 19.7131 20.4325 18.8809 20.4325 17.8637V4.91795C20.4325 3.90078 19.5966 3.06855 18.575 3.06855ZM9.28748 16.0143H4.64373V14.1649H9.28748V16.0143ZM9.28748 12.3155H4.64373V10.4661H9.28748V12.3155ZM9.28748 8.61674H4.64373V6.76735H9.28748V8.61674ZM13.7641 14.1649L11.145 11.5388L12.4545 10.235L13.7641 11.548L16.7082 8.61674L18.027 9.92982L13.7641 14.1649Z" fill="white"/>
</svg>
