<svg width="24" height="20" viewBox="0 0 24 20" fill="none" xmlns="http://www.w3.org/2000/svg">
<path d="M9.0225 7.58252C9.09375 6.37945 9.67125 5.19199 10.6725 4.46546C10.4775 4.0436 10.0763 3.75065 9.6 3.75065H8.4975L9.64875 2.8913C9.91875 2.69209 9.9825 2.30148 9.7875 2.02025L9.43875 1.51245C9.2475 1.23121 8.8725 1.16481 8.6025 1.36793L7.4025 2.26242L7.83375 1.06716C7.95 0.742952 7.7925 0.383591 7.48125 0.262502L6.91875 0.0437609C6.6075 -0.0773281 6.2625 0.0867279 6.14625 0.410934L5.4 2.48116L4.65375 0.407028C4.5375 0.0828218 4.1925 -0.0812342 3.88125 0.0398548L3.31875 0.258596C3.0075 0.379685 2.85 0.742952 2.97 1.06325L3.40125 2.25852L2.1975 1.36793C1.9275 1.16872 1.5525 1.23121 1.36125 1.51245L1.0125 2.02025C0.82125 2.30148 0.88125 2.69209 1.15125 2.8913L2.3025 3.75065H1.2C0.53625 3.75065 0 4.30922 0 5.0006V18.75C0 19.4414 0.53625 20 1.2 20H7.53375C7.3275 19.6289 7.2 19.2071 7.2 18.75V10.0004C7.2 8.83247 7.98 7.85205 9.0225 7.58252ZM8.4 18.75C8.4 19.4414 8.93625 20 9.6 20H15.6V15.0002H8.4V18.75ZM16.8 20H22.8C23.4638 20 24 19.4414 24 18.75V15.0002H16.8V20ZM22.8 8.75045H22.035C22.1325 8.45358 22.2 8.145 22.2 7.8208C22.2 6.43413 21.1875 5.0006 19.4963 5.0006C17.6925 5.0006 16.65 6.8638 16.2 7.94188C15.7463 6.8638 14.7038 5.0006 12.9038 5.0006C11.2125 5.0006 10.2 6.43413 10.2 7.8208C10.2 8.145 10.2638 8.45358 10.365 8.75045H9.6C8.93625 8.75045 8.4 9.30902 8.4 10.0004V13.7502H15.6V8.75045H16.1737L16.2 8.74263L16.2263 8.75045H16.8V13.7502H24V10.0004C24 9.30902 23.4638 8.75045 22.8 8.75045ZM12.6 8.75045C12.4988 8.69576 12.4087 8.63326 12.33 8.56295C12.0562 8.31296 12 8.02391 12 7.8208C12 7.44191 12.24 6.87552 12.9038 6.87552C13.605 6.87552 14.2388 7.94579 14.5725 8.75045H12.6ZM20.07 8.56295C19.9913 8.63326 19.9013 8.69576 19.8 8.75045H17.8275C18.1575 7.95751 18.795 6.87552 19.4963 6.87552C20.16 6.87552 20.4 7.44191 20.4 7.8208C20.4 8.02391 20.3438 8.31296 20.07 8.56295Z" fill="#59595C"/>
</svg>
