<svg width="24" height="24" viewBox="0 0 24 24" fill="none" xmlns="http://www.w3.org/2000/svg">
<path d="M12 2C6.47 2 2 6.47 2 12C2 17.53 6.47 22 12 22C17.53 22 22 17.53 22 12C22 6.47 17.53 2 12 2Z" fill="#BB4BD7" fill-opacity="0.82"/>
<path d="M8.70537 15.3594L5.86534 12.5194C5.54614 12.2002 5.03052 12.2002 4.71132 12.5194C4.39212 12.8386 4.39212 13.3542 4.71132 13.6734L8.13245 17.0945C8.45165 17.4137 8.96727 17.4137 9.28647 17.0945L17.9457 8.43529C18.2649 8.11609 18.2649 7.60046 17.9457 7.28127C17.6265 6.96207 17.1109 6.96207 16.7917 7.28127L8.70537 15.3594Z" fill="white"/>
</svg>
