<svg width="48" height="48" viewBox="0 0 48 48" fill="none" xmlns="http://www.w3.org/2000/svg">
<path d="M24 47C36.7025 47 47 36.7025 47 24C47 11.2975 36.7025 1 24 1C11.2975 1 1 11.2975 1 24C1 36.7025 11.2975 47 24 47Z" stroke="white" stroke-opacity="0.8" stroke-width="1.34408" stroke-linecap="round"/>
<path fill-rule="evenodd" clip-rule="evenodd" d="M26.7042 25.0272L25.7939 24.2717C25.6633 24.1393 25.5275 23.9849 25.3885 23.8078C25.2242 23.6219 25.1423 23.3875 25.1423 23.1049C25.1423 22.8128 25.2221 22.557 25.3823 22.3358C25.5181 22.1241 25.6654 21.9334 25.8255 21.7653C26.1055 21.5178 26.3688 21.2746 26.6172 21.0361C26.8406 20.7976 27.0526 20.537 27.2527 20.2538C27.6602 19.6707 27.8727 18.8931 27.8883 17.9202C27.8883 17.3891 27.9054 17.2314 27.7877 16.8338C27.6446 16.4361 27.4881 16.0547 27.2864 15.8419C27.0759 15.6391 26.5622 15.1211 26.3932 15.016H28.048L29.3673 13.2666H24.0023C23.2905 13.2666 22.5274 13.3512 21.714 13.5188C20.8918 13.7132 20.0992 14.1282 19.3366 14.7649C18.2262 15.8529 17.6715 17.0633 17.6715 18.3977C17.6715 19.5036 18.0629 20.4708 18.8467 21.3019C19.5953 22.1945 20.684 22.6489 22.1122 22.6673C22.3817 22.6673 22.6695 22.6489 22.9743 22.6142C22.9235 22.7561 22.8685 22.9116 22.8105 23.0813C22.7431 23.2404 22.7094 23.4401 22.7094 23.6807C22.7094 24.081 22.7975 24.4235 22.9743 24.7078C23.1251 25.0014 23.2973 25.2772 23.4906 25.5347C22.8654 25.5525 22.0785 25.6319 21.1313 25.7732C20.1754 25.9402 19.2625 26.2759 18.3936 26.7792C17.6196 27.2473 17.0852 27.789 16.7902 28.4068C16.4859 29.0251 16.334 29.5851 16.334 30.0884C16.334 31.1208 16.8016 32.0076 17.7368 32.7483C18.6637 33.5426 20.0665 33.9487 21.9458 33.9666C24.1905 33.9309 25.9075 33.3871 27.0977 32.3359C28.246 31.3188 28.8194 30.1525 28.8194 28.8349C28.8028 27.9061 28.5944 27.1549 28.1926 26.5806C27.7654 26.0127 27.2693 25.4958 26.7042 25.0272ZM23.3641 20.9777C22.98 20.9777 22.6384 20.859 22.3392 20.621C22.0401 20.3841 21.7965 20.0941 21.6072 19.7537C21.2169 19.0224 21.0214 18.3184 21.0214 17.6423C21.0095 17.1301 21.1433 16.6683 21.4222 16.2532C21.7534 15.8576 22.1692 15.6528 22.6695 15.6407C23.0469 15.6528 23.3818 15.7662 23.6726 15.979C23.9572 16.2044 24.1869 16.4965 24.361 16.8563C24.7333 17.6055 24.9194 18.3489 24.9194 19.0859C24.9194 19.2567 24.9064 19.4668 24.8794 19.7164C24.8349 19.9659 24.7338 20.2097 24.5783 20.4471C24.2548 20.7828 23.8504 20.9594 23.3641 20.9777ZM25.2221 31.3115C24.7384 31.7092 24.0381 31.9146 23.1205 31.9277C22.0977 31.9151 21.2921 31.6839 20.7031 31.2348C20.0836 30.7861 19.7736 30.2145 19.7736 29.5216C19.7736 29.1685 19.8452 28.867 19.9877 28.6169C20.1116 28.38 20.2635 28.1809 20.4429 28.0196C20.629 27.8662 20.812 27.7475 20.9919 27.6639C21.1713 27.5872 21.3107 27.5289 21.4097 27.4906C21.8312 27.3629 22.2433 27.2694 22.6467 27.2116C23.0557 27.1732 23.3102 27.1606 23.4087 27.1732C23.5767 27.1732 23.7218 27.179 23.8463 27.1927C24.5715 27.706 25.1039 28.1388 25.445 28.4924C25.7675 28.8638 25.9287 29.3004 25.9287 29.8011C25.9287 30.4163 25.6928 30.9201 25.2221 31.3115Z" fill="white" fill-opacity="0.8"/>
<path d="M32.4339 20.1665V26.2998M29.3672 23.2332H35.5005" stroke="#F316DD" stroke-width="1.34408"/>
</svg>
