<svg width="23" height="23" viewBox="0 0 23 23" fill="none" xmlns="http://www.w3.org/2000/svg">
<path d="M10.2162 16.77H12.0737V14.9206H10.2162V16.77ZM11.145 1.97479C6.01828 1.97479 1.85748 6.11744 1.85748 11.2218C1.85748 16.3261 6.01828 20.4688 11.145 20.4688C16.2717 20.4688 20.4325 16.3261 20.4325 11.2218C20.4325 6.11744 16.2717 1.97479 11.145 1.97479ZM11.145 18.6194C7.0492 18.6194 3.71498 15.2997 3.71498 11.2218C3.71498 7.14386 7.0492 3.82419 11.145 3.82419C15.2408 3.82419 18.575 7.14386 18.575 11.2218C18.575 15.2997 15.2408 18.6194 11.145 18.6194ZM11.145 5.67359C9.09245 5.67359 7.42998 7.3288 7.42998 9.37238H9.28748C9.28748 8.35521 10.1234 7.52299 11.145 7.52299C12.1666 7.52299 13.0025 8.35521 13.0025 9.37238C13.0025 11.2218 10.2162 10.9906 10.2162 13.9959H12.0737C12.0737 11.9153 14.86 11.6841 14.86 9.37238C14.86 7.3288 13.1975 5.67359 11.145 5.67359Z" fill="white"/>
</svg>
