<svg width="19" height="25" viewBox="0 0 19 25" fill="none" xmlns="http://www.w3.org/2000/svg">
<path d="M11.75 0.25235H2.35C1.0575 0.25235 0 1.32116 0 2.62747V21.6285C0 22.9348 1.0575 24.0036 2.35 24.0036H16.45C17.7425 24.0036 18.8 22.9348 18.8 21.6285V7.37772L11.75 0.25235ZM12.925 10.9404H8.225V12.128H11.75C12.3962 12.128 12.925 12.6624 12.925 13.3155V16.8782C12.925 17.5314 12.3962 18.0658 11.75 18.0658H10.575V19.2533H8.225V18.0658H5.875V15.6907H10.575V14.5031H7.05C6.40375 14.5031 5.875 13.9687 5.875 13.3155V9.75284C5.875 9.09968 6.40375 8.56528 7.05 8.56528H8.225V7.37772H10.575V8.56528H12.925V10.9404Z" fill="white"/>
</svg>
