<svg width="20" height="19" viewBox="0 0 20 19" fill="none" xmlns="http://www.w3.org/2000/svg">
<path d="M9.73484 4.9291L3.3336 11.3699V18.3214C3.3336 18.5013 3.39212 18.674 3.4963 18.8012C3.60048 18.9285 3.74178 19 3.88911 19L7.77978 18.9877C7.92663 18.9868 8.06722 18.9149 8.17079 18.7877C8.27437 18.6606 8.33252 18.4885 8.33252 18.3091V14.2495C8.33252 14.0695 8.39104 13.8969 8.49522 13.7696C8.5994 13.6423 8.7407 13.5708 8.88803 13.5708H11.1101C11.2574 13.5708 11.3987 13.6423 11.5029 13.7696C11.6071 13.8969 11.6656 14.0695 11.6656 14.2495V18.3061C11.6654 18.3954 11.6796 18.4839 11.7074 18.5664C11.7352 18.649 11.7761 18.7241 11.8277 18.7873C11.8793 18.8506 11.9406 18.9008 12.0081 18.935C12.0756 18.9692 12.148 18.9869 12.2211 18.9869L16.1104 19C16.2577 19 16.399 18.9285 16.5032 18.8012C16.6074 18.674 16.6659 18.5013 16.6659 18.3214V11.3652L10.266 4.9291C10.1908 4.85501 10.0971 4.81461 10.0004 4.81461C9.90381 4.81461 9.81008 4.85501 9.73484 4.9291ZM19.8462 9.3068L16.9437 6.38395V0.508985C16.9437 0.373994 16.8998 0.244532 16.8216 0.149078C16.7435 0.0536252 16.6375 0 16.527 0H14.5827C14.4722 0 14.3663 0.0536252 14.2881 0.149078C14.21 0.244532 14.1661 0.373994 14.1661 0.508985V3.58877L11.0577 0.464449C10.7593 0.164563 10.385 0.000599477 9.99871 0.000599477C9.61239 0.000599477 9.23807 0.164563 8.93976 0.464449L0.151203 9.3068C0.109015 9.3494 0.0741102 9.40173 0.0484844 9.46082C0.0228586 9.5199 0.00701361 9.58458 0.00185477 9.65115C-0.00330407 9.71772 0.00232436 9.78487 0.0184184 9.84878C0.0345125 9.91269 0.0607569 9.9721 0.0956519 10.0236L0.981 11.3385C1.0158 11.3902 1.0586 11.433 1.10696 11.4645C1.15532 11.4959 1.20828 11.5154 1.26282 11.5218C1.31735 11.5283 1.37239 11.5215 1.42477 11.5019C1.47716 11.4823 1.52587 11.4503 1.56811 11.4076L9.73484 3.19007C9.81008 3.11598 9.90381 3.07557 10.0004 3.07557C10.0971 3.07557 10.1908 3.11598 10.266 3.19007L18.4331 11.4076C18.4753 11.4503 18.5239 11.4823 18.5762 11.502C18.6286 11.5216 18.6835 11.5285 18.738 11.5222C18.7925 11.5159 18.8455 11.4966 18.8938 11.4653C18.9422 11.434 18.985 11.3913 19.0199 11.3398L19.9052 10.0249C19.9401 9.97308 19.9662 9.91336 19.9821 9.84917C19.998 9.78498 20.0034 9.71759 19.9979 9.65086C19.9924 9.58412 19.9762 9.51938 19.9502 9.46033C19.9241 9.40129 19.8888 9.34911 19.8462 9.3068Z" fill="#59595C"/>
</svg>
