<svg width="25" height="22" viewBox="0 0 25 22" fill="none" xmlns="http://www.w3.org/2000/svg">
<path d="M12.1685 5.70738L4.167 13.1651V21.2142C4.167 21.4226 4.24015 21.6225 4.37038 21.7698C4.5006 21.9172 4.67722 22 4.86139 22L9.72473 21.9858C9.90829 21.9847 10.084 21.9015 10.2135 21.7542C10.343 21.607 10.4156 21.4077 10.4156 21.2V16.4994C10.4156 16.291 10.4888 16.0911 10.619 15.9437C10.7493 15.7964 10.9259 15.7136 11.11 15.7136H13.8876C14.0718 15.7136 14.2484 15.7964 14.3786 15.9437C14.5088 16.0911 14.582 16.291 14.582 16.4994V21.1965C14.5817 21.2999 14.5995 21.4024 14.6342 21.498C14.669 21.5936 14.7201 21.6805 14.7846 21.7538C14.8491 21.827 14.9258 21.8851 15.0101 21.9247C15.0945 21.9644 15.185 21.9848 15.2764 21.9848L20.138 22C20.3221 22 20.4988 21.9172 20.629 21.7698C20.7592 21.6225 20.8324 21.4226 20.8324 21.2142V13.1597L12.8326 5.70738C12.7385 5.62159 12.6214 5.57481 12.5006 5.57481C12.3798 5.57481 12.2626 5.62159 12.1685 5.70738ZM24.8078 10.7763L21.1796 7.39194V0.589351C21.1796 0.433046 21.1247 0.283142 21.027 0.172617C20.9294 0.0620923 20.7969 0 20.6588 0H18.2284C18.0903 0 17.9578 0.0620923 17.8602 0.172617C17.7625 0.283142 17.7076 0.433046 17.7076 0.589351V4.15542L13.8221 0.537783C13.4492 0.190547 12.9813 0.000694131 12.4984 0.000694131C12.0155 0.000694131 11.5476 0.190547 11.1747 0.537783L0.189004 10.7763C0.136268 10.8256 0.0926378 10.8862 0.0606055 10.9546C0.0285733 11.023 0.00876702 11.0979 0.00231846 11.175C-0.00413009 11.2521 0.00290544 11.3299 0.0230231 11.4039C0.0431407 11.4779 0.0759461 11.5466 0.119565 11.6063L1.22625 13.1288C1.26975 13.1886 1.32326 13.2382 1.3837 13.2746C1.44415 13.3111 1.51035 13.3336 1.57852 13.3411C1.64669 13.3485 1.71548 13.3407 1.78096 13.318C1.84645 13.2953 1.90733 13.2582 1.96013 13.2088L12.1685 3.69376C12.2626 3.60797 12.3798 3.56119 12.5006 3.56119C12.6214 3.56119 12.7385 3.60797 12.8326 3.69376L23.0414 13.2088C23.0941 13.2582 23.1549 13.2953 23.2203 13.3181C23.2857 13.3409 23.3544 13.3488 23.4225 13.3415C23.4906 13.3342 23.5568 13.3118 23.6173 13.2756C23.6777 13.2393 23.7313 13.1899 23.7749 13.1303L24.8815 11.6078C24.9251 11.5478 24.9578 11.4786 24.9777 11.4043C24.9975 11.33 25.0043 11.2519 24.9974 11.1747C24.9905 11.0974 24.9703 11.0224 24.9377 10.9541C24.9052 10.8857 24.861 10.8253 24.8078 10.7763Z" fill="#D9D9D9"/>
</svg>
