<svg width="39" height="39" viewBox="0 0 39 39" fill="none" xmlns="http://www.w3.org/2000/svg">
<path d="M0 16.9296H39V39H0V16.9296ZM37.0588 18.7023H1.94125V37.2273H37.0588L37.0588 18.7023ZM19.5098 0C27.2041 0.00807423 33.4391 5.70185 33.448 12.7274V18.6136H5.57141V12.7282C5.58025 5.70189 11.8153 0.00811229 19.5088 3.80651e-05L19.5098 0ZM31.5067 16.8409V12.7282C31.5067 6.67769 26.1355 1.77279 19.5098 1.77279C12.884 1.77279 7.51266 6.67765 7.51266 12.7282V16.8409H31.5067ZM19.5098 23.7014C21.0643 23.7014 22.3246 24.8522 22.3246 26.2719C22.3246 27.6915 21.0643 28.8423 19.5098 28.8423C17.9551 28.8423 16.6949 27.6915 16.6949 26.2719C16.6971 24.853 17.9563 23.7033 19.5098 23.7014ZM19.5098 27.0696C19.9922 27.0696 20.3833 26.7124 20.3833 26.2719C20.3833 25.8313 19.9921 25.4741 19.5097 25.4741C19.0273 25.4741 18.6362 25.8313 18.6362 26.2719C18.6373 26.712 19.0278 27.0686 19.5098 27.0696ZM20.4804 33.0437H18.5391V27.9559H20.4804V33.0437Z" fill="white" fill-opacity="0.8"/>
</svg>
