<svg width="23" height="23" viewBox="0 0 23 23" fill="none" xmlns="http://www.w3.org/2000/svg">
<path d="M3.71498 5.65071H1.85748V18.5965C1.85748 19.6137 2.69336 20.4459 3.71498 20.4459H16.7175V18.5965H3.71498V5.65071ZM18.575 1.95192H7.42998C6.40836 1.95192 5.57248 2.78415 5.57248 3.80132V14.8977C5.57248 15.9149 6.40836 16.7471 7.42998 16.7471H18.575C19.5966 16.7471 20.4325 15.9149 20.4325 14.8977V3.80132C20.4325 2.78415 19.5966 1.95192 18.575 1.95192ZM18.575 14.8977H7.42998V3.80132H18.575V14.8977ZM9.28748 8.42481H16.7175V10.2742H9.28748V8.42481ZM9.28748 11.1989H13.0025V13.0483H9.28748V11.1989ZM9.28748 5.65071H16.7175V7.50011H9.28748V5.65071Z" fill="white"/>
</svg>
