<svg width="32" height="32" viewBox="0 0 32 32" fill="none" xmlns="http://www.w3.org/2000/svg">
<g clip-path="url(#clip0_855_39)">
<path d="M16.0001 22.9334C18.3565 22.9334 20.2667 21.0231 20.2667 18.6667C20.2667 16.3103 18.3565 14.4 16.0001 14.4C13.6436 14.4 11.7334 16.3103 11.7334 18.6667C11.7334 21.0231 13.6436 22.9334 16.0001 22.9334Z" fill="white"/>
<path d="M21.3333 4.44002C24.7733 4.44002 27.5599 7.22669 27.5599 10.6667H29.3333C29.3333 6.25335 25.7466 2.66669 21.3333 2.66669V4.44002ZM21.3333 8.00002C22.8133 8.00002 23.9999 9.18669 23.9999 10.6667H25.7733C25.7733 8.21335 23.7866 6.22669 21.3333 6.22669V8.00002Z" fill="white"/>
<path d="M22.6667 12C22.6667 10.52 21.4801 9.33331 20.0001 9.33331V5.33331H12.0001L9.56008 7.99998H5.33341C3.86675 7.99998 2.66675 9.19998 2.66675 10.6666V26.6666C2.66675 28.1333 3.86675 29.3333 5.33341 29.3333H26.6667C28.1334 29.3333 29.3334 28.1333 29.3334 26.6666V12H22.6667ZM16.0001 25.3333C12.3201 25.3333 9.33341 22.3466 9.33341 18.6666C9.33341 14.9866 12.3201 12 16.0001 12C19.6801 12 22.6667 14.9866 22.6667 18.6666C22.6667 22.3466 19.6801 25.3333 16.0001 25.3333Z" fill="white"/>
</g>
<defs>
<clipPath id="clip0_855_39">
<rect width="32" height="32" fill="white"/>
</clipPath>
</defs>
</svg>
