<svg width="22" height="22" viewBox="0 0 22 22" fill="none" xmlns="http://www.w3.org/2000/svg">
<path d="M19.5556 0H2.44444C1.1 0 0 1.1 0 2.44444V19.5556C0 20.9 1.1 22 2.44444 22H19.5556C20.9 22 22 20.9 22 19.5556V2.44444C22 1.1 20.9 0 19.5556 0ZM6.11111 17.1111C5.43889 17.1111 4.88889 16.5611 4.88889 15.8889V9.77778C4.88889 9.10556 5.43889 8.55556 6.11111 8.55556C6.78333 8.55556 7.33333 9.10556 7.33333 9.77778V15.8889C7.33333 16.5611 6.78333 17.1111 6.11111 17.1111ZM11 17.1111C10.3278 17.1111 9.77778 16.5611 9.77778 15.8889V6.11111C9.77778 5.43889 10.3278 4.88889 11 4.88889C11.6722 4.88889 12.2222 5.43889 12.2222 6.11111V15.8889C12.2222 16.5611 11.6722 17.1111 11 17.1111ZM15.8889 17.1111C15.2167 17.1111 14.6667 16.5611 14.6667 15.8889V13.4444C14.6667 12.7722 15.2167 12.2222 15.8889 12.2222C16.5611 12.2222 17.1111 12.7722 17.1111 13.4444V15.8889C17.1111 16.5611 16.5611 17.1111 15.8889 17.1111Z" fill="#D9D9D9"/>
</svg>
