<svg width="150" height="186" viewBox="0 0 150 186" fill="none" xmlns="http://www.w3.org/2000/svg">
<path d="M110.102 50.2181V40.0043C110.102 39.068 109.384 38.302 108.507 38.302H31.9137C31.0361 38.302 30.318 39.068 30.318 40.0043V50.2181C30.318 51.1544 31.0361 51.9205 31.9137 51.9205H108.507C109.384 51.9205 110.102 51.1544 110.102 50.2181ZM31.9137 68.9436C31.0361 68.9436 30.318 69.7096 30.318 70.6459V80.8597C30.318 81.796 31.0361 82.562 31.9137 82.562H68.6145C69.4921 82.562 70.2102 81.796 70.2102 80.8597V70.6459C70.2102 69.7096 69.4921 68.9436 68.6145 68.9436H31.9137ZM60.6361 165.124H14.3612V15.3208H126.059V88.5201C126.059 89.4564 126.777 90.2224 127.655 90.2224H138.825C139.702 90.2224 140.42 89.4564 140.42 88.5201V6.80924C140.42 3.04288 137.568 0 134.038 0H6.38274C2.85229 0 0 3.04288 0 6.80924V173.636C0 177.402 2.85229 180.445 6.38274 180.445H60.6361C61.5137 180.445 62.2317 179.679 62.2317 178.743V166.826C62.2317 165.89 61.5137 165.124 60.6361 165.124ZM149.536 176.083L130.926 156.229C135.374 149.952 138.027 142.122 138.027 133.631C138.027 112.948 122.309 96.1805 102.922 96.1805C83.5341 96.1805 67.8166 112.948 67.8166 133.631C67.8166 154.314 83.5341 171.082 102.922 171.082C110.062 171.082 116.685 168.805 122.23 164.911L141.118 185.062C141.438 185.403 141.837 185.552 142.235 185.552C142.634 185.552 143.053 185.382 143.352 185.062L149.536 178.466C149.683 178.31 149.8 178.124 149.879 177.92C149.959 177.715 150 177.496 150 177.274C150 177.053 149.959 176.834 149.879 176.629C149.8 176.425 149.683 176.239 149.536 176.083ZM102.922 157.464C90.5751 157.464 80.5821 146.803 80.5821 133.631C80.5821 120.46 90.5751 109.799 102.922 109.799C115.268 109.799 125.261 120.46 125.261 133.631C125.261 146.803 115.268 157.464 102.922 157.464Z" fill="#725F7D" fill-opacity="0.5"/>
</svg>
