<svg width="12" height="0" viewBox="0 0 12 10" fill="none" xmlns="http://www.w3.org/2000/svg">
<path d="M0.428571 2.20991H11.5714C11.8081 2.20991 12 2.04079 12 1.83215V0.887765C12 0.679126 11.8081 0.51001 11.5714 0.51001H0.428571C0.191866 0.51001 0 0.679126 0 0.887765V1.83215C0 2.04079 0.191866 2.20991 0.428571 2.20991ZM0.428571 5.98746H11.5714C11.8081 5.98746 12 5.81834 12 5.6097V4.66532C12 4.45668 11.8081 4.28756 11.5714 4.28756H0.428571C0.191866 4.28756 0 4.45668 0 4.66532V5.6097C0 5.81834 0.191866 5.98746 0.428571 5.98746ZM0.428571 9.76501H11.5714C11.8081 9.76501 12 9.59589 12 9.38725V8.44287C12 8.23423 11.8081 8.06511 11.5714 8.06511H0.428571C0.191866 8.06511 0 8.23423 0 8.44287V9.38725C0 9.59589 0.191866 9.76501 0.428571 9.76501Z" fill="white"/>
</svg>
