<svg width="28" height="22" viewBox="0 0 28 22" fill="none" xmlns="http://www.w3.org/2000/svg">
<path d="M27.125 4.71429H4.375C3.89156 4.71429 3.5 4.36268 3.5 3.92857V0.785714C3.5 0.351607 3.89156 0 4.375 0H27.125C27.6084 0 28 0.351607 28 0.785714V3.92857C28 4.36268 27.6084 4.71429 27.125 4.71429ZM0.875 8.64286H23.625C24.1084 8.64286 24.5 8.99446 24.5 9.42857V12.5714C24.5 13.0055 24.1084 13.3571 23.625 13.3571H0.875C0.391563 13.3571 0 13.0055 0 12.5714V9.42857C0 8.99446 0.391563 8.64286 0.875 8.64286ZM4.375 17.2857H27.125C27.6084 17.2857 28 17.6373 28 18.0714V21.2143C28 21.6484 27.6084 22 27.125 22H4.375C3.89156 22 3.5 21.6484 3.5 21.2143V18.0714C3.5 17.6373 3.89156 17.2857 4.375 17.2857Z" fill="#E4E4E4"/>
</svg>
