<svg width="23" height="19" viewBox="0 0 23 19" fill="none" xmlns="http://www.w3.org/2000/svg">
<path d="M22.425 16.2857H21.85C20.9142 16.2857 20.2041 15.9286 19.8343 15.5266C19.5144 15.1784 19.1277 14.9286 18.6925 14.9286H18.1067C17.6715 14.9286 17.2849 15.1784 16.965 15.5266C16.5959 15.9286 15.8858 16.2857 14.95 16.2857C14.0142 16.2857 13.3041 15.9286 12.9343 15.5266C12.6144 15.1784 12.2277 14.9286 11.7925 14.9286H11.2067C10.7715 14.9286 10.3849 15.1784 10.065 15.5266C9.69594 15.9286 8.98581 16.2857 8.05 16.2857C7.11419 16.2857 6.40406 15.9286 6.03427 15.5266C5.71442 15.1784 5.32773 14.9286 4.89253 14.9286H4.30675C3.87155 14.9286 3.48486 15.1784 3.16502 15.5266C2.79594 15.9286 2.08581 16.2857 1.15 16.2857H0.575C0.257312 16.2857 0 16.5894 0 16.9643V18.3214C0 18.6963 0.257312 19 0.575 19H1.15C2.53791 19 3.76337 18.483 4.6 17.6496C5.43663 18.4834 6.66209 19 8.05 19C9.43791 19 10.6634 18.483 11.5 17.6496C12.3366 18.4834 13.5621 19 14.95 19C16.3379 19 17.5634 18.483 18.4 17.6496C19.2366 18.4834 20.4621 19 21.85 19H22.425C22.7427 19 23 18.6963 23 18.3214V16.9643C23 16.5894 22.7427 16.2857 22.425 16.2857ZM8.05 14.9286V10.8571H14.95V14.9286C15.6371 14.9286 16.059 14.6673 16.1859 14.5291C16.5154 14.1703 16.8759 13.9209 17.25 13.7627V4.07143C17.25 3.3233 17.7661 2.71429 18.4 2.71429C19.0339 2.71429 19.55 3.3233 19.55 4.07143V4.75C19.55 5.12491 19.8073 5.42857 20.125 5.42857H21.275C21.5927 5.42857 21.85 5.12491 21.85 4.75V4.07143C21.85 1.82621 20.3025 0 18.4 0C16.4975 0 14.95 1.82621 14.95 4.07143V8.14286H8.05V4.07143C8.05 3.3233 8.56606 2.71429 9.2 2.71429C9.83394 2.71429 10.35 3.3233 10.35 4.07143V4.75C10.35 5.12491 10.6073 5.42857 10.925 5.42857H12.075C12.3927 5.42857 12.65 5.12491 12.65 4.75V4.07143C12.65 1.82621 11.1025 0 9.2 0C7.29747 0 5.75 1.82621 5.75 4.07143V13.7623C6.12411 13.9205 6.48456 14.1703 6.81411 14.5286C6.94097 14.6673 7.36287 14.9286 8.05 14.9286Z" fill="#8B35A0"/>
</svg>
