<svg width="21" height="25" viewBox="0 0 21 25" fill="none" xmlns="http://www.w3.org/2000/svg">
<path d="M10.5 25C12.1556 25 13.4986 23.6011 13.4986 21.875H7.50141C7.50141 23.6011 8.84438 25 10.5 25ZM20.5964 17.6899C19.6908 16.6763 17.9962 15.1514 17.9962 10.1562C17.9962 6.3623 15.4425 3.3252 11.9991 2.58008V1.5625C11.9991 0.699707 11.3278 0 10.5 0C9.67219 0 9.00094 0.699707 9.00094 1.5625V2.58008C5.55751 3.3252 3.00377 6.3623 3.00377 10.1562C3.00377 15.1514 1.30925 16.6763 0.403625 17.6899C0.122376 18.0049 -0.00231133 18.3813 3.24087e-05 18.75C0.00518864 19.5508 0.608468 20.3125 1.50472 20.3125H19.4953C20.3915 20.3125 20.9953 19.5508 21 18.75C21.0023 18.3813 20.8776 18.0044 20.5964 17.6899Z" fill="#E4E4E4"/>
</svg>
