<svg width="32" height="9" viewBox="0 0 32 9" fill="none" xmlns="http://www.w3.org/2000/svg">
<path d="M3.48871 8.12C3.03538 8.12 2.62204 8.04333 2.24871 7.89C1.88204 7.73 1.56538 7.5 1.29871 7.2C1.03871 6.89333 0.835378 6.51667 0.688711 6.07C0.548711 5.61667 0.478711 5.09667 0.478711 4.51C0.478711 3.92333 0.548711 3.40667 0.688711 2.96C0.835378 2.50667 1.03871 2.13 1.29871 1.83C1.56538 1.52333 1.88204 1.29333 2.24871 1.14C2.62204 0.98 3.03538 0.9 3.48871 0.9C3.94204 0.9 4.35204 0.98 4.71871 1.14C5.09204 1.29333 5.40871 1.52333 5.66871 1.83C5.93538 2.13 6.13871 2.50667 6.27871 2.96C6.42538 3.40667 6.49871 3.92333 6.49871 4.51C6.49871 5.09667 6.42538 5.61667 6.27871 6.07C6.13871 6.51667 5.93538 6.89333 5.66871 7.2C5.40871 7.5 5.09204 7.73 4.71871 7.89C4.35204 8.04333 3.94204 8.12 3.48871 8.12ZM3.48871 7.11C3.75538 7.11 3.99871 7.06333 4.21871 6.97C4.44538 6.87667 4.63538 6.74333 4.78871 6.57C4.94871 6.39 5.07204 6.17333 5.15871 5.92C5.24538 5.66667 5.28871 5.38 5.28871 5.06V3.96C5.28871 3.64 5.24538 3.35333 5.15871 3.1C5.07204 2.84667 4.94871 2.63333 4.78871 2.46C4.63538 2.28 4.44538 2.14333 4.21871 2.05C3.99871 1.95667 3.75538 1.91 3.48871 1.91C3.21538 1.91 2.96871 1.95667 2.74871 2.05C2.52871 2.14333 2.33871 2.28 2.17871 2.46C2.02538 2.63333 1.90538 2.84667 1.81871 3.1C1.73204 3.35333 1.68871 3.64 1.68871 3.96V5.06C1.68871 5.38 1.73204 5.66667 1.81871 5.92C1.90538 6.17333 2.02538 6.39 2.17871 6.57C2.33871 6.74333 2.52871 6.87667 2.74871 6.97C2.96871 7.06333 3.21538 7.11 3.48871 7.11ZM8.02785 8V2.8H9.11785V3.8H9.16785C9.24119 3.53333 9.39452 3.3 9.62785 3.1C9.86119 2.9 10.1845 2.8 10.5979 2.8H10.8879V3.85H10.4579C10.0245 3.85 9.69119 3.92 9.45785 4.06C9.23119 4.2 9.11785 4.40667 9.11785 4.68V8H8.02785ZM15.2771 7.14H15.2271C15.1138 7.44667 14.9271 7.68667 14.6671 7.86C14.4138 8.03333 14.1138 8.12 13.7671 8.12C13.1071 8.12 12.5971 7.88333 12.2371 7.41C11.8771 6.93 11.6971 6.26 11.6971 5.4C11.6971 4.54 11.8771 3.87333 12.2371 3.4C12.5971 2.92 13.1071 2.68 13.7671 2.68C14.1138 2.68 14.4138 2.76667 14.6671 2.94C14.9271 3.10667 15.1138 3.34667 15.2271 3.66H15.2771V0.6H16.3671V8H15.2771V7.14ZM14.0971 7.18C14.4305 7.18 14.7105 7.1 14.9371 6.94C15.1638 6.77333 15.2771 6.55667 15.2771 6.29V4.51C15.2771 4.24333 15.1638 4.03 14.9371 3.87C14.7105 3.70333 14.4305 3.62 14.0971 3.62C13.7171 3.62 13.4138 3.74333 13.1871 3.99C12.9605 4.23 12.8471 4.55 12.8471 4.95V5.85C12.8471 6.25 12.9605 6.57333 13.1871 6.82C13.4138 7.06 13.7171 7.18 14.0971 7.18ZM20.1651 8.12C19.7918 8.12 19.4585 8.05667 19.1651 7.93C18.8718 7.80333 18.6218 7.62333 18.4151 7.39C18.2085 7.15 18.0485 6.86333 17.9351 6.53C17.8285 6.19 17.7751 5.81333 17.7751 5.4C17.7751 4.98667 17.8285 4.61333 17.9351 4.28C18.0485 3.94 18.2085 3.65333 18.4151 3.42C18.6218 3.18 18.8718 2.99667 19.1651 2.87C19.4585 2.74333 19.7918 2.68 20.1651 2.68C20.5451 2.68 20.8785 2.74667 21.1651 2.88C21.4585 3.01333 21.7018 3.2 21.8951 3.44C22.0885 3.67333 22.2318 3.94667 22.3251 4.26C22.4251 4.57333 22.4751 4.91 22.4751 5.27V5.68H18.9051V5.85C18.9051 6.25 19.0218 6.58 19.2551 6.84C19.4951 7.09333 19.8351 7.22 20.2751 7.22C20.5951 7.22 20.8651 7.15 21.0851 7.01C21.3051 6.87 21.4918 6.68 21.6451 6.44L22.2851 7.07C22.0918 7.39 21.8118 7.64667 21.4451 7.84C21.0785 8.02667 20.6518 8.12 20.1651 8.12ZM20.1651 3.53C19.9785 3.53 19.8051 3.56333 19.6451 3.63C19.4918 3.69667 19.3585 3.79 19.2451 3.91C19.1385 4.03 19.0551 4.17333 18.9951 4.34C18.9351 4.50667 18.9051 4.69 18.9051 4.89V4.96H21.3251V4.86C21.3251 4.46 21.2218 4.14 21.0151 3.9C20.8085 3.65333 20.5251 3.53 20.1651 3.53ZM23.8818 8V2.8H24.9718V3.8H25.0218C25.0951 3.53333 25.2484 3.3 25.4818 3.1C25.7151 2.9 26.0384 2.8 26.4518 2.8H26.7418V3.85H26.3118C25.8784 3.85 25.5451 3.92 25.3118 4.06C25.0851 4.2 24.9718 4.40667 24.9718 4.68V8H23.8818ZM29.5599 8.12C29.0665 8.12 28.6532 8.03333 28.3199 7.86C27.9865 7.68667 27.6965 7.44667 27.4499 7.14L28.1499 6.5C28.3432 6.73333 28.5565 6.91667 28.7899 7.05C29.0299 7.17667 29.3065 7.24 29.6199 7.24C29.9399 7.24 30.1765 7.18 30.3299 7.06C30.4899 6.93333 30.5699 6.76 30.5699 6.54C30.5699 6.37333 30.5132 6.23333 30.3999 6.12C30.2932 6 30.1032 5.92333 29.8299 5.89L29.3499 5.83C28.8165 5.76333 28.3965 5.61 28.0899 5.37C27.7899 5.12333 27.6399 4.76 27.6399 4.28C27.6399 4.02667 27.6865 3.80333 27.7799 3.61C27.8732 3.41 28.0032 3.24333 28.1699 3.11C28.3432 2.97 28.5465 2.86333 28.7799 2.79C29.0199 2.71667 29.2832 2.68 29.5699 2.68C30.0365 2.68 30.4165 2.75333 30.7099 2.9C31.0099 3.04667 31.2765 3.25 31.5099 3.51L30.8399 4.15C30.7065 3.99 30.5299 3.85333 30.3099 3.74C30.0965 3.62 29.8499 3.56 29.5699 3.56C29.2699 3.56 29.0465 3.62 28.8999 3.74C28.7599 3.86 28.6899 4.01667 28.6899 4.21C28.6899 4.41 28.7532 4.56 28.8799 4.66C29.0065 4.76 29.2099 4.83333 29.4899 4.88L29.9699 4.94C30.5432 5.02667 30.9599 5.19667 31.2199 5.45C31.4865 5.69667 31.6199 6.03 31.6199 6.45C31.6199 6.70333 31.5699 6.93333 31.4699 7.14C31.3765 7.34 31.2399 7.51333 31.0599 7.66C30.8799 7.80667 30.6632 7.92 30.4099 8C30.1565 8.08 29.8732 8.12 29.5599 8.12Z" fill="#444750"/>
<path d="M3.48871 8.12C3.03538 8.12 2.62204 8.04333 2.24871 7.89C1.88204 7.73 1.56538 7.5 1.29871 7.2C1.03871 6.89333 0.835378 6.51667 0.688711 6.07C0.548711 5.61667 0.478711 5.09667 0.478711 4.51C0.478711 3.92333 0.548711 3.40667 0.688711 2.96C0.835378 2.50667 1.03871 2.13 1.29871 1.83C1.56538 1.52333 1.88204 1.29333 2.24871 1.14C2.62204 0.98 3.03538 0.9 3.48871 0.9C3.94204 0.9 4.35204 0.98 4.71871 1.14C5.09204 1.29333 5.40871 1.52333 5.66871 1.83C5.93538 2.13 6.13871 2.50667 6.27871 2.96C6.42538 3.40667 6.49871 3.92333 6.49871 4.51C6.49871 5.09667 6.42538 5.61667 6.27871 6.07C6.13871 6.51667 5.93538 6.89333 5.66871 7.2C5.40871 7.5 5.09204 7.73 4.71871 7.89C4.35204 8.04333 3.94204 8.12 3.48871 8.12ZM3.48871 7.11C3.75538 7.11 3.99871 7.06333 4.21871 6.97C4.44538 6.87667 4.63538 6.74333 4.78871 6.57C4.94871 6.39 5.07204 6.17333 5.15871 5.92C5.24538 5.66667 5.28871 5.38 5.28871 5.06V3.96C5.28871 3.64 5.24538 3.35333 5.15871 3.1C5.07204 2.84667 4.94871 2.63333 4.78871 2.46C4.63538 2.28 4.44538 2.14333 4.21871 2.05C3.99871 1.95667 3.75538 1.91 3.48871 1.91C3.21538 1.91 2.96871 1.95667 2.74871 2.05C2.52871 2.14333 2.33871 2.28 2.17871 2.46C2.02538 2.63333 1.90538 2.84667 1.81871 3.1C1.73204 3.35333 1.68871 3.64 1.68871 3.96V5.06C1.68871 5.38 1.73204 5.66667 1.81871 5.92C1.90538 6.17333 2.02538 6.39 2.17871 6.57C2.33871 6.74333 2.52871 6.87667 2.74871 6.97C2.96871 7.06333 3.21538 7.11 3.48871 7.11ZM8.02785 8V2.8H9.11785V3.8H9.16785C9.24119 3.53333 9.39452 3.3 9.62785 3.1C9.86119 2.9 10.1845 2.8 10.5979 2.8H10.8879V3.85H10.4579C10.0245 3.85 9.69119 3.92 9.45785 4.06C9.23119 4.2 9.11785 4.40667 9.11785 4.68V8H8.02785ZM15.2771 7.14H15.2271C15.1138 7.44667 14.9271 7.68667 14.6671 7.86C14.4138 8.03333 14.1138 8.12 13.7671 8.12C13.1071 8.12 12.5971 7.88333 12.2371 7.41C11.8771 6.93 11.6971 6.26 11.6971 5.4C11.6971 4.54 11.8771 3.87333 12.2371 3.4C12.5971 2.92 13.1071 2.68 13.7671 2.68C14.1138 2.68 14.4138 2.76667 14.6671 2.94C14.9271 3.10667 15.1138 3.34667 15.2271 3.66H15.2771V0.6H16.3671V8H15.2771V7.14ZM14.0971 7.18C14.4305 7.18 14.7105 7.1 14.9371 6.94C15.1638 6.77333 15.2771 6.55667 15.2771 6.29V4.51C15.2771 4.24333 15.1638 4.03 14.9371 3.87C14.7105 3.70333 14.4305 3.62 14.0971 3.62C13.7171 3.62 13.4138 3.74333 13.1871 3.99C12.9605 4.23 12.8471 4.55 12.8471 4.95V5.85C12.8471 6.25 12.9605 6.57333 13.1871 6.82C13.4138 7.06 13.7171 7.18 14.0971 7.18ZM20.1651 8.12C19.7918 8.12 19.4585 8.05667 19.1651 7.93C18.8718 7.80333 18.6218 7.62333 18.4151 7.39C18.2085 7.15 18.0485 6.86333 17.9351 6.53C17.8285 6.19 17.7751 5.81333 17.7751 5.4C17.7751 4.98667 17.8285 4.61333 17.9351 4.28C18.0485 3.94 18.2085 3.65333 18.4151 3.42C18.6218 3.18 18.8718 2.99667 19.1651 2.87C19.4585 2.74333 19.7918 2.68 20.1651 2.68C20.5451 2.68 20.8785 2.74667 21.1651 2.88C21.4585 3.01333 21.7018 3.2 21.8951 3.44C22.0885 3.67333 22.2318 3.94667 22.3251 4.26C22.4251 4.57333 22.4751 4.91 22.4751 5.27V5.68H18.9051V5.85C18.9051 6.25 19.0218 6.58 19.2551 6.84C19.4951 7.09333 19.8351 7.22 20.2751 7.22C20.5951 7.22 20.8651 7.15 21.0851 7.01C21.3051 6.87 21.4918 6.68 21.6451 6.44L22.2851 7.07C22.0918 7.39 21.8118 7.64667 21.4451 7.84C21.0785 8.02667 20.6518 8.12 20.1651 8.12ZM20.1651 3.53C19.9785 3.53 19.8051 3.56333 19.6451 3.63C19.4918 3.69667 19.3585 3.79 19.2451 3.91C19.1385 4.03 19.0551 4.17333 18.9951 4.34C18.9351 4.50667 18.9051 4.69 18.9051 4.89V4.96H21.3251V4.86C21.3251 4.46 21.2218 4.14 21.0151 3.9C20.8085 3.65333 20.5251 3.53 20.1651 3.53ZM23.8818 8V2.8H24.9718V3.8H25.0218C25.0951 3.53333 25.2484 3.3 25.4818 3.1C25.7151 2.9 26.0384 2.8 26.4518 2.8H26.7418V3.85H26.3118C25.8784 3.85 25.5451 3.92 25.3118 4.06C25.0851 4.2 24.9718 4.40667 24.9718 4.68V8H23.8818ZM29.5599 8.12C29.0665 8.12 28.6532 8.03333 28.3199 7.86C27.9865 7.68667 27.6965 7.44667 27.4499 7.14L28.1499 6.5C28.3432 6.73333 28.5565 6.91667 28.7899 7.05C29.0299 7.17667 29.3065 7.24 29.6199 7.24C29.9399 7.24 30.1765 7.18 30.3299 7.06C30.4899 6.93333 30.5699 6.76 30.5699 6.54C30.5699 6.37333 30.5132 6.23333 30.3999 6.12C30.2932 6 30.1032 5.92333 29.8299 5.89L29.3499 5.83C28.8165 5.76333 28.3965 5.61 28.0899 5.37C27.7899 5.12333 27.6399 4.76 27.6399 4.28C27.6399 4.02667 27.6865 3.80333 27.7799 3.61C27.8732 3.41 28.0032 3.24333 28.1699 3.11C28.3432 2.97 28.5465 2.86333 28.7799 2.79C29.0199 2.71667 29.2832 2.68 29.5699 2.68C30.0365 2.68 30.4165 2.75333 30.7099 2.9C31.0099 3.04667 31.2765 3.25 31.5099 3.51L30.8399 4.15C30.7065 3.99 30.5299 3.85333 30.3099 3.74C30.0965 3.62 29.8499 3.56 29.5699 3.56C29.2699 3.56 29.0465 3.62 28.8999 3.74C28.7599 3.86 28.6899 4.01667 28.6899 4.21C28.6899 4.41 28.7532 4.56 28.8799 4.66C29.0065 4.76 29.2099 4.83333 29.4899 4.88L29.9699 4.94C30.5432 5.02667 30.9599 5.19667 31.2199 5.45C31.4865 5.69667 31.6199 6.03 31.6199 6.45C31.6199 6.70333 31.5699 6.93333 31.4699 7.14C31.3765 7.34 31.2399 7.51333 31.0599 7.66C30.8799 7.80667 30.6632 7.92 30.4099 8C30.1565 8.08 29.8732 8.12 29.5599 8.12Z" fill="#725F7D"/>
</svg>
