<svg width="23" height="23" viewBox="0 0 23 23" fill="none" xmlns="http://www.w3.org/2000/svg">
<path d="M17.7064 18.4263C19.1236 18.4263 20.2733 17.1093 20.2733 15.486C20.2733 13.8627 19.1236 12.5457 17.7064 12.5457C16.2892 12.5457 15.1394 13.8627 15.1394 15.486C15.1394 17.1093 16.2892 18.4263 17.7064 18.4263ZM19.9881 19.0797H19.0059C18.6102 19.288 18.1699 19.4064 17.7064 19.4064C17.2429 19.4064 16.8044 19.288 16.4068 19.0797H15.4246C14.1643 19.0797 13.1429 20.2498 13.1429 21.6934V22.0201C13.1429 22.5612 13.5261 23.0002 13.9985 23.0002H21.4142C21.8866 23.0002 22.2699 22.5612 22.2699 22.0201V21.6934C22.2699 20.2498 21.2484 19.0797 19.9881 19.0797Z" fill="#B58745"/>
<path d="M4.56349 5.88068C5.98067 5.88068 7.13046 4.56365 7.13046 2.94034C7.13046 1.31703 5.98067 0 4.56349 0C3.14631 0 1.99653 1.31703 1.99653 2.94034C1.99653 4.56365 3.14631 5.88068 4.56349 5.88068ZM6.84524 6.53409H5.86302C5.46728 6.74236 5.02697 6.8608 4.56349 6.8608C4.10001 6.8608 3.66149 6.74236 3.26397 6.53409H2.28175C1.02144 6.53409 0 7.7041 0 9.14773V9.47443C0 10.0155 0.383262 10.4545 0.855655 10.4545H8.27133C8.74372 10.4545 9.12698 10.0155 9.12698 9.47443V9.14773C9.12698 7.7041 8.10555 6.53409 6.84524 6.53409Z" fill="#B58745"/>
<ellipse cx="5.47619" cy="17.7729" rx="5.47619" ry="5.22727" fill="#B58745"/>
<rect width="4.95323" height="4.89109" transform="matrix(0.735764 -0.677238 0.710687 0.703508 2.00012 17.991)" fill="black"/>
<ellipse cx="17.5238" cy="5.22727" rx="5.47619" ry="5.22727" fill="#B58745"/>
<rect width="4.95323" height="4.89109" transform="matrix(0.735764 -0.677238 0.710687 0.703508 14.0478 5.44531)" fill="black"/>
</svg>
