<svg width="20" height="20" viewBox="0 0 20 20" fill="none" xmlns="http://www.w3.org/2000/svg">
<circle cx="10" cy="10" r="10" fill="#59595C"/>
<path d="M10.6458 16.0728V3.3455H11.4611V16.0728H10.6458ZM12.8084 7.5465C12.7686 7.14546 12.5979 6.8339 12.2963 6.61184C11.9947 6.38977 11.5854 6.27874 11.0683 6.27874C10.717 6.27874 10.4204 6.32846 10.1784 6.42789C9.93648 6.52401 9.75088 6.65824 9.62162 6.83059C9.49567 7.00294 9.4327 7.19849 9.4327 7.41724C9.42607 7.59953 9.46418 7.75862 9.54704 7.89451C9.63322 8.0304 9.75088 8.14806 9.90002 8.24749C10.0492 8.34361 10.2215 8.42813 10.4171 8.50104C10.6126 8.57065 10.8214 8.6303 11.0435 8.68002L11.9583 8.89877C12.4024 8.9982 12.8101 9.13078 13.1813 9.2965C13.5525 9.46222 13.874 9.66605 14.1458 9.908C14.4175 10.15 14.628 10.435 14.7772 10.7631C14.9296 11.0912 15.0075 11.4674 15.0108 11.8917C15.0075 12.5148 14.8484 13.055 14.5335 13.5124C14.222 13.9665 13.7712 14.3195 13.1813 14.5714C12.5946 14.8199 11.887 14.9442 11.0584 14.9442C10.2364 14.9442 9.52053 14.8183 8.91068 14.5664C8.30414 14.3145 7.83019 13.9416 7.4888 13.4478C7.15073 12.9506 6.97341 12.3358 6.95684 11.6033H9.03994C9.06314 11.9447 9.16091 12.2297 9.33326 12.4584C9.50893 12.6838 9.74259 12.8545 10.0343 12.9705C10.3292 13.0832 10.6623 13.1395 11.0335 13.1395C11.3981 13.1395 11.7147 13.0865 11.9831 12.9804C12.2549 12.8744 12.4654 12.7269 12.6145 12.538C12.7637 12.3491 12.8382 12.132 12.8382 11.8867C12.8382 11.658 12.7703 11.4658 12.6344 11.31C12.5018 11.1542 12.3063 11.0216 12.0478 10.9123C11.7925 10.8029 11.4793 10.7035 11.1081 10.614L9.99946 10.3356C9.14103 10.1268 8.46323 9.80029 7.96608 9.35616C7.46892 8.91203 7.22199 8.31378 7.22531 7.56141C7.22199 6.94493 7.38606 6.40635 7.7175 5.94565C8.05225 5.48494 8.51129 5.12533 9.09463 4.86681C9.67796 4.60829 10.3408 4.47903 11.0833 4.47903C11.8389 4.47903 12.4985 4.60829 13.062 4.86681C13.6287 5.12533 14.0695 5.48494 14.3844 5.94565C14.6993 6.40635 14.8617 6.93996 14.8716 7.5465H12.8084Z" fill="black"/>
</svg>
