<svg width="22" height="20" viewBox="0 0 22 20" fill="none" xmlns="http://www.w3.org/2000/svg">
<path d="M16.686 15.9152C18.0215 15.9152 19.105 14.7933 19.105 13.4105C19.105 12.0276 18.0215 10.9057 16.686 10.9057C15.3505 10.9057 14.267 12.0276 14.267 13.4105C14.267 14.7933 15.3505 15.9152 16.686 15.9152ZM18.8362 16.4718H17.9106C17.5377 16.6492 17.1227 16.7501 16.686 16.7501C16.2492 16.7501 15.836 16.6492 15.4613 16.4718H14.5357C13.3481 16.4718 12.3855 17.4685 12.3855 18.6982V18.9765C12.3855 19.4375 12.7467 19.8115 13.1918 19.8115H20.1801C20.6253 19.8115 20.9865 19.4375 20.9865 18.9765V18.6982C20.9865 17.4685 20.0239 16.4718 18.8362 16.4718Z" fill="#BB4BD7" fill-opacity="0.63"/>
<path d="M4.30048 5.00947C5.63598 5.00947 6.7195 3.88756 6.7195 2.50474C6.7195 1.12191 5.63598 0 4.30048 0C2.96498 0 1.88146 1.12191 1.88146 2.50474C1.88146 3.88756 2.96498 5.00947 4.30048 5.00947ZM6.45072 5.56608H5.52511C5.15218 5.7435 4.73725 5.84438 4.30048 5.84438C3.86371 5.84438 3.45046 5.7435 3.07585 5.56608H2.15024C0.962568 5.56608 0 6.56276 0 7.79251V8.07082C0 8.53176 0.361173 8.90573 0.80634 8.90573H7.79462C8.23979 8.90573 8.60096 8.53176 8.60096 8.07082V7.79251C8.60096 6.56276 7.63839 5.56608 6.45072 5.56608Z" fill="#BB4BD7" fill-opacity="0.63"/>
<ellipse cx="5.16058" cy="15.3586" rx="5.16058" ry="4.45286" fill="#BB4BD7" fill-opacity="0.63"/>
<rect width="4.46772" height="4.39567" transform="matrix(0.768708 -0.6396 0.745211 0.666829 1.88477 15.5443)" fill="black"/>
<ellipse cx="16.5138" cy="4.45286" rx="5.16058" ry="4.45286" fill="#BB4BD7" fill-opacity="0.63"/>
<rect width="4.46772" height="4.39567" transform="matrix(0.768708 -0.6396 0.745211 0.666829 13.2383 4.63865)" fill="black"/>
</svg>
