<svg width="19" height="20" viewBox="0 0 19 20" fill="none" xmlns="http://www.w3.org/2000/svg">
<path d="M13.721 0.266172L3.53912 10.4481C3.43891 10.5477 3.36354 10.6694 3.31912 10.8035L1.86456 15.1672C1.81904 15.3039 1.80665 15.4494 1.82841 15.5918C1.85017 15.7342 1.90545 15.8694 1.98971 15.9862C2.07396 16.1031 2.18478 16.1982 2.31302 16.2638C2.44126 16.3294 2.58325 16.3636 2.7273 16.3636C2.82491 16.3635 2.92187 16.3478 3.01457 16.3172L7.37825 14.8627C7.51213 14.8178 7.6338 14.7425 7.73371 14.6427L17.9156 4.46076C18.0861 4.29028 18.1818 4.05909 18.1818 3.81802C18.1818 3.57696 18.0861 3.34577 17.9156 3.17529L15.0065 0.266172C14.836 0.0957422 14.6048 0 14.3638 0C14.1227 0 13.8915 0.0957422 13.721 0.266172ZM6.60006 13.2054L4.16459 14.0172L4.97641 11.5817L14.3638 2.19437L15.9874 3.81802L6.60006 13.2054ZM0.9091 18.1818H16.3638C16.6049 18.1818 16.8361 18.2776 17.0066 18.4481C17.1771 18.6186 17.2729 18.8498 17.2729 19.0909C17.2729 19.332 17.1771 19.5632 17.0066 19.7337C16.8361 19.9042 16.6049 20 16.3638 20H0.9091C0.667991 20 0.436758 19.9042 0.266269 19.7337C0.0957798 19.5632 0 19.332 0 19.0909C0 18.8498 0.0957798 18.6186 0.266269 18.4481C0.436758 18.2776 0.667991 18.1818 0.9091 18.1818Z" fill="#F316DD"/>
</svg>
