<svg width="31" height="50" viewBox="0 0 31 50" fill="none" xmlns="http://www.w3.org/2000/svg">
<path d="M24.8 0C28.0686 0 30.7463 2.54962 30.983 5.78355L31 6.25V43.75C31 47.045 28.4709 49.7443 25.2627 49.9829L24.8 50H6.2C2.93148 50 0.253687 47.4505 0.0170052 44.2165L0 43.75V6.25C0 2.95512 2.52922 0.255734 5.73729 0.017143L6.2 0H24.8ZM24.8 3.125H6.2C4.61022 3.125 3.29993 4.33139 3.12086 5.88556L3.1 6.25V43.75C3.1 45.3527 4.29674 46.6735 5.83848 46.854L6.2 46.875H24.8C26.3898 46.875 27.7001 45.6687 27.8791 44.1145L27.9 43.75V6.25C27.9 4.6474 26.7033 3.32654 25.1615 3.14602L24.8 3.125ZM18.6 37.5C19.4559 37.5 20.15 38.1997 20.15 39.0625C20.15 39.8294 19.6016 40.4675 18.8786 40.5998L18.6 40.625H12.4C11.544 40.625 10.85 39.9253 10.85 39.0625C10.85 38.2956 11.3983 37.6575 12.1214 37.5252L12.4 37.5H18.6Z" fill="white" fill-opacity="0.8"/>
</svg>
