<svg width="115" height="112" viewBox="0 0 115 112" fill="none" xmlns="http://www.w3.org/2000/svg">
<path d="M60.6968 14.4516V0C99.4271 0 112.482 35.1656 114.168 52.7484H99.7161C96.1032 24.5677 71.7763 15.8968 60.6968 14.4516Z" fill="#EFBD53"/>
<path d="M98.9935 57.8066H113.445C113.445 96.537 78.2795 109.592 60.6967 111.278V96.826C88.8773 93.2131 97.5483 68.8862 98.9935 57.8066Z" fill="#E9694B"/>
<path d="M53.4709 97.5484V112C14.7406 112 1.686 76.8344 -1.90735e-05 59.2516H14.4516C18.0645 87.4323 42.3914 96.1032 53.4709 97.5484Z" fill="#49A17B"/>
<path d="M14.4516 53.4712H0C0 14.7409 35.1656 1.68625 52.7484 0.000225067V14.4518C24.5677 18.0647 15.8968 42.3916 14.4516 53.4712Z" fill="#466ED2"/>
</svg>
