<svg width="23" height="19" viewBox="0 0 25 25" fill="none" xmlns="http://www.w3.org/2000/svg">
<path d="M24.2552 14.0625H13.3503L20.6127 21.7789C20.8903 22.0738 21.3471 22.0977 21.6325 21.8121C23.4109 20.0318 24.6343 17.6318 24.9932 14.9341C25.0548 14.4721 24.694 14.0625 24.2552 14.0625ZM23.5277 10.8984C23.149 5.0653 18.762 0.404114 13.2722 0.00176565C12.853 -0.0289964 12.5001 0.346496 12.5001 0.79279V11.7187H22.7836C23.2037 11.7187 23.5566 11.3437 23.5277 10.8984ZM10.2942 14.0625V2.47591C10.2942 2.0096 9.90865 1.6263 9.47437 1.69173C3.9978 2.514 -0.188319 7.59755 0.00653426 13.6899C0.206902 19.9468 5.27721 25.0777 11.1688 24.9991C13.4849 24.9683 15.6251 24.1754 17.3848 22.8492C17.7478 22.5757 17.7717 22.0079 17.4569 21.6734L10.2942 14.0625Z" fill="#8B35A0"/>
</svg>
