<svg width="20" height="23" viewBox="0 0 20 23" fill="none" xmlns="http://www.w3.org/2000/svg">
<path d="M9.78503 13.0227C12.7454 13.0227 15.1472 10.2834 15.1472 6.90699C15.1472 3.5306 12.7454 0.79126 9.78503 0.79126C6.82468 0.79126 4.42288 3.5306 4.42288 6.90699C4.42288 10.2834 6.82468 13.0227 9.78503 13.0227ZM14.5514 14.3818H12.4996C11.673 14.815 10.7532 15.0613 9.78503 15.0613C8.81686 15.0613 7.90083 14.815 7.07044 14.3818H5.01867C2.38601 14.3818 0.252319 16.8153 0.252319 19.818V20.4975C0.252319 21.623 1.05292 22.5361 2.0397 22.5361H17.5304C18.5171 22.5361 19.3177 21.623 19.3177 20.4975V19.818C19.3177 16.8153 17.1841 14.3818 14.5514 14.3818Z" fill="url(#paint0_linear_1178_30)"/>
<defs>
<linearGradient id="paint0_linear_1178_30" x1="9.78503" y1="0.79126" x2="9.78503" y2="22.5361" gradientUnits="userSpaceOnUse">
<stop offset="0.445147" stop-color="#B58745"/>
<stop offset="0.679535" stop-color="#59595C"/>
</linearGradient>
</defs>
</svg>
