<svg width="20" height="20" viewBox="0 0 20 20" fill="none" xmlns="http://www.w3.org/2000/svg">
<path d="M1.25 18.5714C1.25 19.3616 1.80859 20 2.5 20H8.75V12.8571H1.25V18.5714ZM11.25 20H17.5C18.1914 20 18.75 19.3616 18.75 18.5714V12.8571H11.25V20ZM18.75 5.71429H17.1055C17.3477 5.17411 17.5 4.57589 17.5 3.92857C17.5 1.76339 15.957 0 14.0625 0C12.4375 0 11.3867 0.950893 10.0391 3.04911C8.69141 0.950893 7.64062 0 6.01562 0C4.12109 0 2.57812 1.76339 2.57812 3.92857C2.57812 4.57589 2.72656 5.17411 2.97266 5.71429H1.25C0.558594 5.71429 0 6.35268 0 7.14286V10.7143C0 11.1071 0.28125 11.4286 0.625 11.4286H19.375C19.7188 11.4286 20 11.1071 20 10.7143V7.14286C20 6.35268 19.4414 5.71429 18.75 5.71429ZM6.01172 5.71429C5.14844 5.71429 4.44922 4.91518 4.44922 3.92857C4.44922 2.94196 5.14844 2.14286 6.01172 2.14286C6.78906 2.14286 7.36328 2.29018 9.375 5.71429H6.01172ZM14.0625 5.71429H10.6992C12.707 2.29911 13.2656 2.14286 14.0625 2.14286C14.9258 2.14286 15.625 2.94196 15.625 3.92857C15.625 4.91518 14.9258 5.71429 14.0625 5.71429Z" fill="#00941D"/>
</svg>
