<svg width="21" height="20" viewBox="0 0 21 20" fill="none" xmlns="http://www.w3.org/2000/svg">
<path d="M8.33333 11.25C10.9212 11.25 13.0208 8.73047 13.0208 5.625C13.0208 2.51953 10.9212 0 8.33333 0C5.74544 0 3.64583 2.51953 3.64583 5.625C3.64583 8.73047 5.74544 11.25 8.33333 11.25ZM12.5 12.5H10.7064C9.98372 12.8984 9.17969 13.125 8.33333 13.125C7.48698 13.125 6.6862 12.8984 5.96029 12.5H4.16667C1.86523 12.5 0 14.7383 0 17.5V18.125C0 19.1602 0.69987 20 1.5625 20H15.1042C15.9668 20 16.6667 19.1602 16.6667 18.125V17.5C16.6667 14.7383 14.8014 12.5 12.5 12.5Z" fill="#59595C"/>
<path d="M15.3289 11.066V7.62795H12.1429V5.77395H15.3289V2.31795H17.3449V5.77395H20.5309V7.62795H17.3449V11.066H15.3289Z" fill="#59595C"/>
</svg>
