<svg width="35" height="35" viewBox="0 0 35 35" fill="none" xmlns="http://www.w3.org/2000/svg">
<path d="M22.6046 20.4167H21.4525L21.0442 20.0229C22.7942 17.9812 23.6983 15.1958 23.2025 12.2354C22.5171 8.18125 19.1338 4.94375 15.0504 4.44791C8.88167 3.68958 3.69001 8.88125 4.44834 15.05C4.94417 19.1333 8.18167 22.5167 12.2358 23.2021C15.1963 23.6979 17.9817 22.7937 20.0233 21.0437L20.4171 21.4521V22.6042L26.615 28.8021C27.2129 29.4 28.19 29.4 28.7879 28.8021C29.3858 28.2042 29.3858 27.2271 28.7879 26.6292L22.6046 20.4167ZM13.8546 20.4167C10.2233 20.4167 7.29209 17.4854 7.29209 13.8542C7.29209 10.2229 10.2233 7.29166 13.8546 7.29166C17.4858 7.29166 20.4171 10.2229 20.4171 13.8542C20.4171 17.4854 17.4858 20.4167 13.8546 20.4167Z" fill="#B6B6B6" fill-opacity="0.77"/>
</svg>
