<svg width="25" height="27" viewBox="0 0 25 27" fill="none" xmlns="http://www.w3.org/2000/svg">
<path d="M13.6329 8.78329C13.2349 8.78329 12.9153 8.66871 12.674 8.43955C12.4328 8.2104 12.3122 7.92093 12.3122 7.57116C12.3122 7.08872 12.4931 6.67865 12.855 6.34094C13.2288 5.99118 13.663 5.81629 14.1575 5.81629C14.5435 5.81629 14.8571 5.93087 15.0983 6.16003C15.3395 6.38919 15.4601 6.67865 15.4601 7.02842C15.4601 7.51086 15.2792 7.92696 14.9174 8.27673C14.5556 8.61444 14.1274 8.78329 13.6329 8.78329ZM14.6822 9.97733L12.9092 20H10.3583L12.1313 9.97733H14.6822Z" fill="#999999"/>
<circle cx="12.061" cy="14.0707" r="11.0559" stroke="#999999" stroke-width="2.01016"/>
</svg>
