<svg width="27" height="27" viewBox="0 0 27 27" fill="none" xmlns="http://www.w3.org/2000/svg">
<g clip-path="url(#clip0_2_91)">
<path d="M21.5325 14.5575C21.5775 14.22 21.6 13.8712 21.6 13.5C21.6 13.14 21.5775 12.78 21.5213 12.4425L23.805 10.665C24.0075 10.5075 24.0638 10.2037 23.94 9.97875L21.78 6.24375C21.645 5.99625 21.3638 5.9175 21.1163 5.99625L18.4275 7.07625C17.865 6.64875 17.2688 6.28875 16.605 6.01875L16.2 3.16125C16.155 2.89125 15.93 2.7 15.66 2.7H11.34C11.07 2.7 10.8563 2.89125 10.8113 3.16125L10.4063 6.01875C9.7425 6.28875 9.135 6.66 8.58375 7.07625L5.895 5.99625C5.6475 5.90625 5.36625 5.99625 5.23125 6.24375L3.0825 9.97875C2.9475 10.215 2.9925 10.5075 3.2175 10.665L5.50125 12.4425C5.445 12.78 5.4 13.1512 5.4 13.5C5.4 13.8487 5.4225 14.22 5.47875 14.5575L3.195 16.335C2.9925 16.4925 2.93625 16.7962 3.06 17.0212L5.22 20.7562C5.355 21.0037 5.63625 21.0825 5.88375 21.0037L8.5725 19.9237C9.135 20.3512 9.73125 20.7112 10.395 20.9812L10.8 23.8387C10.8563 24.1087 11.07 24.3 11.34 24.3H15.66C15.93 24.3 16.155 24.1087 16.1888 23.8387L16.5938 20.9812C17.2575 20.7112 17.865 20.3512 18.4163 19.9237L21.105 21.0037C21.3525 21.0937 21.6338 21.0037 21.7688 20.7562L23.9288 17.0212C24.0638 16.7737 24.0075 16.4925 23.7938 16.335L21.5325 14.5575ZM13.5 17.55C11.2725 17.55 9.45 15.7275 9.45 13.5C9.45 11.2725 11.2725 9.45 13.5 9.45C15.7275 9.45 17.55 11.2725 17.55 13.5C17.55 15.7275 15.7275 17.55 13.5 17.55Z" fill="white"/>
</g>
<defs>
<clipPath id="clip0_2_91">
<rect width="27" height="27" fill="white"/>
</clipPath>
</defs>
</svg>
