<svg width="20" height="20" viewBox="0 0 20 20" fill="none" xmlns="http://www.w3.org/2000/svg">
<path d="M15.7143 12.5C14.705 12.5 13.7774 12.8054 13.0451 13.3162L8.46982 10.8141C8.60531 10.2778 8.60531 9.72213 8.46982 9.18586L13.0451 6.68375C13.7774 7.19457 14.705 7.5 15.7143 7.5C18.0812 7.5 20 5.82105 20 3.75C20 1.67895 18.0812 0 15.7143 0C13.3474 0 11.4286 1.67895 11.4286 3.75C11.4286 4.02961 11.4638 4.30195 11.5302 4.5641L6.95491 7.06621C6.22263 6.55543 5.295 6.25 4.28571 6.25C1.91879 6.25 0 7.92895 0 10C0 12.0711 1.91879 13.75 4.28571 13.75C5.295 13.75 6.22263 13.4446 6.95491 12.9338L11.5302 15.4359C11.4626 15.7032 11.4285 15.9762 11.4286 16.25C11.4286 18.3211 13.3474 20 15.7143 20C18.0812 20 20 18.3211 20 16.25C20 14.1789 18.0812 12.5 15.7143 12.5Z" fill="#59595C"/>
</svg>
