<svg width="24" height="9" viewBox="0 0 24 9" fill="none" xmlns="http://www.w3.org/2000/svg">
<path d="M6.804 0.576V2.22H4.572V9H2.52V2.22H0.288V0.576H6.804ZM12.2498 9L10.4978 5.82H10.0058V9H7.95384V0.576H11.3978C12.0618 0.576 12.6258 0.692 13.0898 0.924C13.5618 1.156 13.9138 1.476 14.1458 1.884C14.3778 2.284 14.4938 2.732 14.4938 3.228C14.4938 3.788 14.3338 4.288 14.0138 4.728C13.7018 5.168 13.2378 5.48 12.6218 5.664L14.5658 9H12.2498ZM10.0058 4.368H11.2778C11.6538 4.368 11.9338 4.276 12.1178 4.092C12.3098 3.908 12.4058 3.648 12.4058 3.312C12.4058 2.992 12.3098 2.74 12.1178 2.556C11.9338 2.372 11.6538 2.28 11.2778 2.28H10.0058V4.368ZM21.062 9L19.346 6.42L17.834 9H15.506L18.206 4.716L15.446 0.576H17.834L19.526 3.12L21.014 0.576H23.342L20.666 4.824L23.45 9H21.062Z" fill="#F986ED"/>
</svg>
