<svg width="32" height="10" viewBox="0 0 32 10" fill="none" xmlns="http://www.w3.org/2000/svg">
<path d="M2.76 0.576V5.616C2.76 6.12 2.884 6.508 3.132 6.78C3.38 7.052 3.744 7.188 4.224 7.188C4.704 7.188 5.072 7.052 5.328 6.78C5.584 6.508 5.712 6.12 5.712 5.616V0.576H7.764V5.604C7.764 6.356 7.604 6.992 7.284 7.512C6.964 8.032 6.532 8.424 5.988 8.688C5.452 8.952 4.852 9.084 4.188 9.084C3.524 9.084 2.928 8.956 2.4 8.7C1.88 8.436 1.468 8.044 1.164 7.524C0.86 6.996 0.708 6.356 0.708 5.604V0.576H2.76ZM12.3729 9.084C11.7569 9.084 11.2049 8.984 10.7169 8.784C10.2289 8.584 9.83694 8.288 9.54094 7.896C9.25294 7.504 9.10094 7.032 9.08494 6.48H11.2689C11.3009 6.792 11.4089 7.032 11.5929 7.2C11.7769 7.36 12.0169 7.44 12.3129 7.44C12.6169 7.44 12.8569 7.372 13.0329 7.236C13.2089 7.092 13.2969 6.896 13.2969 6.648C13.2969 6.44 13.2249 6.268 13.0809 6.132C12.9449 5.996 12.7729 5.884 12.5649 5.796C12.3649 5.708 12.0769 5.608 11.7009 5.496C11.1569 5.328 10.7129 5.16 10.3689 4.992C10.0249 4.824 9.72894 4.576 9.48094 4.248C9.23294 3.92 9.10894 3.492 9.10894 2.964C9.10894 2.18 9.39294 1.568 9.96094 1.128C10.5289 0.68 11.2689 0.456 12.1809 0.456C13.1089 0.456 13.8569 0.68 14.4249 1.128C14.9929 1.568 15.2969 2.184 15.3369 2.976H13.1169C13.1009 2.704 13.0009 2.492 12.8169 2.34C12.6329 2.18 12.3969 2.1 12.1089 2.1C11.8609 2.1 11.6609 2.168 11.5089 2.304C11.3569 2.432 11.2809 2.62 11.2809 2.868C11.2809 3.14 11.4089 3.352 11.6649 3.504C11.9209 3.656 12.3209 3.82 12.8649 3.996C13.4089 4.18 13.8489 4.356 14.1849 4.524C14.5289 4.692 14.8249 4.936 15.0729 5.256C15.3209 5.576 15.4449 5.988 15.4449 6.492C15.4449 6.972 15.3209 7.408 15.0729 7.8C14.8329 8.192 14.4809 8.504 14.0169 8.736C13.5529 8.968 13.0049 9.084 12.3729 9.084ZM19.9837 0.576C20.8717 0.576 21.6478 0.752 22.3118 1.104C22.9758 1.456 23.4878 1.952 23.8477 2.592C24.2157 3.224 24.3997 3.956 24.3997 4.788C24.3997 5.612 24.2157 6.344 23.8477 6.984C23.4878 7.624 22.9718 8.12 22.2997 8.472C21.6358 8.824 20.8638 9 19.9837 9H16.8277V0.576H19.9837ZM19.8517 7.224C20.6277 7.224 21.2318 7.012 21.6638 6.588C22.0958 6.164 22.3118 5.564 22.3118 4.788C22.3118 4.012 22.0958 3.408 21.6638 2.976C21.2318 2.544 20.6277 2.328 19.8517 2.328H18.8797V7.224H19.8517ZM31.7265 0.576V2.22H29.4945V9H27.4425V2.22H25.2105V0.576H31.7265Z" fill="#00941D"/>
</svg>
