<svg width="22" height="22" viewBox="0 0 22 22" fill="none" xmlns="http://www.w3.org/2000/svg">
<path d="M19.8172 4.71429H3.4375C3.05766 4.71429 2.75 4.36268 2.75 3.92857C2.75 3.49446 3.05766 3.14286 3.4375 3.14286H19.9375C20.3173 3.14286 20.625 2.79125 20.625 2.35714C20.625 1.05531 19.7016 0 18.5625 0H2.75C1.23105 0 0 1.40692 0 3.14286V18.8571C0 20.5931 1.23105 22 2.75 22H19.8172C21.0212 22 22 20.9427 22 19.6429V7.07143C22 5.77156 21.0212 4.71429 19.8172 4.71429ZM17.875 14.9286C17.1157 14.9286 16.5 14.2249 16.5 13.3571C16.5 12.4894 17.1157 11.7857 17.875 11.7857C18.6343 11.7857 19.25 12.4894 19.25 13.3571C19.25 14.2249 18.6343 14.9286 17.875 14.9286Z" fill="#D9D9D9"/>
</svg>
