<svg width="28" height="28" viewBox="0 0 28 28" fill="none" xmlns="http://www.w3.org/2000/svg">
<path d="M26.8653 22.3143C26.7521 22.2032 26.6896 22.0604 26.6896 21.9126C26.6896 21.7647 26.7521 21.622 26.8653 21.5109L27.7694 20.6345C27.869 20.5388 27.9309 20.4183 27.9461 20.2903C27.9613 20.1624 27.9291 20.0336 27.8541 19.9224L26.4415 17.8167C26.3673 17.7056 26.2543 17.6176 26.1186 17.5651C25.9829 17.5127 25.8314 17.4985 25.6858 17.5245L24.3579 17.7558C24.189 17.7859 24.0131 17.7616 23.8634 17.6876C23.7138 17.6136 23.6008 17.495 23.5457 17.3541L23.1148 16.2404C23.0674 16.1195 22.9772 16.0145 22.8568 15.9402C22.7364 15.866 22.5919 15.8262 22.4438 15.8265H19.6186C19.4646 15.8196 19.3122 15.8563 19.1846 15.931C19.0571 16.0057 18.9614 16.1144 18.9123 16.2404L18.5168 17.3541C18.4617 17.495 18.3486 17.6136 18.199 17.6876C18.0494 17.7616 17.8735 17.7859 17.7045 17.7558L16.3413 17.5245C16.2033 17.5077 16.0626 17.5265 15.9369 17.5785C15.8112 17.6305 15.7062 17.7133 15.635 17.8167L14.2224 19.9224C14.1455 20.0324 14.111 20.1605 14.1237 20.2883C14.1363 20.4162 14.1956 20.5374 14.293 20.6345L15.1901 21.5109C15.3033 21.622 15.3657 21.7647 15.3657 21.9126C15.3657 22.0604 15.3033 22.2032 15.1901 22.3143L14.293 23.1907C14.1956 23.2878 14.1363 23.4089 14.1237 23.5368C14.111 23.6647 14.1455 23.7928 14.2224 23.9027L15.635 26.0085C15.7093 26.1196 15.8223 26.2076 15.958 26.2601C16.0937 26.3125 16.2452 26.3267 16.3908 26.3006L17.7186 26.0694C17.8876 26.0393 18.0635 26.0635 18.2131 26.1375C18.3628 26.2115 18.4758 26.3302 18.5309 26.4711L18.9617 27.5848C19.0109 27.7108 19.1065 27.8194 19.2341 27.8941C19.3616 27.9689 19.514 28.0056 19.668 27.9987H22.4933C22.6413 27.999 22.7858 27.9592 22.9062 27.8849C23.0266 27.8107 23.1169 27.7057 23.1643 27.5848L23.5951 26.4711C23.6502 26.3302 23.7632 26.2115 23.9129 26.1375C24.0625 26.0635 24.2384 26.0393 24.4074 26.0694L25.7352 26.3006C25.8808 26.3267 26.0323 26.3125 26.168 26.2601C26.3037 26.2076 26.4167 26.1196 26.491 26.0085L27.9036 23.9027C27.9786 23.7915 28.0108 23.6627 27.9955 23.5348C27.9803 23.4069 27.9185 23.2864 27.8188 23.1907L26.8653 22.3143ZM25.8129 23.1298L26.378 23.6775L25.4739 25.0287L24.6404 24.8826C24.1317 24.793 23.6026 24.8674 23.1534 25.0918C22.7042 25.3162 22.3662 25.6749 22.2037 26.0998L21.9353 26.7814H20.1271L19.8729 26.0876C19.7103 25.6627 19.3724 25.304 18.9232 25.0797C18.474 24.8553 17.9448 24.7808 17.4361 24.8704L16.6027 25.0165L15.6845 23.6715L16.2495 23.1237C16.597 22.789 16.7891 22.3556 16.7891 21.9065C16.7891 21.4574 16.597 21.024 16.2495 20.6893L15.6845 20.1415L16.5885 18.8026L17.422 18.9487C17.9307 19.0383 18.4599 18.9638 18.909 18.7394C19.3582 18.515 19.6962 18.1564 19.8587 17.7315L20.1271 17.0437H21.9353L22.2037 17.7375C22.3662 18.1624 22.7042 18.5211 23.1534 18.7455C23.6026 18.9699 24.1317 19.0444 24.6404 18.9548L25.4739 18.8087L26.378 20.1598L25.8129 20.7075C25.4693 21.0415 25.2796 21.4724 25.2796 21.9187C25.2796 22.365 25.4693 22.7958 25.8129 23.1298ZM21.0312 19.4782C20.4724 19.4782 19.9262 19.6209 19.4616 19.8884C18.997 20.1559 18.6349 20.5361 18.421 20.981C18.2072 21.4258 18.1513 21.9153 18.2603 22.3875C18.3693 22.8598 18.6384 23.2935 19.0335 23.634C19.4286 23.9744 19.932 24.2063 20.48 24.3002C21.0281 24.3942 21.5961 24.346 22.1124 24.1617C22.6286 23.9774 23.0699 23.6654 23.3803 23.2651C23.6907 22.8647 23.8564 22.3941 23.8564 21.9126C23.8564 21.2669 23.5588 20.6477 23.029 20.1912C22.4991 19.7346 21.7805 19.4782 21.0312 19.4782ZM21.0312 23.1298C20.7518 23.1298 20.4787 23.0584 20.2464 22.9247C20.0141 22.7909 19.833 22.6008 19.7261 22.3784C19.6192 22.156 19.5912 21.9112 19.6457 21.6751C19.7003 21.439 19.8348 21.2221 20.0323 21.0519C20.2299 20.8817 20.4816 20.7657 20.7556 20.7188C21.0296 20.6718 21.3137 20.6959 21.5718 20.788C21.8299 20.8802 22.0505 21.0362 22.2058 21.2363C22.361 21.4365 22.4438 21.6718 22.4438 21.9126C22.4438 22.2354 22.295 22.545 22.0301 22.7733C21.7652 23.0016 21.4059 23.1298 21.0312 23.1298Z" fill="#F316DD"/>
<rect y="24.3477" width="10.4695" height="3.65214" fill="#F316DD"/>
<rect y="12.1738" width="18.0172" height="3.65214" fill="#F316DD"/>
<rect width="27.9997" height="3.65214" fill="#F316DD"/>
</svg>
