<svg width="25" height="27" viewBox="0 0 25 27" fill="none" xmlns="http://www.w3.org/2000/svg">
<path d="M18.5234 0.359332L4.77782 14.1049C4.64253 14.2393 4.54078 14.4037 4.48082 14.5848L2.51716 20.4758C2.45571 20.6603 2.43898 20.8567 2.46835 21.049C2.49773 21.2412 2.57236 21.4237 2.68611 21.5814C2.79985 21.7392 2.94945 21.8676 3.12257 21.9562C3.2957 22.0447 3.48739 22.0909 3.68185 22.0909C3.81363 22.0907 3.94453 22.0695 4.06968 22.0283L9.96064 20.0646C10.1414 20.004 10.3056 19.9023 10.4405 19.7676L24.1861 6.02202C24.4162 5.79187 24.5454 5.47976 24.5454 5.15433C24.5454 4.8289 24.4162 4.51679 24.1861 4.28664L20.2588 0.359332C20.0286 0.129252 19.7165 0 19.3911 0C19.0657 0 18.7536 0.129252 18.5234 0.359332ZM8.91009 17.8273L5.62219 18.9232L6.71816 15.6353L19.3911 2.9624L21.583 5.15433L8.91009 17.8273ZM1.22728 24.5454H22.0911C22.4166 24.5454 22.7288 24.6747 22.9589 24.9049C23.1891 25.1351 23.3184 25.4472 23.3184 25.7727C23.3184 26.0982 23.1891 26.4104 22.9589 26.6405C22.7288 26.8707 22.4166 27 22.0911 27H1.22728C0.901788 27 0.589624 26.8707 0.359463 26.6405C0.129303 26.4104 0 26.0982 0 25.7727C0 25.4472 0.129303 25.1351 0.359463 24.9049C0.589624 24.6747 0.901788 24.5454 1.22728 24.5454Z" fill="white" fill-opacity="0.8"/>
</svg>
