<svg width="24" height="9" viewBox="0 0 24 9" fill="none" xmlns="http://www.w3.org/2000/svg">
<path d="M5.904 9L4.188 6.42L2.676 9H0.348L3.048 4.716L0.288 0.576H2.676L4.368 3.12L5.856 0.576H8.184L5.508 4.824L8.292 9H5.904ZM13.7381 9L11.9861 5.82H11.4941V9H9.44212V0.576H12.8861C13.5501 0.576 14.1141 0.692 14.5781 0.924C15.0501 1.156 15.4021 1.476 15.6341 1.884C15.8661 2.284 15.9821 2.732 15.9821 3.228C15.9821 3.788 15.8221 4.288 15.5021 4.728C15.1901 5.168 14.7261 5.48 14.1101 5.664L16.0541 9H13.7381ZM11.4941 4.368H12.7661C13.1421 4.368 13.4221 4.276 13.6061 4.092C13.7981 3.908 13.8941 3.648 13.8941 3.312C13.8941 2.992 13.7981 2.74 13.6061 2.556C13.4221 2.372 13.1421 2.28 12.7661 2.28H11.4941V4.368ZM23.8102 3.288C23.8102 3.776 23.6982 4.224 23.4742 4.632C23.2502 5.032 22.9062 5.356 22.4422 5.604C21.9782 5.852 21.4022 5.976 20.7142 5.976H19.4422V9H17.3902V0.576H20.7142C21.3862 0.576 21.9542 0.692 22.4183 0.924C22.8823 1.156 23.2303 1.476 23.4622 1.884C23.6942 2.292 23.8102 2.76 23.8102 3.288ZM20.5582 4.344C20.9503 4.344 21.2423 4.252 21.4342 4.068C21.6262 3.884 21.7222 3.624 21.7222 3.288C21.7222 2.952 21.6262 2.692 21.4342 2.508C21.2423 2.324 20.9503 2.232 20.5582 2.232H19.4422V4.344H20.5582Z" fill="#DBFF00"/>
</svg>
