<svg width="85" height="35" viewBox="0 0 85 35" fill="none" xmlns="http://www.w3.org/2000/svg">
<path d="M0 24.5362H13.7971L17.4493 17.2319H21.5072L24.7536 24.5362H39.7681L45.4493 17.2319H57.6232L63.3043 1H80.7536L84 5.46377" stroke="#149833" stroke-width="1.5"/>
<path d="M82.3596 4.71274C82.3596 13.2906 82.3596 21.7987 82.3596 30.3818C82.3596 31.7677 82.3596 33.1536 82.3596 34.5395C82.3596 34.7234 82.3596 33.7612 82.3596 33.5152C82.3596 31.5312 82.3596 25.5792 82.3596 27.5632C82.3596 28.4224 82.3596 29.2816 82.3596 30.1408C82.3596 30.4586 82.4527 30.707 82.0517 30.7367C81.3999 30.785 80.7297 30.7434 80.0766 30.7434C79.8444 30.7434 78.0215 30.7675 78.0748 30.2881C78.0822 30.2207 78.3178 30.2727 78.2354 30.3551C78.1818 30.4087 77.8904 30.4609 77.8203 30.4756C77.3105 30.5823 76.6885 30.5266 76.2135 30.7166C76.0548 30.7801 75.7185 30.8639 75.5507 30.8639C75.0136 30.8639 75.2979 30.9259 75.6645 30.8036C76.6745 30.467 77.7925 30.3844 78.771 30.0203C79.2972 29.8245 79.9354 29.6449 80.485 29.545C80.8713 29.4747 80.9627 29.5598 80.9068 29.0562C80.7889 27.9955 80.0699 27.0041 80.0699 25.9229C80.0699 25.7337 79.9765 25.3106 79.8557 25.1596C79.6815 24.9419 80.0549 23.9383 80.0967 23.6599C80.2407 22.6996 80.4314 21.7021 80.4314 20.7342C80.4314 19.5312 80.793 18.33 80.793 17.1255C80.793 14.5397 81.3352 11.9151 81.1478 9.2922C81.0574 8.027 80.793 6.83419 80.793 5.55632C80.793 4.53115 80.8688 3.75555 79.8289 3.29337C79.4029 3.10404 79.6665 2.18534 79.2799 2.2958C78.3778 2.55354 77.5793 2.66403 76.6286 2.66403C76.2112 2.66403 75.7869 2.68598 75.3699 2.66403C75.1919 2.65466 75.1617 2.4808 74.995 2.44978C74.6392 2.38359 74.2797 2.53667 73.9238 2.54352C72.9382 2.56247 71.9504 2.54352 70.9645 2.54352C69.5086 2.54352 68.0926 2.66403 66.693 2.66403C66.1667 2.66403 65.4452 2.79815 64.9523 2.65733C64.7567 2.60145 64.6452 2.54352 64.4033 2.54352C64.0426 2.54352 64.1816 2.79053 64.015 2.99879C63.709 3.38127 63.7276 4.22598 63.6735 4.71274C63.6069 5.31218 63.5335 5.92964 63.3455 6.49364C63.0753 7.30405 62.796 8.09572 62.5889 8.92397C62.4574 9.4503 62.0771 9.95617 61.9998 10.4973C61.7445 12.2839 61.3501 14.0978 61.0557 15.8936C60.9386 16.6083 60.9106 17.6272 60.5469 18.2637C60.1078 19.032 60.5893 16.483 60.7812 15.6191C60.8345 15.3795 60.8456 15.1176 60.9687 14.896C61.1232 14.6179 61.3905 14.1589 61.3905 13.8449C61.3905 13.5525 61.3905 13.2602 61.3905 12.9678C61.3905 12.57 61.3425 12.7871 61.0892 12.7871C60.9466 12.7871 60.558 12.8659 60.5469 12.6665C60.5361 12.4711 60.45 11.8838 60.5737 11.7292C60.9877 11.2117 60.3639 12.6316 60.3193 12.7737C59.8757 14.1864 59.4799 15.6262 59.1008 17.0585C58.9833 17.5024 58.8218 18.8671 58.438 19.1742C58.1656 19.3921 58.5824 19.3119 58.3509 19.0805C58.2495 18.9791 57.7946 19.0537 57.6546 19.0537C57.5775 19.0537 57.0488 19.1698 57.2261 19.288C57.3469 19.3685 56.936 19.2947 56.791 19.2947C56.3357 19.2947 55.8804 19.2947 55.4252 19.2947C53.7631 19.2947 52.4314 19.2722 50.8055 18.8328C50.1816 18.6641 49.8045 18.8127 49.192 18.8127C48.7272 18.8127 48.1655 19.054 47.7191 18.9265C47.5999 18.8924 47.59 18.6163 47.478 18.5315C47.3216 18.4129 47.0863 18.4511 46.9023 18.4511C46.7376 18.4511 46.2483 18.3691 46.1122 18.4779C45.809 18.7205 45.6683 19.2983 45.5498 19.6429C45.3673 20.1739 45.0722 20.7187 44.8201 21.2229C44.3378 22.1875 43.3984 22.9074 42.7379 23.7537C42.2709 24.352 41.9736 25.2143 41.4457 25.7421C40.3165 26.8714 38.4514 26.8036 36.8596 26.5522C35.9823 26.4137 35.0336 26.1639 34.1815 26.1639C33.0914 26.1639 32.0488 26.3772 30.9679 26.4049C29.7291 26.4367 28.386 26.7869 27.2253 26.271C26.7222 26.0474 26.4011 26.0434 25.7724 26.0434C25.5534 26.0434 24.5695 25.8834 24.3932 26.1037C24.1788 26.3717 23.6461 26.5255 23.3086 26.5255C22.9932 26.5255 22.8979 25.4815 22.7663 25.1396C22.2395 23.7697 22.3445 22.3169 22.3445 20.8614C22.3445 20.6003 22.3445 20.3392 22.3445 20.078C22.3445 19.7713 22.0105 19.9482 21.8089 19.8906C21.661 19.8483 21.6215 19.4688 21.6215 19.4688C21.6215 19.4688 21.1603 19.0488 20.8716 18.96C20.3479 18.7988 19.8221 18.6922 19.2715 18.6922C19.0517 18.6922 18.8281 18.68 18.6087 18.6922C18.2544 18.7118 17.8797 19.7108 17.7383 20.0044C17.2158 21.0895 16.861 22.345 16.0511 23.2448C15.799 23.525 15.4626 24.6325 15.6026 24.2826C15.699 24.0416 16.055 23.8955 16.252 23.7537C16.7557 23.391 17.2352 22.9937 17.7383 22.6289C18.4519 22.1115 19.1774 21.5708 19.9276 21.1091C20.2191 20.9297 21.2095 20.5673 21.2599 20.1383C21.2826 19.9459 21.501 19.4156 21.501 19.6094C21.501 19.8909 21.3715 20.0681 21.2599 20.3191C20.9376 21.0443 20.5672 21.6551 20.2958 22.4013C20.1036 22.9299 19.9559 23.6063 19.9343 24.1688C19.9238 24.4424 19.8138 25.0884 19.8138 24.4767C19.8138 23.2511 20.1715 24.4897 20.2891 25.0191C20.3368 25.2338 20.621 26.0494 20.3896 26.2576C19.9517 26.6518 19.1542 26.034 18.9099 25.7354C18.5506 25.2962 17.9714 22.7896 17.4638 22.7896C16.9459 22.7896 16.4045 23.2367 15.9306 23.4189C15.6527 23.5258 14.9933 23.7978 14.9933 24.1755C14.9933 24.4077 14.8592 25.7706 15.1138 25.8024C15.3327 25.8297 15.6056 25.989 15.8503 26.0434C16.5766 26.2048 17.323 26.186 18.053 26.3447C18.3317 26.4053 18.6887 26.5411 18.9702 26.5255C19.3841 26.5025 19.3214 26.2547 19.8004 26.4049C21.2819 26.8697 23.0447 26.6268 24.574 26.7598C25.406 26.8321 26.3161 26.6194 27.1382 26.5255C28.1983 26.4043 29.2728 26.4068 30.3117 26.1639C32.8514 25.5702 35.2145 24.5973 37.8638 24.5973C38.4452 24.5973 39.1819 24.4788 39.7452 24.604C40.3502 24.7384 39.8112 26.7368 40.9034 26.1907C41.9723 25.6562 42.9612 25.6229 44.1706 25.7957C45.221 25.9457 46.402 25.8024 47.458 25.8024C48.4255 25.8024 49.3509 25.9309 50.3034 26.0367C53.2935 26.3689 56.3167 25.8024 59.3284 25.8024C60.1488 25.8024 60.9722 25.8226 61.7922 25.7957C63.9389 25.7253 66.3275 25.3612 68.4338 25.9229C70.681 26.5222 73.0277 26.2288 75.2628 26.7933C76.1102 27.0072 77.3174 26.9856 78.1417 26.6192C78.7456 26.3508 78.929 26.7817 79.2263 27.3021C79.5315 27.8362 78.7505 27.8349 78.3827 27.9984C77.7165 28.2945 76.9944 28.1854 76.2872 28.3934C75.7332 28.5563 74.9851 28.7198 75.3699 27.9716C76.0295 26.689 77.7443 26.3439 78.6238 25.2132C79.0579 24.655 79.3468 24.3462 79.3468 23.6332C79.3468 21.9409 79.4332 20.4296 79.7686 18.7524C80.1303 16.944 80.6725 15.034 80.6725 13.2022C80.6725 11.9933 80.1436 10.7973 80.1904 9.62696C80.2248 8.76638 80.3968 7.53893 80.3042 6.52042C80.2668 6.10848 80.334 4.95376 79.7084 4.95376C79.0775 4.95376 78.5342 4.71274 77.894 4.71274C77.221 4.71274 76.5163 4.83325 76.0729 4.83325C74.4082 4.83325 72.5708 5.12857 70.9378 5.46259C69.9901 5.65644 70.4277 5.47723 69.8799 4.77299C69.1144 3.78881 66.9955 5.55632 66.1507 5.55632C65.8692 5.55632 65.1619 5.83906 65.1264 6.15888C65.0937 6.45324 64.6802 6.50392 64.7247 6.44677C65.1001 5.96408 65.6578 5.62149 66.2043 5.37555C67.4863 4.79865 69.1756 5.07427 70.5628 5.07427C70.7754 5.07427 71.3475 5.17653 71.4868 4.95376C71.6761 4.65082 71.6252 4.86088 71.634 5.10105C71.6456 5.41186 71.6694 6.07791 71.8148 6.33965C72.053 6.7684 72.3612 6.56814 72.8124 6.52712C73.4554 6.46866 73.5622 6.14745 73.5622 5.55632C73.5622 4.86615 73.2938 4.63604 72.7187 4.47171C71.7063 4.18247 70.727 3.3871 69.6523 3.3871C68.8336 3.3871 68.9194 4.57019 68.5007 4.59222C67.5291 4.64336 66.5187 5.19479 65.5482 5.19479C65.1061 5.19479 64.2542 6.37295 64.1355 6.76145C63.5983 8.51948 63.3865 10.357 62.9304 12.1309C62.8447 12.4643 62.8741 12.8206 62.7697 13.1486C62.1404 15.1266 61.1138 17.0029 60.3795 18.9466C60.15 19.5542 59.9107 20.1687 59.6096 20.7409C59.3697 21.1967 59.5139 20.9481 59.7033 20.6471C59.7544 20.5661 60.0597 20.0312 60.0046 20.0312C59.8199 20.0312 59.5895 20.4003 60.0917 20.058C61.6885 18.9692 62.9687 17.1073 64.0819 15.5454C64.619 14.7919 65.3587 14.0579 65.8227 13.2691C66.4578 12.1895 64.9842 15.6924 64.169 16.6434C63.8124 17.0595 63.9213 16.5953 63.9213 16.2284C63.9213 15.1391 64.1003 14.0936 64.3096 13.0281C64.4917 12.1008 64.7027 11.0253 64.9992 10.1358C65.4018 8.92803 65.6028 7.88443 66.4319 6.86187C66.8428 6.35514 67.3324 6.39384 67.8915 6.21914C68.5046 6.02755 68.4081 6.49575 68.3267 7.01586C68.0024 9.08779 67.2987 11.0851 66.7734 13.1084C66.5678 13.9002 66.3261 14.6652 66.2177 15.4785C66.1179 16.2268 66.1813 14.6394 66.2244 14.4608C66.4445 13.5491 66.8197 12.7006 67.1751 11.8363C67.89 10.0979 68.4873 8.30124 69.2908 6.60076C69.9915 5.11761 70.828 3.6513 71.6608 2.23554C72.4256 0.935464 71.0325 5.20162 70.4691 6.60076C70.147 7.40055 69.8646 8.18381 69.5853 8.99762C69.4553 9.37673 69.1033 9.79203 69.1033 10.2027C69.1033 10.529 69.6519 9.67487 69.6992 9.9818C69.8066 10.6805 69.2038 11.5527 68.9225 12.1778C68.8182 12.4096 68.4919 13.0517 68.648 12.3987C68.9029 11.333 69.7104 10.369 70.2147 9.41271C70.341 9.17317 71.1997 7.737 70.7771 8.70303C70.5699 9.17663 70.2426 9.57102 70.0138 10.0287C69.8317 10.3928 69.7375 10.8093 69.4782 11.1334C69.0741 11.6385 69.9311 9.92013 70.2013 9.33237C70.6624 8.32951 71.1961 7.35978 71.6474 6.35304C72.0445 5.46731 72.8735 2.68131 72.6919 3.63482C72.532 4.47396 72.0584 5.30926 71.6608 6.05176C70.8906 7.49009 70.1325 8.91905 69.4514 10.4036C68.9933 11.4022 68.5548 12.4072 68.1526 13.4298C68.0188 13.7698 67.9217 14.6981 67.6839 14.4207C67.3734 14.0584 68.4402 12.8627 68.494 12.4322C68.5301 12.1433 68.4621 13.0144 68.4204 13.3026C68.2407 14.5437 67.7699 15.731 67.4228 16.9313C67.0813 18.1122 66.6156 19.3257 66.3583 20.5266C66.2246 21.1503 66.5101 20.0256 66.5324 19.9642C67.1241 18.334 67.8737 16.745 68.5409 15.1437C69.1665 13.6423 69.9593 12.2986 70.8306 10.9392C70.8487 10.911 71.2451 10.2502 71.2658 10.3433C71.3356 10.6576 71.1925 11.0497 71.0917 11.3409C70.9456 11.7631 70.67 13.0597 70.67 12.613C70.67 11.6982 71.0999 10.8135 71.4064 9.97511C71.8029 8.89055 72.1243 7.78532 72.5446 6.70788C72.9311 5.71699 74.0328 2.72228 73.6694 3.72186C73.2368 4.91139 72.5513 6.03845 72.183 7.24349C72.0996 7.51665 71.7665 8.59182 71.8081 8.51557C72.0834 8.01091 72.4225 7.46892 72.7454 7.00247C73.1327 6.44316 72.5851 8.36118 72.3839 9.01101C71.8931 10.5961 71.3611 12.1817 70.7503 13.7244C70.2933 14.8785 70.0099 16.3018 69.3711 17.3665C68.4677 18.8722 70.4495 14.0222 71.085 12.3854C71.6492 10.9321 72.1963 9.43726 73.0132 8.10047C73.3688 7.51866 73.3356 7.97184 73.3212 8.4754C73.2872 9.66585 72.7833 10.7804 72.7187 11.9435C72.6897 12.4655 72.5873 12.0991 72.7923 11.6891C73.2501 10.7734 73.8113 10.0692 74.4661 9.2989C74.63 9.10602 75.1784 8.52915 75.4369 8.45531C75.7794 8.35744 75.5844 9.02887 75.9993 8.27454C76.5268 7.31546 77.0595 6.35279 77.4186 5.3153C77.4981 5.08579 77.9915 4.214 77.5793 4.79308C76.6331 6.12233 75.8371 7.56769 74.8343 8.85702C74.8116 8.88621 74.2281 9.66426 74.1715 9.46628C74.1446 9.37202 74.1795 9.26715 74.1648 9.17169C74.116 8.85477 73.7683 9.67586 73.5622 9.92154C73.1961 10.3581 72.5819 11.4966 72.0224 11.6757C71.7004 11.7787 72.142 10.2358 72.1697 10.1492C72.5158 9.06506 73.0546 7.9388 73.6158 6.94891C74.0113 6.25124 74.4932 5.6135 74.8879 4.91359C75.1063 4.52623 75.3432 4.13693 75.7047 3.86915C76.4032 3.35169 76.0996 5.20285 76.0796 5.5831C75.9498 8.04895 75.4681 10.6206 75.0686 13.0616C74.9748 13.6352 74.9302 14.2061 74.8611 14.7822C74.8096 15.2113 74.754 15.6169 74.7674 14.8759C74.8169 12.1255 75.3284 9.35496 75.4904 6.60076C75.4994 6.44925 75.4827 6.90494 75.4971 7.05603C75.5215 7.3114 75.6876 7.54778 75.8654 7.72554C76.2009 8.06111 76.7141 8.21998 77.1709 8.02013C77.3423 7.94515 77.4682 7.60503 77.6597 7.60503C77.9187 7.60503 77.7802 9.77184 77.7802 10.0688C77.7802 11.1063 77.4461 11.9188 77.3048 12.9076C77.2616 13.2103 77.2894 11.7897 77.3115 11.5351C77.398 10.5407 77.755 9.80362 78.1685 8.93067C78.3691 8.5071 78.2622 9.2032 78.2622 9.38593C78.2622 9.96869 78.6638 9.37913 78.8045 9.17169C79.2508 8.51406 79.4929 7.86267 79.7753 7.13637C80.1202 6.24945 79.1234 7.3922 78.925 7.67868C78.7255 7.96686 77.9007 9.65631 77.9007 9.62696C77.9007 9.2565 77.9007 8.88603 77.9007 8.51557C77.9007 8.47135 77.9726 8.15015 78.0212 8.30802C78.1938 8.86912 78.1417 9.53207 78.1417 10.109C78.1417 13.2283 77.3844 16.3175 76.5483 19.3081C76.1919 20.583 75.7339 21.8247 75.3298 23.0842C75.1068 23.779 75.0112 24.4791 74.7004 25.1463C74.6889 25.171 74.3566 25.9019 74.3121 25.8426C74.14 25.6131 74.3093 24.9011 74.4594 24.691C75.3425 23.4546 76.4968 22.3882 77.3651 21.1292C77.6433 20.7258 77.6286 20.6326 77.6664 20.0847C77.7179 19.3377 78.1013 18.5862 78.2756 17.862C78.7084 16.0641 79.1362 14.2892 79.6749 12.5193C80.0798 11.1888 79.5413 13.3644 79.454 13.6173C78.5059 16.3615 77.5855 19.1049 76.575 21.8255C76.3854 22.336 75.6865 23.325 75.8587 23.9277C75.9258 24.1628 76.3881 23.656 76.4545 23.5729C76.822 23.1136 78.3505 24.3762 77.9007 23.8139C77.717 23.5843 76.4048 23.7049 76.093 23.6064C75.432 23.3976 75.2243 22.6892 75.1021 22.0732C74.7663 20.3808 74.7015 18.2148 75.1155 16.5229C75.4008 15.3569 76.0376 14.2058 76.7023 13.2089C76.868 12.9602 77.1261 12.7677 77.2981 12.5193C77.817 11.7697 76.9495 13.8433 76.8429 14.0591C76.1875 15.3851 75.5976 16.6585 74.292 17.4201C74.1299 17.5147 72.6891 18.4294 72.6249 18.2771C72.323 17.5601 73.6646 16.1015 73.9907 15.6124C74.3032 15.1436 74.5868 14.6746 74.8276 14.1663C74.9496 13.9086 75.0438 13.6237 75.1222 13.3494C75.1322 13.3146 75.1325 13.4698 75.062 13.5101C73.2431 14.5495 71.6834 15.8988 69.6657 16.5497C69.2241 16.6922 69.5908 15.9997 69.7996 15.8668C69.9684 15.7594 70.2 15.1635 70.295 15.0098C70.7401 14.2899 71.1553 13.6641 71.7813 13.095C71.9489 12.9427 74.0501 11.0454 73.3748 12.4925C73.1815 12.9066 72.9463 13.1272 72.6249 13.4164C72.1798 13.817 70.8526 12.619 70.536 12.3854C69.6172 11.7069 68.7899 10.8865 67.8446 10.2563C67.555 10.0632 67.3419 9.89476 66.9876 9.89476C66.5376 9.89476 65.6084 10.0437 65.6084 9.34576C65.6084 8.51283 66.5797 7.40328 66.8805 8.78337C67.3348 10.8676 66.4114 12.823 67.3023 14.8425C67.6757 15.6888 68.1478 16.4793 68.6212 17.2728C69.0139 17.9309 69.7229 19.3461 70.5762 19.5357C71.3404 19.7056 71.8055 18.8826 72.3303 18.5047C72.8127 18.1574 71.8471 18.7097 71.5135 18.6922C71.3426 18.6832 71.1437 18.2421 71.2323 18.2168C71.5717 18.1198 72.0702 18.5755 72.2768 18.7591C73.0915 19.4833 73.6014 20.3558 73.9907 21.3568C74.3732 22.3403 74.6457 23.348 75.0084 24.3295C75.0348 24.4009 75.2333 25.3343 75.2494 24.932C75.2852 24.0374 75.5367 23.3921 76.5148 23.3921C76.9173 23.3921 78.3251 21.4145 78.1149 22.3075C77.711 24.0242 76.2026 24.3562 74.5531 24.3562C73.6097 24.3562 72.8048 24.3188 71.8885 24.1152C71.4064 24.0081 71.6117 23.5775 71.8952 23.3118C72.5026 22.7423 73.0936 21.96 73.4953 21.2296C73.6937 20.8689 74.5765 20.1919 74.1648 20.1919C73.8412 20.1919 72.9243 21.543 72.7187 21.7987C72.2264 22.4107 71.888 23.105 71.4466 23.747C71.1727 24.1454 71.1067 24.3122 71.1587 23.7403C71.2291 22.9656 71.7369 21.9794 72.0491 21.2631C72.3059 20.6741 72.8815 19.8231 71.9956 20.5266C71.3858 21.0109 70.8499 21.7783 70.4021 22.4013C70.2169 22.6589 70.0385 22.923 69.8531 23.1779C69.8205 23.2228 69.9469 23.4097 69.9469 23.4859C69.9469 23.8787 69.7163 24.2907 69.5853 24.6508C69.4661 24.9787 69.4648 25.1433 69.4648 24.691C69.4648 23.0395 70.3729 21.3996 70.911 19.8705C71.4682 18.2868 72.0072 16.7155 72.7454 15.2107C72.8559 14.9856 73.3378 14.0259 73.0065 14.8358C72.7081 15.5653 72.3392 16.2824 72.0023 16.9983C71.252 18.5927 70.7223 20.3869 69.7728 21.879C69.5892 22.1675 69.3634 22.342 69.1167 22.5887C68.8435 22.8619 68.4104 23.219 68.2865 23.6064C68.2317 23.7776 68.3781 23.8031 68.2329 23.9947C67.8013 24.5645 67.0106 25.1 66.4118 25.481C66.3133 25.5437 66.7928 23.9483 66.8738 23.7738C67.4195 22.5985 68.1994 21.2832 69.1301 20.3525C69.2343 20.2483 70.0713 19.414 69.5519 19.8035C68.1289 20.8708 66.9283 22.126 65.5683 23.2515C65.2265 23.5344 65.0244 23.9184 64.6443 24.142C64.2496 24.3742 64.7411 23.6781 64.8854 23.4457C65.7208 22.0997 66.4532 20.6133 67.2086 19.2144C67.3351 18.9801 68.1662 17.3835 67.5969 18.3909C66.9588 19.5198 66.3475 20.668 65.7691 21.8389C65.382 22.6225 64.9033 23.3448 64.497 24.1152C64.3992 24.3008 64.2831 24.6639 64.1355 24.8115C64.017 24.93 64.0635 24.4954 64.0686 24.4767C64.179 24.068 64.4594 23.698 64.6711 23.3386C65.4432 22.0278 66.0425 20.4583 66.6395 19.0537C67.01 18.182 67.2122 17.3157 67.5969 16.4694C67.6521 16.3479 67.85 15.9317 67.6571 15.9204C67.4343 15.9073 67.2763 15.9912 67.0948 16.1212C66.0579 16.864 65.2259 17.7663 64.4837 18.7993C63.8001 19.7505 63.0175 20.603 62.301 21.5242C62.0453 21.853 62.7035 21.5839 62.7898 21.5242C63.2883 21.1791 63.8009 20.7736 64.2158 20.3191C64.4032 20.1139 64.7197 19.6696 65.0594 19.6696C65.5674 19.6696 64.6744 22.5042 64.6443 22.7896C64.5917 23.2898 64.0829 23.2937 63.7338 23.4524C63.2579 23.6687 62.6887 23.8651 62.1805 24.0215C61.9981 24.0776 61.2145 24.4797 61.2432 24.3964C61.5156 23.6064 61.7387 22.7494 62.1136 21.9995C62.1702 21.8863 62.7812 21.103 62.4216 21.3702C61.2016 22.2764 60.2252 23.6021 58.7995 24.2357C58.422 24.4035 58.3351 24.4246 58.6455 23.9947C59.0225 23.4727 59.4916 23.0549 59.9444 22.6021C60.1969 22.3496 61.4256 21.148 60.4197 21.9527C59.6444 22.573 58.7811 23.022 57.9224 23.5126C57.6531 23.6666 56.6721 24.1326 56.6905 24.1152C57.3884 23.4584 57.886 22.7678 58.3442 21.9192C58.6256 21.3982 58.9613 20.8803 59.382 20.4597C59.4151 20.4265 59.1128 20.6306 59.0405 20.6806C58.4718 21.0743 57.8975 21.4585 57.2797 21.7719C57.0601 21.8833 55.6595 22.4825 55.6595 22.6423C55.6595 22.7038 55.8568 22.6313 55.8269 22.736C55.791 22.8617 55.5157 23.1074 55.4185 23.2047C55.368 23.2551 54.6433 23.9813 54.8293 23.9813C55.2237 23.9813 55.7981 23.4853 56.0277 23.2047C56.2463 22.9375 56.4896 22.6037 56.6637 22.3075C56.8389 22.0098 56.7847 22.1744 56.57 22.187C56.2578 22.2054 55.9828 22.2595 55.6729 22.3008C55.1474 22.3709 55.056 22.5241 55.4252 21.9995C55.725 21.5735 56.0944 21.2519 56.5031 20.9283C56.9174 20.6003 56.5509 20.7015 56.2085 20.7944C55.056 21.1072 53.6648 22.0007 52.794 22.7896C52.1374 23.3843 51.6281 24.2172 51.1336 24.9454C51.0097 25.1278 50.565 25.5078 50.7854 25.5078C51.2964 25.5078 52.2531 24.7477 52.7538 24.5303C53.216 24.3296 53.698 24.1152 54.2066 24.1152C54.5483 24.1152 53.5935 24.4223 53.2693 24.5303C53.0416 24.6062 53.5554 23.3877 53.7982 23.2448C54.1131 23.0597 54.2038 22.3075 53.738 22.3075C53.2585 22.3075 51.8137 22.2335 51.6357 22.8565C51.4491 23.5098 52.1055 22.6105 52.178 22.5352C52.5457 22.1531 53.1083 21.4333 53.6777 21.3434C54.0754 21.2806 53.5067 21.1024 53.3697 21.1024C52.3785 21.1024 51.8927 21.6247 51.1537 22.2406C50.9735 22.3907 49.2729 23.7537 49.8213 23.7537C50.3111 23.7537 50.9734 23.5624 51.4416 23.3921C51.6671 23.3101 52.3912 23.2716 52.1512 23.2716C51.7583 23.2716 51.4323 23.5365 51.0265 23.5126C50.6883 23.4928 51.9823 21.2512 52.1579 20.935C52.2214 20.8208 51.7186 20.8614 51.629 20.8614C50.9252 20.8614 50.2146 20.8967 49.5803 21.2229C49.2899 21.3723 48.3432 21.5845 48.6698 21.5845C49.263 21.5845 48.5021 21.6834 48.3752 21.7317C48.0244 21.8654 47.658 21.8255 47.2839 21.8255C47.243 21.8255 46.3456 21.7694 46.7617 21.5845C47.1527 21.4107 47.8288 20.8363 48.2547 20.8614C48.8193 20.8946 46.5279 26.9239 46.1457 27.6034C45.9035 28.034 45.9649 27.8626 45.9649 27.4829C45.9649 26.8359 46.0338 26.2165 46.0921 25.5747C46.1176 25.2944 46.5758 24.177 46.2997 23.901C46.0077 23.6089 44.6124 24.0797 45.1548 24.2424C46.4708 24.6372 48.2267 25.3757 49.6071 24.932C50.8762 24.5241 52.1262 24.045 53.4099 23.6599C53.71 23.5699 53.8577 23.544 54.0393 23.2716" stroke="url(#paint0_linear_793_743)" stroke-opacity="0.2" stroke-width="3" stroke-linecap="round"/>
<defs>
<linearGradient id="paint0_linear_793_743" x1="48.6635" y1="1.99219" x2="48.6635" y2="34.5627" gradientUnits="userSpaceOnUse">
<stop offset="0.744792" stop-color="#149833"/>
<stop offset="0.958333" stop-color="#149833" stop-opacity="0"/>
</linearGradient>
</defs>
</svg>
